<?xml version="1.0" encoding="UTF-8" standalone="no"?>
<svg width="203px" height="151px" viewBox="0 0 203 151" version="1.1" xmlns="http://www.w3.org/2000/svg" xmlns:xlink="http://www.w3.org/1999/xlink" xmlns:sketch="http://www.bohemiancoding.com/sketch/ns">
    <!-- Generator: Sketch 3.2.1 (9971) - http://www.bohemiancoding.com/sketch -->
    <title>Logo</title>
    <desc>Created with Sketch.</desc>
    <defs></defs>
    <g id="Page-1" stroke="none" stroke-width="1" fill="none" fill-rule="evenodd" sketch:type="MSPage">
        <g id="Logo" sketch:type="MSArtboardGroup">
            <path d="M172.953446,28.8223861 L143.038925,28.8223852 C138.69772,22.8792731 124.589937,5.13591597 116,1.74402544e-18 L202,1.74402544e-18 L202,149.999995 L172.953446,150 L172.953446,28.8223861 Z" id="Path-3" fill="#0091F2" sketch:type="MSShapeGroup"></path>
            <path d="M94.278831,105.269434 C86.8530434,115.240967 79.9443748,120.320728 67.5367299,120.50887 C42.5334453,120.979225 29.8439987,105.881047 29.4680095,75.213881 C29.8439987,44.3585732 42.5334453,29.1192901 67.5367299,29.4955743 C79.9443748,29.8718585 89.8609423,34.9986544 97.2867299,44.8761158 L119,25.5446095 C112.608183,17.8307826 105.088511,11.6692206 96.4407583,7.05973861 C87.7930057,2.54432772 77.7824423,0.192586487 66.4087678,0.00444436595 C49.1132627,-0.183697755 33.9329247,5.60158567 20.8672986,17.3604682 C7.33168588,29.3074929 0.375989242,48.591771 0,75.213881 C0.375989242,101.553778 7.33168588,120.602882 20.8672986,132.361764 C33.9329247,144.120647 49.1132627,150 66.4087678,150 C77.7824423,149.811858 87.7930057,147.319012 96.4407583,142.521388 C105.088511,137.911906 112.608183,131.938483 119,124.600941 L94.278831,105.269434 Z" id="c" fill="#FF3D5E" sketch:type="MSShapeGroup"></path>
        </g>
    </g>
</svg>