<?xml version="1.0" encoding="utf-8"?>
<!-- Generator: Adobe Illustrator 15.1.0, SVG Export Plug-In . SVG Version: 6.00 Build 0)  -->
<!DOCTYPE svg PUBLIC "-//W3C//DTD SVG 1.1//EN" "http://www.w3.org/Graphics/SVG/1.1/DTD/svg11.dtd">
<svg version="1.1" id="Layer_1" xmlns="http://www.w3.org/2000/svg" xmlns:xlink="http://www.w3.org/1999/xlink" x="0px" y="0px"
	 width="800px" height="600px" viewBox="0 0 800 600" enable-background="new 0 0 800 600" xml:space="preserve">
<image overflow="visible" enable-background="new    " width="800" height="600" xlink:href="rain-bros_master-dribbblr.gif" >
</image>
<g>
	<g>
		<defs>
			<rect id="SVGID_1_" y="62.5" width="492" height="357.5"/>
		</defs>
		<clipPath id="SVGID_2_">
			<use xlink:href="#SVGID_1_"  overflow="visible"/>
		</clipPath>
		<g opacity="0.5" clip-path="url(#SVGID_2_)">
			<path fill="none" stroke="#F76310" stroke-width="10" stroke-miterlimit="10" d="M19,420c0-52.098,42.086-94.333,94-94.333
				c51.913,0,94,42.235,94,94.333"/>
			<path fill="none" stroke="#F76310" stroke-width="10" stroke-miterlimit="10" d="M-169,420c0-52.098,42.086-94.333,94-94.333
				c51.913,0,94,42.235,94,94.333"/>
			<path fill="none" stroke="#F76310" stroke-width="10" stroke-miterlimit="10" d="M395,420c0-52.098,42.086-94.333,94-94.333
				c51.913,0,94,42.235,94,94.333"/>
			<path fill="none" stroke="#F76310" stroke-width="10" stroke-miterlimit="10" d="M207,420c0-52.098,42.086-94.333,94-94.333
				c51.913,0,94,42.235,94,94.333"/>
			<path fill="none" stroke="#F76310" stroke-width="10" stroke-miterlimit="10" d="M583,420c0-52.098,42.086-94.333,94-94.333
				c51.913,0,94,42.235,94,94.333"/>
		</g>
	</g>
</g>
<g>
	<g>
		<defs>
			<rect id="SVGID_3_" y="62.5" width="618" height="357.5"/>
		</defs>
		<clipPath id="SVGID_4_">
			<use xlink:href="#SVGID_3_"  overflow="visible"/>
		</clipPath>
		<g opacity="0.5" clip-path="url(#SVGID_4_)">
			<path fill="none" stroke="#F71829" stroke-width="12" stroke-miterlimit="10" d="M114,420c0-69.588,56.412-126,126-126
				c69.587,0,126,56.412,126,126"/>
			<path fill="none" stroke="#F71829" stroke-width="12" stroke-miterlimit="10" d="M-138,420c0-69.588,56.412-126,126-126
				c69.587,0,126,56.412,126,126"/>
			<path fill="none" stroke="#F71829" stroke-width="12" stroke-miterlimit="10" d="M366,420c0-69.588,56.412-126,126-126
				s126,56.412,126,126"/>
			<path fill="none" stroke="#F71829" stroke-width="12" stroke-miterlimit="10" d="M618,420c0-69.588,56.412-126,126-126
				s126,56.412,126,126"/>
		</g>
	</g>
</g>
<g>
	<g>
		<defs>
			<rect id="SVGID_5_" y="62.5" width="429" height="357.5"/>
		</defs>
		<clipPath id="SVGID_6_">
			<use xlink:href="#SVGID_5_"  overflow="visible"/>
		</clipPath>
		<g opacity="0.5" clip-path="url(#SVGID_6_)">
			<path fill="none" stroke="#39DD49" stroke-width="8" stroke-miterlimit="10" d="M50,420c0-34.794,28.207-63,63-63
				s63,28.205,63,63"/>
			<path fill="none" stroke="#39DD49" stroke-width="8" stroke-miterlimit="10" d="M-75,420c0-34.794,28.207-63,63-63
				s63,28.205,63,63"/>
			<path fill="none" stroke="#39DD49" stroke-width="8" stroke-miterlimit="10" d="M176,420c0-34.794,28.207-63,63-63
				s63,28.205,63,63"/>
			<path fill="none" stroke="#39DD49" stroke-width="8" stroke-miterlimit="10" d="M303,420c0-34.794,28.207-63,63-63
				s63,28.205,63,63"/>
			<path fill="none" stroke="#39DD49" stroke-width="8" stroke-miterlimit="10" d="M429,420c0-34.794,28.207-63,63-63
				s63,28.205,63,63"/>
		</g>
	</g>
</g>
<g>
	<g>
		<defs>
			<rect id="SVGID_7_" y="62.5" width="366" height="357.5"/>
		</defs>
		<clipPath id="SVGID_8_">
			<use xlink:href="#SVGID_7_"  overflow="visible"/>
		</clipPath>
		<g opacity="0.5" clip-path="url(#SVGID_8_)">
			<path fill="none" stroke="#18B4E6" stroke-width="9" stroke-miterlimit="10" d="M81.667,420c0-17.396,14.103-31.5,31.5-31.5
				s31.5,14.104,31.5,31.5"/>
			<path fill="none" stroke="#18B4E6" stroke-width="9" stroke-miterlimit="10" d="M144.667,420c0-17.396,14.103-31.5,31.5-31.5
				s31.5,14.104,31.5,31.5"/>
			<path fill="none" stroke="#18B4E6" stroke-width="9" stroke-miterlimit="10" d="M-44.333,420c0-17.396,14.103-31.5,31.5-31.5
				s31.5,14.104,31.5,31.5"/>
			<path fill="none" stroke="#18B4E6" stroke-width="9" stroke-miterlimit="10" d="M18.667,420c0-17.396,14.103-31.5,31.5-31.5
				s31.5,14.104,31.5,31.5"/>
			<path fill="none" stroke="#18B4E6" stroke-width="9" stroke-miterlimit="10" d="M333.667,420c0-17.396,14.103-31.5,31.5-31.5
				s31.5,14.104,31.5,31.5"/>
			<path fill="none" stroke="#18B4E6" stroke-width="9" stroke-miterlimit="10" d="M207.667,420c0-17.396,14.103-31.5,31.5-31.5
				s31.5,14.104,31.5,31.5"/>
			<path fill="none" stroke="#18B4E6" stroke-width="9" stroke-miterlimit="10" d="M270.667,420c0-17.396,14.103-31.5,31.5-31.5
				c17.397,0,31.5,14.104,31.5,31.5"/>
		</g>
	</g>
</g>
<polygon id="red" fill="#F71829" stroke="#000000" stroke-width="4.0391" stroke-miterlimit="10" points="595.996,420 
	580.696,393.5 595.996,367 626.597,367 641.896,393.5 626.597,420 "/>
</svg>
