<?xml version="1.0" encoding="utf-8"?>
<!-- Generator: Adobe Illustrator 15.1.0, SVG Export Plug-In . SVG Version: 6.00 Build 0)  -->
<!DOCTYPE svg PUBLIC "-//W3C//DTD SVG 1.1//EN" "http://www.w3.org/Graphics/SVG/1.1/DTD/svg11.dtd">
<svg version="1.1" id="Layer_1" xmlns="http://www.w3.org/2000/svg" xmlns:xlink="http://www.w3.org/1999/xlink" x="0px" y="0px"
	 width="239.189px" height="213.699px" viewBox="0 0 239.189 213.699" enable-background="new 0 0 239.189 213.699"
	 xml:space="preserve">
<g id="Layer_2">
	
		<image overflow="visible" enable-background="new    " width="800" height="600" xlink:href="rain-bros_master-dribbblr.png"  transform="matrix(0.9999 0 0 0.9999 -487.7288 -225.4731)">
	</image>
	
		<image display="none" overflow="visible" enable-background="new    " width="801" height="601" xlink:href="F83586BC.jpg"  transform="matrix(0.9985 0 0 0.9985 -487.7883 -226.1309)">
	</image>
	
		<image display="none" overflow="visible" enable-background="new    " width="801" height="601" xlink:href="F83586BE.jpg"  transform="matrix(0.9985 0 0 0.9985 -487.7883 -225.5527)">
	</image>
	
		<image display="none" overflow="visible" enable-background="new    " width="800" height="601" xlink:href="F83586B3.jpg"  transform="matrix(0.9993 0 0 0.9993 -487.4871 -226.3701)">
	</image>
	
		<image display="none" overflow="visible" enable-background="new    " width="801" height="601" xlink:href="F83586B0.jpg"  transform="matrix(0.9985 0 0 0.9985 -487.7883 -226.1309)">
	</image>
	
		<image display="none" overflow="visible" enable-background="new    " width="800" height="601" xlink:href="F83586B1.jpg"  transform="matrix(0.9993 0 0 0.9993 -487.4871 -226.3701)">
	</image>
	
		<image display="none" overflow="visible" enable-background="new    " width="801" height="601" xlink:href="F83586B2.jpg"  transform="matrix(0.9985 0 0 0.9985 -487.7883 -226.1309)">
	</image>
	
		<image display="none" overflow="visible" enable-background="new    " width="800" height="601" xlink:href="F83586AF.jpg"  transform="matrix(0.9993 0 0 0.9993 -487.4871 -226.3701)">
	</image>
	
		<image display="none" overflow="visible" enable-background="new    " width="800" height="601" xlink:href="F83586CA.jpg"  transform="matrix(0.9993 0 0 0.9993 -487.4871 -225.792)">
	</image>
	
		<image display="none" overflow="visible" enable-background="new    " width="800" height="601" xlink:href="DFBC78D8.jpg"  transform="matrix(0.9993 0 0 0.9993 -487.4871 -225.792)">
	</image>
	
		<image display="none" overflow="visible" enable-background="new    " width="800" height="601" xlink:href="DFBC78D9.jpg"  transform="matrix(0.9993 0 0 0.9993 -487.4871 -226.3701)">
	</image>
	
		<image display="none" overflow="visible" enable-background="new    " width="800" height="601" xlink:href="DFBC78DA.jpg"  transform="matrix(0.9993 0 0 0.9993 -487.4871 -226.3701)">
	</image>
	
		<image display="none" overflow="visible" enable-background="new    " width="800" height="601" xlink:href="DFBC78DB.jpg"  transform="matrix(0.9993 0 0 0.9993 -487.4871 -226.3701)">
	</image>
	
		<image display="none" overflow="visible" enable-background="new    " width="800" height="601" xlink:href="DFBC78DF.jpg"  transform="matrix(0.9993 0 0 0.9993 -487.4871 -226.3701)">
	</image>
	
		<image display="none" overflow="visible" enable-background="new    " width="800" height="601" xlink:href="DFBC78D5.jpg"  transform="matrix(0.9993 0 0 0.9993 -487.4871 -225.792)">
	</image>
	
		<image display="none" overflow="visible" enable-background="new    " width="800" height="601" xlink:href="DFBC78D6.jpg"  transform="matrix(0.9993 0 0 0.9993 -487.4871 -225.792)">
	</image>
	
		<image display="none" overflow="visible" enable-background="new    " width="801" height="601" xlink:href="DFBC78D7.jpg"  transform="matrix(0.9985 0 0 0.9985 -487.7883 -225.5527)">
	</image>
	
		<image display="none" overflow="visible" enable-background="new    " width="801" height="601" xlink:href="DFBC78C8.jpg"  transform="matrix(0.9985 0 0 0.9985 -487.7883 -226.1309)">
	</image>
	
		<image display="none" overflow="visible" enable-background="new    " width="800" height="601" xlink:href="DFBC78CB.jpg"  transform="matrix(0.9993 0 0 0.9993 -487.4871 -225.792)">
	</image>
	
		<image display="none" overflow="visible" enable-background="new    " width="801" height="601" xlink:href="DFBC78FA.jpg"  transform="matrix(0.9985 0 0 0.9985 -487.7883 -226.1309)">
	</image>
	
		<image display="none" overflow="visible" enable-background="new    " width="801" height="601" xlink:href="DFBC78F6.jpg"  transform="matrix(0.9985 0 0 0.9985 -487.7883 -225.5527)">
	</image>
	
		<image display="none" overflow="visible" enable-background="new    " width="800" height="601" xlink:href="DFBC78F7.jpg"  transform="matrix(0.9993 0 0 0.9993 -487.4871 -226.3701)">
	</image>
	
		<image display="none" overflow="visible" enable-background="new    " width="800" height="601" xlink:href="DFBC78E8.jpg"  transform="matrix(0.9993 0 0 0.9993 -487.4871 -226.3701)">
	</image>
	
		<image display="none" overflow="visible" enable-background="new    " width="801" height="601" xlink:href="DFBC78EB.jpg"  transform="matrix(0.9985 0 0 0.9985 -487.7883 -226.1309)">
	</image>
	
		<image display="none" overflow="visible" width="800" height="600" xlink:href="46B048C6.jpg"  transform="matrix(0.9999 0 0 0.9999 -487.8391 -226.0439)">
	</image>
	
		<image display="none" overflow="visible" width="800" height="600" xlink:href="46B048C5.jpg"  transform="matrix(0.9999 0 0 0.9999 -487.8391 -226.0439)">
	</image>
	
		<image display="none" overflow="visible" width="800" height="600" xlink:href="46B048C2.jpg"  transform="matrix(0.9999 0 0 0.9999 -487.8391 -226.0439)">
	</image>
	
		<image display="none" overflow="visible" width="800" height="600" xlink:href="46B048FD.jpg"  transform="matrix(0.9999 0 0 0.9999 -487.8391 -226.0439)">
	</image>
	
		<image display="none" overflow="visible" width="800" height="600" xlink:href="46B048FF.jpg"  transform="matrix(0.9999 0 0 0.9999 -487.8391 -226.0439)">
	</image>
	
		<image display="none" overflow="visible" width="800" height="600" xlink:href="46B048E5.jpg"  transform="matrix(0.9999 0 0 0.9999 -487.8391 -226.0439)">
	</image>
	
		<image display="none" overflow="visible" width="800" height="600" xlink:href="46B048D9.jpg"  transform="matrix(0.9999 0 0 0.9999 -487.8391 -226.0439)">
	</image>
	
		<image display="none" overflow="visible" width="800" height="600" xlink:href="46B048DE.jpg"  transform="matrix(0.9999 0 0 0.9999 -487.8391 -226.0439)">
	</image>
	
		<image display="none" overflow="visible" width="800" height="600" xlink:href="46B048D8.jpg"  transform="matrix(0.9999 0 0 0.9999 -487.8391 -226.0439)">
	</image>
	
		<image display="none" overflow="visible" width="800" height="600" xlink:href="46B048D6.jpg"  transform="matrix(0.9999 0 0 0.9999 -487.8391 -226.0439)">
	</image>
	
		<image display="none" overflow="visible" width="800" height="600" xlink:href="46B048D7.jpg"  transform="matrix(0.9999 0 0 0.9999 -487.8391 -226.0439)">
	</image>
	
		<image display="none" overflow="visible" width="800" height="600" xlink:href="46B04926.jpg"  transform="matrix(0.9999 0 0 0.9999 -487.8391 -226.0439)">
	</image>
	
		<image display="none" overflow="visible" width="800" height="600" xlink:href="46B04929.jpg"  transform="matrix(0.9999 0 0 0.9999 -487.8391 -226.0439)">
	</image>
	
		<image overflow="visible" width="800" height="600" xlink:href="46B0492A.jpg"  transform="matrix(0.9999 0 0 0.9999 -487.8391 -226.0439)">
	</image>
</g>
<g id="Layer_1_2_">
	<path id="legL1_1_" display="none" fill="none" stroke="#333333" stroke-width="2" d="M-17.904,195.477
		c41.333-36.127,36-59.46,45.333-80.127"/>
	<path id="legR1_1_" display="none" fill="none" stroke="#333333" stroke-width="2" d="M27.429,113.85
		c25.415,25.25,32.665,37,40.165,77.25"/>
	<path id="legL2_1_" display="none" fill="none" stroke="#333333" stroke-width="2" d="M-21.906,195.477
		c42.25-32.377,41.687-57.056,49.335-80.127"/>
	<path id="legR2_1_" display="none" fill="none" stroke="#333333" stroke-width="2" d="M27.429,113.85
		c17.415,28.25,31.165,39.5,42.915,79"/>
	<path id="legL3_1_" display="none" fill="none" stroke="#333333" stroke-width="2" d="M-24.906,194.1
		c42.75-27.75,45.546-53.48,52.335-76.75"/>
	<path id="legR3_1_" display="none" fill="none" stroke="#333333" stroke-width="2" d="M29.429,118.1
		c18.024,31.027,22.165,39.25,42.665,74.75"/>
	<path id="legL4_1_" display="none" fill="none" stroke="#333333" stroke-width="2" d="M-24.906,194.1
		c42.75-27.75,43.068-44.52,49.857-67.789"/>
	<path id="legR4_1_" display="none" fill="none" stroke="#333333" stroke-width="2" d="M30.594,128.1
		c13.25,33.5,15.25,32.375,41.5,64.75"/>
	<path id="legL5_1_" display="none" fill="none" stroke="#333333" stroke-width="2" d="M-28.906,195.35
		c42.25-25,44.25-33.25,52.5-58"/>
	<path id="legR5_1_" display="none" fill="none" stroke="#333333" stroke-width="2" d="M27.594,135.6
		c11.5,29.25,41.5,41.75,35.5,58.5"/>
	<path id="legL6_1_" display="none" fill="none" stroke="#333333" stroke-width="2" d="M-35.906,194.35
		c30.065-8.45,47.75-16.5,58.029-42.744"/>
	<path id="legR6_1_" display="none" fill="none" stroke="#333333" stroke-width="2" d="M32.594,158.85
		c13.122,28.5,34.25,3.75,21.25,35.25"/>
	<path id="legL7_1_" display="none" fill="none" stroke="#333333" stroke-width="2" d="M-44.656,194.35c30,0,46.5,3,65.5-16.5"/>
	<path id="legR7_1_" display="none" fill="none" stroke="#333333" stroke-width="2" d="M29.844,172.978
		c34.5,40.722,31.25-28.628,15.224,20.122"/>
	<path id="legL8_1_" display="none" fill="none" stroke="#333333" stroke-width="2" d="M-34.656,186.35
		c30,0,36.263,1.735,49.49-8.916"/>
	<path id="legR8_1_" display="none" fill="none" stroke="#333333" stroke-width="2" d="M37.094,170.35
		c27.75,21.334,11.5-14.75,1.964,21.334"/>
	<path id="legL9_1_" display="none" fill="none" stroke="#333333" stroke-width="2" d="M-26.406,177.1c30,0,28.25,3,38.75-5.25"/>
	<path id="legR9_1_" display="none" fill="none" stroke="#333333" stroke-width="2" d="M38.844,163.85c10.5,15.125,0,0-7.5,30.25"/>
	<path id="legL11_1_" display="none" fill="none" stroke="#333333" stroke-width="2" d="M-16.156,169.35
		c30,0,27.536,0.544,37.792-5.166"/>
	<path id="legR11_1_" display="none" fill="none" stroke="#333333" stroke-width="2" d="M34.344,152.6c8,14.22-1.75,14.22-10,41.5"
		/>
	<path id="legL12_1_" display="none" fill="none" stroke="#333333" stroke-width="2" d="M-7.694,161.773
		c30,0,54.289-7.674,46.289-26.924"/>
	<path id="legR12_1_" display="none" fill="none" stroke="#333333" stroke-width="2" d="M31.097,139.6
		c1.891,15.283-4.503,27.22-12.753,54.5"/>
	<path id="legL13_1_" display="none" fill="none" stroke="#333333" stroke-width="2" d="M1.973,154.062
		c32.622,0,50.622-8.674,42.622-27.924"/>
	<path id="legR13_1_" display="none" fill="none" stroke="#333333" stroke-width="2" d="M28.094,130.35
		c-4.472,15.25-8.043,36.47-16.293,63.75"/>
	<path id="legL14_1_" display="none" fill="none" stroke="#333333" stroke-width="2" d="M10.204,158.273
		c32.89,1.076,50.64-19.337,30.14-38.674"/>
	<path id="legR14_1_" display="none" fill="none" stroke="#333333" stroke-width="2" d="M28.094,122.6
		c-1.126,3.839-8.691,32.453-20.5,71.5"/>
	<path id="legL15_1_" display="none" fill="none" stroke="#333333" stroke-width="2" d="M18.844,162.85
		c32.89,1.076,43-30.5,20.25-45.25"/>
	<path id="legR15_1_" display="none" fill="none" stroke="#333333" stroke-width="2" d="M25.844,117.6
		c-1.126,3.839-11.119,37.418-22.927,76.465"/>
	<path id="legL16_1_" display="none" fill="none" stroke="#333333" stroke-width="2" d="M26.094,166.85
		c33.75-4.25,35.75-37.75,12-51.25"/>
	<path id="legR16_1_" display="none" fill="none" stroke="#333333" stroke-width="2" d="M24.094,115.1
		C22.969,118.938,11.547,155.6-1,194.064"/>
	<path id="legL17_1_" display="none" fill="none" stroke="#333333" stroke-width="2" d="M28.844,168.1c30.25-4.75,32.5-42,9.25-52.5
		"/>
	<path id="legR17_1_" display="none" fill="none" stroke="#333333" stroke-width="2" d="M24.094,115.1
		C22.969,118.938,10.547,154.6-2,193.064"/>
	<path id="legL18_1_" display="none" fill="none" stroke="#333333" stroke-width="2" d="M34.094,169.6c27-5.25,27.5-47.5-2-55"/>
	<path id="legR18_1_" display="none" fill="none" stroke="#333333" stroke-width="2" d="M24.094,115.1
		C22.969,118.938,10.547,154.6-2,193.064"/>
	<path id="legL19_1_" display="none" fill="none" stroke="#333333" stroke-width="2" d="M43.594,175.35
		c20-18,16.75-55.25-14.75-59.25"/>
	<path id="legR19_1_" display="none" fill="none" stroke="#333333" stroke-width="2" d="M24.094,115.1c-1.126,3.839-11,43-28,79"/>
	<path id="legL20_1_" display="none" fill="none" stroke="#333333" stroke-width="2" d="M53.344,182.1
		c13.25-25.25,6.542-58.25-24.5-63.875"/>
	<path id="legR20_1_" display="none" fill="none" stroke="#333333" stroke-width="2" d="M23.261,118.225
		C21.838,130.457,9.928,171.017-8.072,194.1"/>
	<path id="legL21_1_" display="none" fill="none" stroke="#333333" stroke-width="2" d="M58.594,186.183
		c5.093-25-2.5-58.333-31.167-64.5"/>
	<path id="legR21_1_" display="none" fill="none" stroke="#333333" stroke-width="2" d="M25.428,119.85
		c-1.833,15.333-15.833,51.833-35.667,74.25"/>
	<path id="legL22_1_" display="none" fill="none" stroke="#333333" stroke-width="2" d="M62.928,188.35
		c0.969-25.167-10.613-49.714-30-60.333"/>
	<path id="legR22_1_" display="none" fill="none" stroke="#333333" stroke-width="2" d="M24.116,126.688
		c-1.833,15.333-16.355,50.829-39.021,67.412"/>
	<path id="legL23" display="none" fill="none" stroke="#333333" stroke-width="2" d="M70.928,194.85
		c-15.667-26.833-30.333-41.5-42.5-60.333"/>
	<path id="legR23" display="none" fill="none" stroke="#333333" stroke-width="2" d="M23.428,132.517
		c-1.833,15.333-19.167,44.75-41.833,61.333"/>
	<path id="legL24_1_" display="none" fill="none" stroke="#333333" stroke-width="2" d="M61.261,194.85
		c-4-30.167-8.333-31.667-21.833-48.667"/>
	<path id="legR24_1_" display="none" fill="none" stroke="#333333" stroke-width="2" d="M22.761,141.183
		c-7.833,27.834-24.833,42-47.667,53.667"/>
	<path id="legL25" display="none" fill="none" stroke="#333333" stroke-width="2" d="M53.761,194.85
		c0.667-43.833-3-5.833-28.333-37.5"/>
	<path id="legR25" display="none" fill="none" stroke="#333333" stroke-width="2" d="M22.761,152.85
		c-13.5,28.333-33.333,40.5-53.667,42"/>
	<path id="legL26" display="none" fill="none" stroke="#333333" stroke-width="2" d="M47.219,193.975
		c-8.125-48.75,28.25-1-15.125-21.125"/>
	<path id="legR26" display="none" fill="none" stroke="#333333" stroke-width="2" d="M22.761,176.475
		c-24.667,21-38.167,18.756-57.417,18.756"/>
	<path id="legL27" display="none" fill="none" stroke="#333333" stroke-width="2" d="M45.25,193.975
		c-7.655-42.625,21.97-10.875-7.655-21.375"/>
	<path id="legR27" display="none" fill="none" stroke="#333333" stroke-width="2" d="M13.566,182.473
		C0,192.162-11.156,193.6-31.656,192.35"/>
	<path id="legL28" display="none" fill="none" stroke="#333333" stroke-width="2" d="M39.344,193.975
		c-7.125-30.375,17-22.875-1.75-30.375"/>
	<path id="legR28" display="none" fill="none" stroke="#333333" stroke-width="2" d="M14.094,178.225
		c-11.75,9.5-18.5,7.625-39,6.375"/>
	<path id="legL29" display="none" fill="none" stroke="#333333" stroke-width="2" d="M30.719,193.975
		c-4.125-23.625,15.875-32.5,4.5-42.5"/>
	<path id="legR29" display="none" fill="none" stroke="#333333" stroke-width="2" d="M34.457,152.85
		c0,8.375-12.613,30.375-49.863,21.875"/>
	<path id="legL30" display="none" fill="none" stroke="#333333" stroke-width="2" d="M-4.656,165.1
		c44.25,7.375,52-19.25,39.113-27.375"/>
	<path id="legR30" display="none" fill="none" stroke="#333333" stroke-width="2" d="M30.344,140.35
		c0.75,9.875-5.625,29.875-9.5,53.375"/>
	<path id="legL31" display="none" fill="none" stroke="#333333" stroke-width="2" d="M5.844,153.975c44.25,7.375,52-17.75,31-27.25"
		/>
	<path id="legR31" display="none" fill="none" stroke="#333333" stroke-width="2" d="M21.469,138.1
		c0.75,9.875-4.875,32.125-8.75,55.625"/>
	<path id="legL32" display="none" fill="none" stroke="#333333" stroke-width="2" d="M12.344,156.475
		c43.25,5.25,45.5-28.625,20.875-35"/>
	<path id="legR32" display="none" fill="none" stroke="#333333" stroke-width="2" d="M22.594,127.85
		c0.039,9.625-9.625,42.375-13.5,65.875"/>
	<path id="legL33_1_" display="none" fill="none" stroke="#333333" stroke-width="2" d="M18.719,159.225
		c42.75-3.125,37.375-37,13-40.5"/>
	<path id="legR33_1_" display="none" fill="none" stroke="#333333" stroke-width="2" d="M23.344,121.475
		c0.039,9.625-13.625,48.75-17.5,72.25"/>
	<path id="legL34_1_" display="none" fill="none" stroke="#333333" stroke-width="2" d="M24.469,162.475
		c35.75-6.625,31.875-42.375,9.5-46.875"/>
	<path id="legR34_1_" display="none" fill="none" stroke="#333333" stroke-width="2" d="M23.344,116.725
		c0.037,9.146-16.417,52.792-21.25,77"/>
	<path id="legL35_1_" display="none" fill="none" stroke="#333333" stroke-width="2" d="M30.928,165.017
		c31-9.792,26.167-44.334,6.84-51.167"/>
	<path id="legR35_1_" display="none" fill="none" stroke="#333333" stroke-width="2" d="M23.344,114.517
		c-0.75,9-18.583,56.307-24.917,79.208"/>
	<path id="legL36_1_" display="none" fill="none" stroke="#333333" stroke-width="2" d="M39.928,170.683
		c18.251-11.833,19.167-44.333-4.16-57.833"/>
	<path id="legR36_1_" display="none" fill="none" stroke="#333333" stroke-width="2" d="M24.594,112.517
		c-0.75,9-16.833,60-29.833,81.208"/>
	<path id="legL37_1_" display="none" fill="none" stroke="#333333" stroke-width="2" d="M49.094,177.017
		c9.803-18.454,8.5-50.334-13.326-64.167"/>
	<path id="legR37_1_" display="none" fill="none" stroke="#333333" stroke-width="2" d="M24.594,112.517
		c-2.167,23.5-17.583,65.833-35.167,81.208"/>
	<path id="legL38_1_" display="none" fill="none" stroke="#333333" stroke-width="2" d="M58.094,182.85
		c3.129-25.685-1.833-57-25.167-70.333"/>
	<path id="legR38_1_" display="none" fill="none" stroke="#333333" stroke-width="2" d="M25.594,112.517
		c-1.167,23-15.5,64.5-40.333,81.208"/>
	<path id="legL39" fill="none" stroke="#333333" stroke-width="2" d="M67.428,190.183c-2.167-25.833-21.424-66.333-41.833-77.666"/>
	<path id="legR39" fill="none" stroke="#333333" stroke-width="2" d="M25.594,112.517c-1.167,23-16,65.333-43.5,81.166"/>
</g>
<g id="Layer_1_1_" display="none">
	<path id="legL1" display="inline" fill="none" stroke="#333333" stroke-width="2" d="M80.126,156.811
		c-20.667,28.666-8.667,37.998,22,29.332"/>
	<path id="legR1" display="inline" fill="none" stroke="#333333" stroke-width="2" d="M148.126,179.477c64-17.334,4.667-27.332,2,16
		"/>
	<path id="legL2" display="inline" fill="none" stroke="#333333" stroke-width="2" d="M66.993,195.477c46,0,42.292-11.695,46-15.402
		"/>
	<path id="legR2" display="inline" fill="none" stroke="#333333" stroke-width="2" d="M137.493,179.477
		c61.5-13.896,15.681-24.736,8,16"/>
	<path id="legL3" display="inline" fill="none" stroke="#333333" stroke-width="2" d="M74.753,195.354
		c46,0,47.031-28.656,50.739-32.363"/>
	<path id="legR3" display="inline" fill="none" stroke="#333333" stroke-width="2" d="M125.493,162.99
		c60.25,16.182,11.25-11.5,18,32.486"/>
	<path id="legL4" display="inline" fill="none" stroke="#333333" stroke-width="2" d="M81.243,195.477c46,0,52-24.556,44.25-48.986"
		/>
	<path id="legR4" display="inline" fill="none" stroke="#333333" stroke-width="2" d="M125.493,146.49
		c38.75,24.492,14.75,13.5,14.75,48.986"/>
	<path id="legL5" display="inline" fill="none" stroke="#333333" stroke-width="2" d="M103.517,186.74
		c53.726-3.75,30.745-34.627,18.976-53.5"/>
	<path id="legR5" display="inline" fill="none" stroke="#333333" stroke-width="2" d="M125.493,133.24
		c12.932,16.25,18.5,26.75,4,62.236"/>
	<path id="legL6" display="inline" fill="none" stroke="#333333" stroke-width="2" d="M116.493,195.477
		c21.592-34.486,17.096-50.688,9-74.736"/>
	<path id="legR6" display="inline" fill="none" stroke="#333333" stroke-width="2" d="M125.493,120.74c46,17.25,17.25,48.5-9,48.5"
		/>
	<path id="legL7" display="inline" fill="none" stroke="#333333" stroke-width="2" d="M106.993,195.477
		c29.5-36.236,26.149-55.986,15.75-81.986"/>
	<path id="legR7" display="inline" fill="none" stroke="#333333" stroke-width="2" d="M122.743,113.49
		c52.25,8,21.25,54.75,6.461,54.75"/>
	<path id="legL8" display="inline" fill="none" stroke="#333333" stroke-width="2" d="M94.493,195.477
		c34.711-27.236,38.649-62.627,28.25-88.626"/>
	<path id="legR8" display="inline" fill="none" stroke="#333333" stroke-width="2" d="M122.743,106.849
		c63.25,5.391,28,61.391,16.929,61.391"/>
	<path id="legL9" display="inline" fill="none" stroke="#333333" stroke-width="2" d="M85.993,195.477
		c22.75-30.486,38.75-60.386,38.75-88.626"/>
	<path id="legR9" display="inline" fill="none" stroke="#333333" stroke-width="2" d="M122.743,106.849
		c49.25,0,41.665,42.391,26.587,56.412"/>
	<path id="legL10" display="inline" fill="none" stroke="#333333" stroke-width="2" d="M76.993,195.477
		c22.75-30.486,36-68.486,47.75-94.736"/>
	<path id="legR10" display="inline" fill="none" stroke="#333333" stroke-width="2" d="M124.743,103.739
		c44.75,0,41.747,36.358,33.055,54.055"/>
	<path id="legL11" display="inline" fill="none" stroke="#333333" stroke-width="2" d="M69.243,177.99c32-23,55.5-55.75,55.5-77.25"
		/>
	<path id="legR11" display="inline" fill="none" stroke="#333333" stroke-width="2" d="M124.743,100.739
		c48.25,0,41.93,28.483,41.93,50.18"/>
	<path id="legL12" display="inline" fill="none" stroke="#333333" stroke-width="2" d="M68.243,158.74c39-4.5,56.5-36.5,56.5-58"/>
	<path id="legR12" display="inline" fill="none" stroke="#333333" stroke-width="2" d="M124.743,100.739
		c48.25,0,50.108,24.09,54.25,48.18"/>
	<path id="legL13" display="inline" fill="none" stroke="#333333" stroke-width="2" d="M69.243,146.24c32,9,55.5-24,55.5-45.5"/>
	<path id="legR13" display="inline" fill="none" stroke="#333333" stroke-width="2" d="M124.743,100.739c60,0,46.5,13.75,67.25,44"
		/>
	<path id="legL14" display="inline" fill="none" stroke="#333333" stroke-width="2" d="M69.243,143.24c33.75,11.5,59-20.5,55.5-42.5
		"/>
	<path id="legR14" display="inline" fill="none" stroke="#333333" stroke-width="2" d="M124.743,99.739
		c31.5,31.5,63.25,7.11,72.25,45"/>
	<path id="legL15" display="inline" fill="none" stroke="#333333" stroke-width="2" d="M69.243,138.85
		c30.853,19.25,59-16.109,55.5-38.11"/>
	<path id="legR15" display="inline" fill="none" stroke="#333333" stroke-width="2" d="M124.743,99.739
		c21.603,37.11,25.853,49.86,65.352,49.86"/>
	<path id="legL16" display="inline" fill="none" stroke="#333333" stroke-width="2" d="M71.094,135.419
		c29.5,23.681,58.5-9.819,53.648-34.68"/>
	<path id="legR16" display="inline" fill="none" stroke="#333333" stroke-width="2" d="M124.743,99.739
		c14.603,36.86,38.852,53.36,65.352,71.36"/>
	<path id="legL17" display="inline" fill="none" stroke="#333333" stroke-width="2" d="M72.594,133.35
		c27.034,23.625,52.375,4.75,54.067-27.5"/>
	<path id="legR17" display="inline" fill="none" stroke="#333333" stroke-width="2" d="M126.664,106.849
		c4.632,12.079,41.931,58.5,63.431,84"/>
	<path id="legL18" display="inline" fill="none" stroke="#333333" stroke-width="2" d="M72.594,128.695
		c17,33.654,52.908,14.154,52.91-16.596"/>
	<path id="legR18" display="inline" fill="none" stroke="#333333" stroke-width="2" d="M125.505,112.1
		c11.841,11.5,46.84,46.75,57.84,80"/>
	<path id="legL19" display="inline" fill="none" stroke="#333333" stroke-width="2" d="M72.594,124.85
		c14,37.25,51.908,24,51.91-6.75"/>
	<path id="legR19" display="inline" fill="none" stroke="#333333" stroke-width="2" d="M133.094,117.1
		c11.841,11.5,39.5,34.25,42.5,75"/>
	<path id="legL20" display="inline" fill="none" stroke="#333333" stroke-width="2" d="M74.344,127.6c0,35.5,46.75,34.75,49.16-1.5"
		/>
	<path id="legR20" display="inline" fill="none" stroke="#333333" stroke-width="2" d="M133.094,124.35c12.951,9.631,38,16,38,69.75
		"/>
	<path id="legL21" display="inline" fill="none" stroke="#333333" stroke-width="2" d="M75.344,133.6
		c-2.5,36.5,44.75,36.75,47.16,0.5"/>
	<path id="legR21" display="inline" fill="none" stroke="#333333" stroke-width="2" d="M130.344,135.1c64,29.5,18.875,20.5,37.75,59
		"/>
	<path id="legL22" display="inline" fill="none" stroke="#333333" stroke-width="2" d="M75.259,137.373
		c-9.915,37.477,42.676,45.242,45.085,8.992"/>
	<path id="legR22" display="inline" fill="none" stroke="#333333" stroke-width="2" d="M124.844,147.365
		c78.5,15.734,16.375,8.234,35.25,46.734"/>
	<path id="legL23_1_" display="inline" fill="none" stroke="#333333" stroke-width="2" d="M78.094,142.6
		c-12.75,31.5,19.75,45.25,35,19.5"/>
	<path id="legR23_1_" display="inline" fill="none" stroke="#333333" stroke-width="2" d="M141.844,159.6
		c52,6,10.25-5.979,14.069,34.5"/>
	<path id="legL24" display="inline" fill="none" stroke="#333333" stroke-width="2" d="M78.094,151.35
		c-11.25,21-1.25,41.25,27.5,24.217"/>
	<path id="legR24" display="inline" fill="none" stroke="#333333" stroke-width="2" d="M147.094,168.35
		c59.25-6.144,2.5-14.5,7,25.75"/>
</g>
</svg>
