<?xml version="1.0" encoding="UTF-8"?>
<!DOCTYPE svg PUBLIC "-//W3C//DTD SVG 1.1//EN" "http://www.w3.org/Graphics/SVG/1.1/DTD/svg11.dtd">
<!-- Creator: CorelDRAW X5 -->
<svg xmlns="http://www.w3.org/2000/svg" xml:space="preserve" width="110mm" height="72.6626mm" style="shape-rendering:geometricPrecision; text-rendering:geometricPrecision; image-rendering:optimizeQuality; fill-rule:evenodd; clip-rule:evenodd"
viewBox="0 0 11000 7266"
 xmlns:xlink="http://www.w3.org/1999/xlink">
 <defs>
  <style type="text/css">
   <![CDATA[
    .str0 {stroke:#0C5DC5;stroke-width:35.28}
    .fil4 {fill:none;fill-rule:nonzero}
    .fil17 {fill:#00A7E6}
    .fil13 {fill:#FEFEFE}
    .fil0 {fill:#323C8D;fill-rule:nonzero}
    .fil15 {fill:#44518F;fill-rule:nonzero}
    .fil12 {fill:#962983;fill-rule:nonzero}
    .fil3 {fill:#D9DADA;fill-rule:nonzero}
    .fil1 {fill:#FFDD09;fill-rule:nonzero}
    .fil16 {fill:#00A7E6;fill-rule:nonzero}
    .fil14 {fill:#DA2B7B;fill-rule:nonzero}
    .fil8 {fill:black;fill-rule:nonzero}
    .fil7 {fill:white;fill-rule:nonzero}
    .fil11 {fill:#009846;fill-rule:nonzero}
    .fil9 {fill:#00A0E3;fill-rule:nonzero}
    .fil2 {fill:#E31E24;fill-rule:nonzero}
    .fil10 {fill:#EA5E20;fill-rule:nonzero}
    .fil6 {fill:#0C5DC5;fill-rule:nonzero}
    .fil5 {fill:url(#id1)}
   ]]>
  </style>
  <clipPath id="id0" style="clip-rule:nonzero">
   <rect x="7197" y="-21747" width="8517" height="2489"/>
  </clipPath>
  <linearGradient id="id1" gradientUnits="userSpaceOnUse" x1="16000" y1="-15244.5" x2="16000" y2="3933.13">
   <stop offset="0" style="stop-color:white"/>
   <stop offset="1" style="stop-color:#3F4E5A"/>
  </linearGradient>
 </defs>
<symbol id="Fm5-22-0" viewBox="15642 -5845 5605 1680">
 <path class="fil0" d="M16125 -4964c-194,-191 -483,-233 -483,-233 0,0 998,-802 3186,-620 1541,128 2415,795 2415,795 0,0 27,364 -70,468 -131,140 -307,304 -307,304 0,0 -1091,317 -2071,-271 -1157,-694 -2528,-261 -2528,-261 0,0 -47,-88 -142,-182z"/>
</symbol>
<symbol id="Fm1-18-0" viewBox="11066 -9233 10020 2800">
 <path class="fil1" d="M11066 -9233c0,0 910,658 3612,467 4117,-291 6121,1446 6121,1446 0,0 166,288 201,392 40,119 86,496 86,496 0,0 -1176,-1460 -4772,-1541 -4352,-98 -5248,-1259 -5248,-1259z"/>
</symbol>
<symbol id="Symbol7" viewBox="14812 -10567 5833 2944">
 <path class="fil2" d="M14812 -10567c0,0 658,793 2264,625 1431,-149 2877,975 3097,1507 101,244 472,812 472,812 0,0 -770,-1352 -3289,-1595 -1595,-154 -2545,-1348 -2545,-1348z"/>
</symbol>
<symbol id="Fm7-24-0" viewBox="28795 1070 4668 1142">
 <path class="fil3" d="M28795 2123c0,0 477,-377 1635,-74 1229,321 1961,127 2381,-208 424,-337 652,-771 652,-771 0,0 -539,744 -2619,540 -1345,-131 -2048,513 -2048,513z"/>
</symbol>
<symbol id="Fm3-20-0" viewBox="14812 -10567 5833 2944">
 <path class="fil2" d="M14812 -10567c0,0 658,793 2264,625 1431,-149 2877,975 3097,1507 101,244 472,812 472,812 0,0 -770,-1352 -3289,-1595 -1595,-154 -2545,-1348 -2545,-1348z"/>
</symbol>
<symbol id="Symbol5" viewBox="15642 -5845 5605 1680">
 <path class="fil0" d="M16125 -4964c-194,-191 -483,-233 -483,-233 0,0 998,-802 3186,-620 1541,128 2415,795 2415,795 0,0 27,364 -70,468 -131,140 -307,304 -307,304 0,0 -1091,317 -2071,-271 -1157,-694 -2528,-261 -2528,-261 0,0 -47,-88 -142,-182z"/>
</symbol>
<symbol id="Symbol13" viewBox="15642 -5845 5605 1680">
 <path class="fil0" d="M16125 -4964c-194,-191 -483,-233 -483,-233 0,0 998,-802 3186,-620 1541,128 2415,795 2415,795 0,0 27,364 -70,468 -131,140 -307,304 -307,304 0,0 -1091,317 -2071,-271 -1157,-694 -2528,-261 -2528,-261 0,0 -47,-88 -142,-182z"/>
</symbol>
<symbol id="Fm0-111-0" viewBox="6767 -24335 18067 26953">
 <line class="fil4 str0" x1="6767" y1="-24317" x2="24833" y2= "-24317" />
 <line class="fil4 str0" x1="6767" y1="2601" x2="24833" y2= "2601" />
</symbol>
<symbol id="Symbol11" viewBox="28795 1070 4668 1142">
 <path class="fil3" d="M28795 2123c0,0 477,-377 1635,-74 1229,321 1961,127 2381,-208 424,-337 652,-771 652,-771 0,0 -539,744 -2619,540 -1345,-131 -2048,513 -2048,513z"/>
</symbol>
<symbol id="Symbol9" viewBox="11066 -9233 10020 2800">
 <path class="fil1" d="M11066 -9233c0,0 910,658 3612,467 4117,-291 6121,1446 6121,1446 0,0 166,288 201,392 40,119 86,496 86,496 0,0 -1176,-1460 -4772,-1541 -4352,-98 -5248,-1259 -5248,-1259z"/>
</symbol>
<symbol id="Fm0-248-0" viewBox="5200 -15245 21600 19178">
 <polygon class="fil5" points="26800,-15245 5200,-15245 5200,3933 26800,3933 "/>
</symbol>
<symbol id="Symbol1" viewBox="18910 -24913 3316 556">
 <path class="fil6" d="M20032 -24689l-95 0 0 -55 -118 0 0 203 212 0 0 -147zm-95 118l-23 0 0 -91 23 0 0 91z"/>
 <polygon class="fil6" points="21707,-24744 21806,-24744 21806,-24542 21707,-24542 "/>
 <polygon class="fil6" points="20368,-24689 20368,-24572 20345,-24572 20345,-24689 20261,-24689 20261,-24542 20368,-24542 20368,-24506 20261,-24506 20261,-24473 20453,-24473 20453,-24487 20453,-24506 20453,-24689 "/>
 <path class="fil6" d="M20052 -24689l0 27 108 0 0 26 -108 0 0 95 189 0 0 -148 -189 0zm108 118l-26 0 0 -39 26 0 0 39z"/>
 <path class="fil6" d="M20677 -24689l0 27 108 0 0 26 -108 0 0 95 189 0 0 -148 -189 0zm108 118l-26 0 0 -39 26 0 0 39z"/>
 <path class="fil6" d="M21291 -24689l0 27 108 0 0 26 -108 0 0 95 189 0 0 -148 -189 0zm108 118l-26 0 0 -39 26 0 0 39z"/>
 <path class="fil6" d="M21269 -24689l-33 0 0 -55 -26 0c0,0 -21,53 -71,55l-17 0 0 27 19 0 0 26 0 67c0,0 0,28 29,28l98 0 0 -29 -23 0c0,0 -10,1 -10,-8l0 -83 33 0 0 -26z"/>
 <path class="fil6" d="M21830 -24689l0 27 108 0 0 26 -108 0 0 95 189 0 0 -148 -189 0zm108 118l-26 0 0 -39 26 0 0 39z"/>
 <polygon class="fil6" points="20473,-24689 20655,-24689 20655,-24620 20577,-24620 20577,-24663 20551,-24663 20551,-24542 20473,-24542 "/>
 <polygon class="fil6" points="21504,-24689 21504,-24542 21582,-24542 21582,-24663 21609,-24663 21609,-24621 21687,-24621 21687,-24689 "/>
 <polygon class="fil6" points="22043,-24689 22226,-24689 22226,-24621 22148,-24621 22148,-24663 22122,-24663 22122,-24542 22043,-24542 "/>
 <polygon class="fil6" points="21060,-24621 21060,-24628 21119,-24689 21048,-24689 20978,-24621 20978,-24744 20890,-24744 20890,-24542 20978,-24542 20978,-24593 20987,-24599 21028,-24542 21122,-24542 "/>
 <path class="fil7" d="M19504 -24850c5,5 9,11 13,16 -4,-6 -8,-11 -13,-16z"/>
 <path class="fil7" d="M19550 -24648c0,0 56,51 119,80 0,0 -32,7 -69,12 21,-3 45,-7 69,-12 46,-10 85,-12 85,-12 -54,-27 -112,-82 -112,-82 0,0 -39,12 -90,14l-3 0z"/>
 <path class="fil7" d="M19240 -24872c-15,-4 -29,-8 -42,-14 18,8 36,13 50,16 -3,-1 -6,-1 -9,-2z"/>
 <path class="fil7" d="M19176 -24897c-4,-3 -8,-5 -12,-8 6,4 11,7 17,11 -1,-1 -3,-2 -4,-3z"/>
 <path class="fil7" d="M19218 -24805c0,0 52,60 67,72 0,0 51,19 98,14l-57 -73 104 0 -67 -73c-9,3 -44,5 -44,5 -20,0 -27,-5 -37,-6 1,22 40,74 40,74 -36,0 -104,-13 -104,-13z"/>
 <path class="fil7" d="M19260 -24653c0,0 70,-7 90,-9 0,0 -57,-56 -64,-71l-84 11c0,0 -59,-72 -61,-75l-77 64 52 64c8,-6 49,-38 83,-52 0,0 7,2 57,69 0,0 -46,63 -53,92l35 44c0,0 -2,-47 79,-63 0,0 1,0 1,0 0,0 -1,0 -1,0l-56 -75z"/>
 <path class="fil7" d="M19456 -24563c7,3 14,6 21,9 -1,0 -2,-1 -3,-1 -4,-2 -10,-4 -19,-7z"/>
 <path class="fil7" d="M19140 -24797c0,0 67,-6 78,-8 -47,-66 -60,-101 -62,-106 0,0 0,0 0,0 -11,-8 -78,15 -93,21 0,0 0,0 0,0 0,0 61,73 77,94z"/>
 <path class="fil7" d="M19535 -24550c0,0 -65,-50 -94,-88 0,0 75,6 109,-10 0,0 -43,-48 -49,-59 0,0 57,-11 75,-31 -12,-17 -31,-39 -37,-54 -1,-2 -2,-4 -3,-6 2,4 3,6 3,6l-108 1c0,0 59,75 67,80 0,0 -30,19 -114,-7 0,0 30,53 54,75 0,0 -38,2 -87,-18 0,0 81,85 124,106 2,1 3,1 4,2 20,7 39,11 58,4 6,0 13,0 22,-1 -8,1 -16,1 -23,1z"/>
 <path class="fil8" d="M19063 -24891c0,0 0,0 0,0 -27,1 -86,50 -86,50l86 107 0 0 77 -64c-16,-21 -77,-94 -77,-94z"/>
 <path class="fil8" d="M19198 -24720c-34,13 -76,46 -83,52 -1,1 -1,1 -1,1l88 113c0,-1 0,-3 1,-4 7,-30 55,-93 55,-93 -50,-67 -60,-68 -60,-68z"/>
 <path class="fil8" d="M19324 -24791c0,0 -42,-53 -43,-74 0,0 0,0 0,0 0,0 -14,-1 -33,-5 -15,-3 -32,-8 -50,-16 -6,-3 -12,-5 -17,-9 -6,-3 -11,-7 -17,-11 -3,-2 -5,-4 -8,-6 0,0 0,0 0,1 2,5 15,40 62,106 0,0 70,13 106,13z"/>
 <path class="fil8" d="M19218 -24805c-10,2 -78,8 -78,8 2,3 58,76 58,76l87 -12c-16,-12 -67,-72 -67,-72z"/>
 <path class="fil8" d="M19350 -24660c-20,2 -91,8 -91,8l56 75c0,0 1,0 1,0 54,-11 108,4 138,15 8,3 16,5 20,7 -43,-22 -124,-105 -124,-105z"/>
 <path class="fil8" d="M19286 -24733c7,15 64,71 64,71 50,19 87,18 87,18 -24,-22 -54,-75 -54,-75 -47,5 -98,-14 -98,-14z"/>
 <path class="fil8" d="M19669 -24568c-64,-29 -119,-80 -119,-80 -34,16 -111,4 -111,4 29,39 97,93 97,93 7,0 15,0 23,-1 14,-1 29,-3 43,-5 36,-5 68,-12 68,-12z"/>
 <path class="fil8" d="M19500 -24710c6,11 50,62 50,62l3 0c51,-2 90,-14 90,-14 -31,-23 -66,-76 -66,-76 0,0 0,0 0,0 -19,20 -77,28 -77,28z"/>
 <path class="fil8" d="M19383 -24719c84,26 114,7 114,7 -7,-5 -67,-80 -67,-80l-104 0 57 73z"/>
 <path class="fil8" d="M19539 -24792c0,0 -1,-2 -3,-6 -3,-8 -10,-22 -20,-36 -4,-5 -8,-11 -13,-16 -11,-11 -24,-21 -39,-24 -49,-11 -102,10 -102,10l0 0 67 73 108 -1z"/>
 <path class="fil8" d="M19364 -24357l-412 -518c2,-3 3,-7 3,-11 0,-12 -10,-23 -23,-23 -12,0 -23,10 -23,23 0,12 10,23 23,23 1,0 3,0 4,0l403 507 24 0z"/>
</symbol>
<symbol id="Fm0-36-0" viewBox="7197 -21747 8517 2489">
 <g style="clip-path:url(#id0)">
  <image transform="matrix(1 0 0 1 1696.73 -22891.4)" x="5500" y="1143" width="8520" height="2490" xlink:href="SBT_logo_Images\SBT_logo_ImgID1.png"/>
 </g>
</symbol>
<symbol id="Symbol4" viewBox="15362 -6967 5914 2650">
 <path class="fil9" d="M15530 -6021c14,-217 -63,-399 -63,-399 0,0 1085,-728 2848,-504 1768,224 2956,1274 2956,1274 0,0 -1,355 4,497 16,506 -184,837 -184,837 0,0 -233,-439 -774,-802 -414,-279 -1278,-681 -1838,-835 -1910,-525 -3116,574 -3116,574 0,0 143,-249 168,-641z"/>
</symbol>
<symbol id="Symbol17" viewBox="11066 -9233 10020 2800">
 <path class="fil1" d="M11066 -9233c0,0 910,658 3612,467 4117,-291 6121,1446 6121,1446 0,0 166,288 201,392 40,119 86,496 86,496 0,0 -1176,-1460 -4772,-1541 -4352,-98 -5248,-1259 -5248,-1259z"/>
</symbol>
<symbol id="Fm0-17-0" viewBox="11778 -10754 9116 3746">
 <path class="fil10" d="M11780 -10754c0,0 216,770 2750,849 3142,98 4950,649 5901,1944 247,337 464,953 464,953 0,0 -2019,-1889 -5392,-1945 -3930,-65 -3723,-1801 -3723,-1801z"/>
</symbol>
<symbol id="Symbol15" viewBox="14812 -10567 5833 2944">
 <path class="fil2" d="M14812 -10567c0,0 658,793 2264,625 1431,-149 2877,975 3097,1507 101,244 472,812 472,812 0,0 -770,-1352 -3289,-1595 -1595,-154 -2545,-1348 -2545,-1348z"/>
</symbol>
<symbol id="Fm6-23-0" viewBox="15362 -6967 5914 2650">
 <path class="fil9" d="M15530 -6021c14,-217 -63,-399 -63,-399 0,0 1085,-728 2848,-504 1768,224 2956,1274 2956,1274 0,0 -1,355 4,497 16,506 -184,837 -184,837 0,0 -233,-439 -774,-802 -414,-279 -1278,-681 -1838,-835 -1910,-525 -3116,574 -3116,574 0,0 143,-249 168,-641z"/>
</symbol>
<symbol id="Fm2-19-0" viewBox="12694 -8324 8574 2786">
 <path class="fil11" d="M14537 -7330c-850,-457 -1843,-588 -1843,-588 0,0 1792,-610 3900,-336 2370,308 4478,1549 4478,1549l196 1166c0,0 -909,-683 -2022,-1092 -2379,-872 -4037,-220 -4037,-220 0,0 -203,-227 -672,-479z"/>
</symbol>
<symbol id="Symbol6" viewBox="16296 -6224 4935 2718">
 <path class="fil12" d="M16296 -6224c0,0 356,2527 2383,2711 356,32 714,-56 1174,-207 275,-90 596,-209 947,-452 485,-336 430,-637 430,-637 0,0 -698,245 -2285,348 -1691,110 -2648,-1763 -2648,-1763z"/>
</symbol>
<symbol id="Symbol14" viewBox="16296 -6224 4935 2718">
 <path class="fil12" d="M16296 -6224c0,0 356,2527 2383,2711 356,32 714,-56 1174,-207 275,-90 596,-209 947,-452 485,-336 430,-637 430,-637 0,0 -698,245 -2285,348 -1691,110 -2648,-1763 -2648,-1763z"/>
</symbol>
<symbol id="Symbol2" viewBox="6767 -24335 18067 26953">
 <line class="fil4 str0" x1="6767" y1="-24317" x2="24833" y2= "-24317" />
 <line class="fil4 str0" x1="6767" y1="2601" x2="24833" y2= "2601" />
</symbol>
<symbol id="Fm4-21-0" viewBox="16296 -6224 4935 2718">
 <path class="fil12" d="M16296 -6224c0,0 356,2527 2383,2711 356,32 714,-56 1174,-207 275,-90 596,-209 947,-452 485,-336 430,-637 430,-637 0,0 -698,245 -2285,348 -1691,110 -2648,-1763 -2648,-1763z"/>
</symbol>
<symbol id="Symbol12" viewBox="15362 -6967 5914 2650">
 <path class="fil9" d="M15530 -6021c14,-217 -63,-399 -63,-399 0,0 1085,-728 2848,-504 1768,224 2956,1274 2956,1274 0,0 -1,355 4,497 16,506 -184,837 -184,837 0,0 -233,-439 -774,-802 -414,-279 -1278,-681 -1838,-835 -1910,-525 -3116,574 -3116,574 0,0 143,-249 168,-641z"/>
</symbol>
<symbol id="Symbol10" viewBox="11778 -10754 9116 3746">
 <path class="fil10" d="M11780 -10754c0,0 216,770 2750,849 3142,98 4950,649 5901,1944 247,337 464,953 464,953 0,0 -2019,-1889 -5392,-1945 -3930,-65 -3723,-1801 -3723,-1801z"/>
</symbol>
<symbol id="Symbol8" viewBox="12694 -8324 8574 2786">
 <path class="fil11" d="M14537 -7330c-850,-457 -1843,-588 -1843,-588 0,0 1792,-610 3900,-336 2370,308 4478,1549 4478,1549l196 1166c0,0 -909,-683 -2022,-1092 -2379,-872 -4037,-220 -4037,-220 0,0 -203,-227 -672,-479z"/>
</symbol>
<symbol id="Symbol18" viewBox="11778 -10754 9116 3746">
 <path class="fil10" d="M11780 -10754c0,0 216,770 2750,849 3142,98 4950,649 5901,1944 247,337 464,953 464,953 0,0 -2019,-1889 -5392,-1945 -3930,-65 -3723,-1801 -3723,-1801z"/>
</symbol>
<symbol id="Fm1-110-0" viewBox="18910 -24913 3316 556">
 <path class="fil6" d="M20032 -24689l-95 0 0 -55 -118 0 0 203 212 0 0 -147zm-95 118l-23 0 0 -91 23 0 0 91z"/>
 <polygon class="fil6" points="21707,-24744 21806,-24744 21806,-24542 21707,-24542 "/>
 <polygon class="fil6" points="20368,-24689 20368,-24572 20345,-24572 20345,-24689 20261,-24689 20261,-24542 20368,-24542 20368,-24506 20261,-24506 20261,-24473 20453,-24473 20453,-24487 20453,-24506 20453,-24689 "/>
 <path class="fil6" d="M20052 -24689l0 27 108 0 0 26 -108 0 0 95 189 0 0 -148 -189 0zm108 118l-26 0 0 -39 26 0 0 39z"/>
 <path class="fil6" d="M20677 -24689l0 27 108 0 0 26 -108 0 0 95 189 0 0 -148 -189 0zm108 118l-26 0 0 -39 26 0 0 39z"/>
 <path class="fil6" d="M21291 -24689l0 27 108 0 0 26 -108 0 0 95 189 0 0 -148 -189 0zm108 118l-26 0 0 -39 26 0 0 39z"/>
 <path class="fil6" d="M21269 -24689l-33 0 0 -55 -26 0c0,0 -21,53 -71,55l-17 0 0 27 19 0 0 26 0 67c0,0 0,28 29,28l98 0 0 -29 -23 0c0,0 -10,1 -10,-8l0 -83 33 0 0 -26z"/>
 <path class="fil6" d="M21830 -24689l0 27 108 0 0 26 -108 0 0 95 189 0 0 -148 -189 0zm108 118l-26 0 0 -39 26 0 0 39z"/>
 <polygon class="fil6" points="20473,-24689 20655,-24689 20655,-24620 20577,-24620 20577,-24663 20551,-24663 20551,-24542 20473,-24542 "/>
 <polygon class="fil6" points="21504,-24689 21504,-24542 21582,-24542 21582,-24663 21609,-24663 21609,-24621 21687,-24621 21687,-24689 "/>
 <polygon class="fil6" points="22043,-24689 22226,-24689 22226,-24621 22148,-24621 22148,-24663 22122,-24663 22122,-24542 22043,-24542 "/>
 <polygon class="fil6" points="21060,-24621 21060,-24628 21119,-24689 21048,-24689 20978,-24621 20978,-24744 20890,-24744 20890,-24542 20978,-24542 20978,-24593 20987,-24599 21028,-24542 21122,-24542 "/>
 <path class="fil7" d="M19504 -24850c5,5 9,11 13,16 -4,-6 -8,-11 -13,-16z"/>
 <path class="fil7" d="M19550 -24648c0,0 56,51 119,80 0,0 -32,7 -69,12 21,-3 45,-7 69,-12 46,-10 85,-12 85,-12 -54,-27 -112,-82 -112,-82 0,0 -39,12 -90,14l-3 0z"/>
 <path class="fil7" d="M19240 -24872c-15,-4 -29,-8 -42,-14 18,8 36,13 50,16 -3,-1 -6,-1 -9,-2z"/>
 <path class="fil7" d="M19176 -24897c-4,-3 -8,-5 -12,-8 6,4 11,7 17,11 -1,-1 -3,-2 -4,-3z"/>
 <path class="fil7" d="M19218 -24805c0,0 52,60 67,72 0,0 51,19 98,14l-57 -73 104 0 -67 -73c-9,3 -44,5 -44,5 -20,0 -27,-5 -37,-6 1,22 40,74 40,74 -36,0 -104,-13 -104,-13z"/>
 <path class="fil7" d="M19260 -24653c0,0 70,-7 90,-9 0,0 -57,-56 -64,-71l-84 11c0,0 -59,-72 -61,-75l-77 64 52 64c8,-6 49,-38 83,-52 0,0 7,2 57,69 0,0 -46,63 -53,92l35 44c0,0 -2,-47 79,-63 0,0 1,0 1,0 0,0 -1,0 -1,0l-56 -75z"/>
 <path class="fil7" d="M19456 -24563c7,3 14,6 21,9 -1,0 -2,-1 -3,-1 -4,-2 -10,-4 -19,-7z"/>
 <path class="fil7" d="M19140 -24797c0,0 67,-6 78,-8 -47,-66 -60,-101 -62,-106 0,0 0,0 0,0 -11,-8 -78,15 -93,21 0,0 0,0 0,0 0,0 61,73 77,94z"/>
 <path class="fil7" d="M19535 -24550c0,0 -65,-50 -94,-88 0,0 75,6 109,-10 0,0 -43,-48 -49,-59 0,0 57,-11 75,-31 -12,-17 -31,-39 -37,-54 -1,-2 -2,-4 -3,-6 2,4 3,6 3,6l-108 1c0,0 59,75 67,80 0,0 -30,19 -114,-7 0,0 30,53 54,75 0,0 -38,2 -87,-18 0,0 81,85 124,106 2,1 3,1 4,2 20,7 39,11 58,4 6,0 13,0 22,-1 -8,1 -16,1 -23,1z"/>
 <path class="fil8" d="M19063 -24891c0,0 0,0 0,0 -27,1 -86,50 -86,50l86 107 0 0 77 -64c-16,-21 -77,-94 -77,-94z"/>
 <path class="fil8" d="M19198 -24720c-34,13 -76,46 -83,52 -1,1 -1,1 -1,1l88 113c0,-1 0,-3 1,-4 7,-30 55,-93 55,-93 -50,-67 -60,-68 -60,-68z"/>
 <path class="fil8" d="M19324 -24791c0,0 -42,-53 -43,-74 0,0 0,0 0,0 0,0 -14,-1 -33,-5 -15,-3 -32,-8 -50,-16 -6,-3 -12,-5 -17,-9 -6,-3 -11,-7 -17,-11 -3,-2 -5,-4 -8,-6 0,0 0,0 0,1 2,5 15,40 62,106 0,0 70,13 106,13z"/>
 <path class="fil8" d="M19218 -24805c-10,2 -78,8 -78,8 2,3 58,76 58,76l87 -12c-16,-12 -67,-72 -67,-72z"/>
 <path class="fil8" d="M19350 -24660c-20,2 -91,8 -91,8l56 75c0,0 1,0 1,0 54,-11 108,4 138,15 8,3 16,5 20,7 -43,-22 -124,-105 -124,-105z"/>
 <path class="fil8" d="M19286 -24733c7,15 64,71 64,71 50,19 87,18 87,18 -24,-22 -54,-75 -54,-75 -47,5 -98,-14 -98,-14z"/>
 <path class="fil8" d="M19669 -24568c-64,-29 -119,-80 -119,-80 -34,16 -111,4 -111,4 29,39 97,93 97,93 7,0 15,0 23,-1 14,-1 29,-3 43,-5 36,-5 68,-12 68,-12z"/>
 <path class="fil8" d="M19500 -24710c6,11 50,62 50,62l3 0c51,-2 90,-14 90,-14 -31,-23 -66,-76 -66,-76 0,0 0,0 0,0 -19,20 -77,28 -77,28z"/>
 <path class="fil8" d="M19383 -24719c84,26 114,7 114,7 -7,-5 -67,-80 -67,-80l-104 0 57 73z"/>
 <path class="fil8" d="M19539 -24792c0,0 -1,-2 -3,-6 -3,-8 -10,-22 -20,-36 -4,-5 -8,-11 -13,-16 -11,-11 -24,-21 -39,-24 -49,-11 -102,10 -102,10l0 0 67 73 108 -1z"/>
 <path class="fil8" d="M19364 -24357l-412 -518c2,-3 3,-7 3,-11 0,-12 -10,-23 -23,-23 -12,0 -23,10 -23,23 0,12 10,23 23,23 1,0 3,0 4,0l403 507 24 0z"/>
</symbol>
<symbol id="Symbol3" viewBox="28795 1070 4668 1142">
 <path class="fil3" d="M28795 2123c0,0 477,-377 1635,-74 1229,321 1961,127 2381,-208 424,-337 652,-771 652,-771 0,0 -539,744 -2619,540 -1345,-131 -2048,513 -2048,513z"/>
</symbol>
<symbol id="Symbol16" viewBox="12694 -8324 8574 2786">
 <path class="fil11" d="M14537 -7330c-850,-457 -1843,-588 -1843,-588 0,0 1792,-610 3900,-336 2370,308 4478,1549 4478,1549l196 1166c0,0 -909,-683 -2022,-1092 -2379,-872 -4037,-220 -4037,-220 0,0 -203,-227 -672,-479z"/>
</symbol>
 <g id="Layer_x0020_1">
  <metadata id="CorelCorpID_0Corel-Layer"/>
  <rect class="fil13" width="11000" height="7266"/>
  <g id="_472380456">
   <polygon class="fil14" points="8024,2281 9241,2281 9241,1541 5966,1541 5966,2281 7183,2281 7183,5725 8024,5725 "/>
   <path class="fil15" d="M4666 2264l894 0c112,-1 208,13 290,40 80,27 143,74 186,140 43,65 66,155 66,269 -1,111 -25,200 -71,268 -46,69 -108,119 -187,152 -78,31 -167,47 -264,47l-913 0 0 -915zm0 1620l987 0c67,0 132,9 195,27 63,18 120,49 171,88 50,41 90,92 120,157 30,64 45,143 46,234 -1,212 -50,367 -149,465 -98,99 -237,148 -418,147l-953 0 0 -1119zm-756 1841l1590 0c144,0 269,-6 375,-17 106,-11 197,-27 273,-49 76,-21 142,-48 197,-79 56,-31 105,-66 149,-105 43,-40 85,-83 124,-129 62,-73 117,-154 162,-246 45,-91 80,-189 105,-293 25,-105 38,-212 38,-323 2,-139 -14,-274 -45,-404 -32,-130 -87,-248 -167,-354 -80,-106 -190,-191 -334,-256 38,-21 81,-50 130,-86 48,-37 95,-86 142,-150 46,-63 84,-145 114,-246 30,-101 46,-226 47,-375 1,-87 -9,-180 -30,-277 -21,-98 -56,-193 -104,-287 -48,-93 -114,-179 -197,-254 -83,-77 -187,-138 -311,-184 -125,-46 -273,-69 -446,-70l-1812 0 0 4184z"/>
   <path class="fil16" d="M1167 4406c-1,84 7,175 25,273 18,98 50,197 94,298 46,100 108,197 191,288 81,92 185,175 312,247 126,73 280,131 462,173 180,43 394,64 637,65 51,0 118,-3 199,-9 81,-7 171,-21 270,-40 99,-20 200,-49 304,-88 104,-38 204,-90 301,-153 96,-63 183,-142 261,-236 77,-93 137,-205 183,-336 45,-130 68,-281 69,-454 -1,-179 -30,-331 -87,-455 -58,-124 -136,-226 -234,-306 -99,-81 -211,-147 -337,-196 -125,-50 -258,-92 -396,-124l-981 -241c-43,-9 -89,-22 -137,-38 -49,-16 -95,-39 -139,-69 -43,-30 -79,-70 -107,-120 -28,-50 -42,-115 -43,-192 1,-91 22,-167 65,-229 42,-63 97,-112 166,-148 68,-37 144,-64 226,-80 81,-17 163,-25 244,-24 146,1 268,16 365,46 98,29 177,68 236,116 60,48 105,98 136,153 31,54 52,107 64,159 12,50 20,94 23,132l808 0c0,-100 -16,-208 -47,-325 -31,-116 -82,-232 -153,-345 -71,-115 -166,-219 -286,-314 -120,-95 -269,-171 -448,-228 -179,-57 -391,-86 -637,-88 -260,2 -481,30 -663,86 -181,55 -331,129 -447,220 -116,92 -206,192 -270,302 -64,109 -107,218 -133,329 -24,109 -36,209 -36,301 1,176 24,325 71,448 46,123 109,225 192,306 82,82 177,148 285,201 107,52 224,96 348,131 124,35 252,67 383,96l432 101c143,32 269,67 379,105 109,37 194,87 256,148 62,62 93,144 94,246 -1,105 -26,193 -76,261 -49,68 -114,120 -195,159 -81,38 -172,64 -271,79 -98,15 -198,22 -299,21 -146,-1 -269,-16 -370,-46 -101,-30 -182,-69 -246,-119 -63,-49 -111,-102 -146,-160 -34,-58 -57,-116 -70,-172 -13,-57 -21,-108 -21,-154l-808 0z"/>
   <path class="fil17" d="M8251 2600c22,-3 46,4 63,21l1497 1497c29,29 29,78 0,107l-1497 1497c-17,17 -40,24 -63,21l0 -3143z"/>
  </g>
 </g>
</svg>
