<?xml version="1.0" encoding="utf-8"?>
<!-- Generator: Adobe Illustrator 15.1.0, SVG Export Plug-In . SVG Version: 6.00 Build 0)  -->
<!DOCTYPE svg PUBLIC "-//W3C//DTD SVG 1.1//EN" "http://www.w3.org/Graphics/SVG/1.1/DTD/svg11.dtd">
<svg version="1.1" id="Layer_1" xmlns="http://www.w3.org/2000/svg" xmlns:xlink="http://www.w3.org/1999/xlink" x="0px" y="0px"
	 width="56px" height="56px" viewBox="0 0 56 56" enable-background="new 0 0 56 56" xml:space="preserve">
<g>
	<path id="Gravatar_2_" fill="#FFFFFF" d="M27.598,10.5c11.376,0.054,21.397,11.315,16.554,23.585
		c-2.584,6.545-7.438,9.949-15.363,11.254c-8.711,1.433-15.879-7.002-17.637-12.983c-1.885-6.417,1.346-15.007,5.193-17.312
		c2.438-1.459,5.886,0.606,5.41,3.462c-0.408,2.449-2.707,3.689-3.57,5.951c-2.553,6.684,2.475,12.292,7.357,13.525
		c12.731,3.211,17.537-15.2,5.842-19.8c0.107,4.593,1.027,10.409-2.704,11.361c-0.776,0.197-1.903,0.119-2.489-0.217
		c-0.688-0.396-1.525-1.419-1.73-2.272c-0.357-1.479-0.172-13.627,0.217-14.498C25.229,11.315,26.31,11.056,27.598,10.5z"/>
</g>
</svg>
