<?xml version="1.0" encoding="utf-8"?>
<!-- Generator: Adobe Illustrator 15.1.0, SVG Export Plug-In . SVG Version: 6.00 Build 0)  -->
<!DOCTYPE svg PUBLIC "-//W3C//DTD SVG 1.1//EN" "http://www.w3.org/Graphics/SVG/1.1/DTD/svg11.dtd">
<svg version="1.1" id="Layer_1" xmlns="http://www.w3.org/2000/svg" xmlns:xlink="http://www.w3.org/1999/xlink" x="0px" y="0px"
	 width="56px" height="56px" viewBox="0 0 56 56" enable-background="new 0 0 56 56" xml:space="preserve">
<g>
	<path id="Dribbble_1_" fill="#FFFFFF" d="M27.816,10.438c-9.665,0.001-17.499,7.835-17.499,17.501
		c0,9.664,7.834,17.499,17.499,17.499c9.666,0,17.5-7.835,17.5-17.499C45.316,18.272,37.482,10.438,27.816,10.438z M38.539,19.511
		c1.707,2.168,2.777,4.853,2.912,7.785c-1.977-0.419-3.842-0.623-5.582-0.623v-0.001h-0.014c-1.4,0-2.717,0.127-3.955,0.347
		c-0.301-0.738-0.605-1.446-0.914-2.126C33.746,23.683,36.395,21.959,38.539,19.511z M27.816,14.285c3.221,0,6.176,1.126,8.514,3
		c-1.789,2.143-4.152,3.694-6.705,4.791c-1.792-3.469-3.525-5.949-4.71-7.466C25.854,14.402,26.821,14.285,27.816,14.285z
		 M21.787,15.708c0.947,1.119,2.845,3.581,4.872,7.426c-4.121,1.227-8.271,1.515-10.782,1.514c-0.071,0-0.143,0-0.212,0h-0.003
		c-0.423,0-0.786-0.007-1.09-0.017C15.551,20.711,18.236,17.465,21.787,15.708z M14.164,27.938c0-0.064,0.002-0.13,0.006-0.197
		c0.39,0.015,0.89,0.027,1.491,0.027h0.003c2.745-0.019,7.537-0.248,12.392-1.78c0.265,0.578,0.526,1.181,0.786,1.807
		c-3.242,1.085-5.796,2.813-7.685,4.534c-1.818,1.656-3.048,3.297-3.766,4.393C15.383,34.343,14.165,31.286,14.164,27.938z
		 M27.816,41.592c-3.038,0-5.838-1.005-8.11-2.691c0.483-0.795,1.519-2.321,3.167-3.899c1.696-1.625,4.037-3.299,7.094-4.295
		c1.039,2.913,1.98,6.243,2.695,9.991C31.154,41.272,29.523,41.592,27.816,41.592z M35.545,39.168
		c-0.693-3.391-1.564-6.447-2.521-9.175c0.887-0.127,1.818-0.199,2.801-0.199h0.035h0.002h0.002c1.629,0,3.418,0.202,5.359,0.644
		C40.551,34.048,38.459,37.156,35.545,39.168z"/>
</g>
</svg>
