<?xml version="1.0" encoding="utf-8"?>
<!-- Generator: Adobe Illustrator 15.1.0, SVG Export Plug-In . SVG Version: 6.00 Build 0)  -->
<!DOCTYPE svg PUBLIC "-//W3C//DTD SVG 1.1//EN" "http://www.w3.org/Graphics/SVG/1.1/DTD/svg11.dtd">
<svg version="1.1" id="Layer_1" xmlns="http://www.w3.org/2000/svg" xmlns:xlink="http://www.w3.org/1999/xlink" x="0px" y="0px"
	 width="112px" height="112px" viewBox="0 0 112 112" enable-background="new 0 0 112 112" xml:space="preserve">
<g>
	<path fill="#FFFFFF" d="M56,21c-19.298,0-35,15.701-35,35c0,19.298,15.702,35,35,35c7.07,0,13.877-2.096,19.684-6.056
		c1.994-1.364,2.511-4.086,1.15-6.081c-1.361-2-4.078-2.502-6.081-1.15c-4.35,2.971-9.45,4.537-14.753,4.537
		c-14.477,0-26.25-11.773-26.25-26.25c0-14.478,11.773-26.25,26.25-26.25S82.25,41.522,82.25,56v2.188
		c0,2.414-1.96,4.375-4.375,4.375S73.5,60.602,73.5,58.188V45.063c0-2.42-1.955-4.375-4.375-4.375c-1.93,0-3.521,1.268-4.104,3.01
		c-2.538-1.868-5.64-3.01-9.021-3.01c-8.443,0-15.313,6.868-15.313,15.313c0,8.443,6.869,15.313,15.313,15.313
		c4.572,0,8.641-2.057,11.445-5.246c2.397,3.163,6.16,5.246,10.43,5.246C85.111,71.313,91,65.424,91,58.188V56
		C91,36.701,75.298,21,56,21z M56,62.563c-3.618,0-6.563-2.945-6.563-6.563c0-3.619,2.944-6.563,6.563-6.563
		s6.563,2.943,6.563,6.563C62.563,59.617,59.618,62.563,56,62.563z"/>
</g>
</svg>
