<?xml version="1.0" encoding="utf-8"?>
<!-- Generator: Adobe Illustrator 15.1.0, SVG Export Plug-In . SVG Version: 6.00 Build 0)  -->
<!DOCTYPE svg PUBLIC "-//W3C//DTD SVG 1.1//EN" "http://www.w3.org/Graphics/SVG/1.1/DTD/svg11.dtd">
<svg version="1.1" id="Layer_1" xmlns="http://www.w3.org/2000/svg" xmlns:xlink="http://www.w3.org/1999/xlink" x="0px" y="0px"
	 width="56px" height="56px" viewBox="0 0 56 56" enable-background="new 0 0 56 56" xml:space="preserve">
<g>
	<path id="Github_2_" fill="#FFFFFF" d="M36.68,14.45c0.454,1.033,0.75,2.749,0.309,4.006c1.8,1.535,2.418,5.269,1.55,8.319
		c2.563,0.196,5.616-0.094,7.588,0.693c-1.843-0.237-4.358-0.702-6.735-0.54c-0.451,0.03-1.117-0.018-1.084,0.616
		c2.75,0.216,5.484,0.451,7.742,1.156c-2.238-0.366-4.959-0.923-7.742-1.001c-1.149,2.27-3.465,3.385-6.66,3.619
		c0.345,0.746,1.002,1.031,1.162,2.233c0.24,1.796-0.375,4.427,0.23,5.623c0.291,0.573,0.766,0.589,1.086,1.079
		c-0.783,0.926-2.723-0.104-2.943-1.079c-0.379-1.671,0.576-4.26-0.465-5.393c0.074,1.821-0.431,4.381,0.078,6.008
		c0.2,0.642,0.778,0.888,0.619,1.465c-3.637,0.369-2.117-4.707-2.711-7.703c-0.549,0.038-0.309,0.821-0.309,1.155
		c-0.017,2.926,0.598,6.939-2.557,6.548c-0.092-0.614,0.424-0.823,0.619-1.386c0.576-1.646-0.107-4.1,0.157-6.087
		c-1.204,0.907,0.126,4.075-0.62,5.7c-0.43,0.935-1.814,1.342-2.865,0.924c0.137-0.695,0.856-0.583,1.161-1.231
		c0.427-0.903,0.003-2.207,0.155-3.544c-2.229,0.445-3.957-0.064-4.801-1.464c-0.379-0.628-0.473-1.368-0.93-1.925
		c-0.455-0.557-1.183-0.633-1.395-1.387c2.76-0.664,2.865,2.84,5.344,2.927c0.76,0.026,1.154-0.22,1.858-0.386
		c0.196-0.883,0.618-1.541,1.239-2.004c-3.084-0.422-5.631-1.381-6.814-3.694c-2.803,0.138-5.369,0.512-7.744,1.077
		c2.156-0.783,4.816-1.063,7.666-1.155c-0.168-1.01-1.641-0.732-2.555-0.693c-1.699,0.075-3.838,0.286-5.188,0.54
		c1.958-0.698,4.704-0.611,7.356-0.616c-0.811-2.544-0.529-6.584,1.24-8.089c-0.502-1.263-0.346-3.33,0.309-4.313
		c1.975,0.088,3.174,0.949,4.414,1.771c1.539-0.438,3.156-0.655,5.266-0.539c0.887,0.049,1.809,0.447,2.477,0.385
		c0.656-0.062,1.379-0.797,2.015-1.078C35.029,14.624,35.73,14.484,36.68,14.45z"/>
</g>
</svg>
