<?xml version="1.0" encoding="utf-8"?>
<!-- Generator: Adobe Illustrator 15.1.0, SVG Export Plug-In . SVG Version: 6.00 Build 0)  -->
<!DOCTYPE svg PUBLIC "-//W3C//DTD SVG 1.1//EN" "http://www.w3.org/Graphics/SVG/1.1/DTD/svg11.dtd">
<svg version="1.1" id="Layer_1" xmlns="http://www.w3.org/2000/svg" xmlns:xlink="http://www.w3.org/1999/xlink" x="0px" y="0px"
	 width="56px" height="56px" viewBox="0 0 56 56" enable-background="new 0 0 56 56" xml:space="preserve">
<g>
	<path fill="#FFFFFF" d="M44,35.742v3.73H32.536v-3.73h2.394V19.206h-0.107l-5.607,20.269h-4.339L19.34,19.206h-0.143v16.536h2.411
		v3.73H12v-3.73h1.232c0.25,0,0.505-0.116,0.768-0.35c0.262-0.231,0.393-0.455,0.393-0.67v-15.73c0-0.215-0.131-0.452-0.393-0.715
		c-0.263-0.263-0.518-0.393-0.768-0.393H12v-3.732h12l3.946,14.661h0.107l3.982-14.661H44v3.732h-1.268
		c-0.228,0-0.471,0.13-0.732,0.393c-0.262,0.263-0.393,0.5-0.393,0.715v15.73c0,0.215,0.127,0.438,0.384,0.67
		c0.256,0.232,0.503,0.35,0.741,0.35H44z"/>
</g>
</svg>
