<?xml version="1.0" encoding="utf-8"?>
<!-- Generator: Adobe Illustrator 15.1.0, SVG Export Plug-In . SVG Version: 6.00 Build 0)  -->
<!DOCTYPE svg PUBLIC "-//W3C//DTD SVG 1.1//EN" "http://www.w3.org/Graphics/SVG/1.1/DTD/svg11.dtd">
<svg version="1.1" id="Layer_1" xmlns="http://www.w3.org/2000/svg" xmlns:xlink="http://www.w3.org/1999/xlink" x="0px" y="0px"
	 width="56px" height="56px" viewBox="0 0 56 56" enable-background="new 0 0 56 56" xml:space="preserve">
<g>
	<g id="Pocket_2_">
		<g>
			<path fill="#FFFFFF" d="M27.152,29.516c-0.016-0.018,0.016-0.082,0-0.1c-0.016-0.016-0.083,0.018-0.097,0
				c-0.017-0.02,0.015-0.076,0-0.096c-0.011-0.016-0.084,0.012-0.096,0c-0.017-0.018,0.015-0.08,0-0.098
				c-0.017-0.017-0.081,0.018-0.098,0c-0.018-0.017,0.018-0.08,0-0.097c-0.018-0.019-0.081,0.017-0.096,0
				c-0.016-0.017,0.015-0.083,0-0.099c-0.018-0.014-0.081,0.017-0.098,0c-0.016-0.014,0.018-0.082,0-0.096
				c-0.019-0.019-0.076,0.014-0.096,0c-0.017-0.012,0.013-0.086,0-0.1c-0.018-0.014-0.082,0.018-0.099,0
				c-0.015-0.014,0.018-0.077,0-0.096c-0.015-0.019-0.079,0.019-0.096,0c-0.016-0.019,0.017-0.082,0-0.096
				c-0.016-0.015-0.082,0.016-0.097,0c-0.015-0.015,0.017-0.08,0-0.099c-0.015-0.015-0.082,0.019-0.096,0
				c-0.018-0.019,0.014-0.076,0-0.096c-0.012-0.016-0.084,0.012-0.098,0c-0.014-0.016,0.016-0.083,0-0.099
				c-0.016-0.016-0.08,0.021-0.096,0c-0.018-0.016,0.016-0.079,0-0.093c-0.018-0.018-0.082,0.014-0.098,0
				c-0.014-0.016,0.015-0.088,0-0.1c-0.014-0.009-0.08,0-0.097,0c-0.023,0-0.077,0.011-0.096,0c-0.011-0.004,0.006-0.085,0-0.096
				c-0.011-0.016-0.084,0.013-0.098,0c-0.016-0.016,0.018-0.083,0-0.098c-0.018-0.014-0.081,0.017-0.096,0
				c-0.018-0.015,0.015-0.079,0-0.095c-0.018-0.019-0.081,0.016-0.098,0c-0.016-0.018,0.018-0.083,0-0.098
				c-0.016-0.014-0.081,0.016-0.096,0c-0.017-0.014,0.015-0.083,0-0.097c-0.021-0.018-0.076,0.014-0.099,0
				c-0.015-0.012,0.016-0.084,0-0.098c-0.015-0.015-0.079,0.017-0.096,0c-0.016-0.014,0.017-0.078,0-0.096
				c-0.016-0.018-0.081,0.018-0.097,0s0.017-0.081,0-0.097c-0.014-0.014-0.08,0.017-0.096,0c-0.017-0.015,0.017-0.08,0-0.098
				c-0.017-0.015-0.084,0.018-0.098,0c-0.015-0.021,0.014-0.076,0-0.096c-0.009-0.016-0.082,0.012-0.096,0
				c-0.018-0.017,0.016-0.081,0-0.098c-0.018-0.017-0.082,0.018-0.098,0c-0.016-0.017,0.016-0.08,0-0.095
				c-0.016-0.018-0.08,0.015-0.097,0c-0.016-0.017,0.018-0.083,0-0.099c-0.017-0.015-0.081,0.018-0.096,0
				c-0.016-0.015,0.015-0.082,0-0.096c-0.02-0.018-0.077,0.014-0.098,0c-0.016-0.011,0.014-0.084,0-0.098
				c-0.018-0.015-0.081,0.017-0.096,0c-0.018-0.014,0.014-0.079,0-0.095c-0.018-0.019-0.081,0.017-0.098,0
				c-0.016-0.019,0.018-0.083,0-0.098c-0.016-0.015-0.081,0.015-0.096,0c-0.018-0.014,0.015-0.081,0-0.097
				c-0.018-0.018-0.082,0.017-0.099,0c-0.015-0.017,0.016-0.08,0-0.098c-0.025-0.032-0.159,0.029-0.193,0
				c-0.016-0.013,0.016-0.079,0-0.096c-0.016-0.018-0.079,0.018-0.096,0c-0.018-0.018,0.017-0.081,0-0.097
				c-0.017-0.015-0.083,0.016-0.098,0c-0.015-0.016,0.015-0.081,0-0.098c-0.015-0.015-0.083,0.018-0.096,0
				c-0.018-0.019,0.014-0.076,0-0.096c-0.012-0.016-0.084,0.013-0.098,0c-0.016-0.016,0.016-0.082,0-0.098
				c-0.016-0.016-0.08,0.018-0.097,0c-0.017-0.017,0.018-0.08,0-0.095c-0.017-0.018-0.081,0.015-0.096,0
				c-0.016-0.017,0.015-0.083,0-0.098c-0.017-0.016-0.081,0.017-0.098,0c-0.016-0.016,0.018-0.083,0-0.097
				c-0.019-0.018-0.076,0.014-0.096,0c-0.016-0.011,0.013-0.084,0-0.098c-0.018-0.015-0.082,0.017-0.098,0
				c-0.016-0.015,0.017-0.078,0-0.095c-0.016-0.019-0.081,0.017-0.096,0c-0.018-0.019,0.015-0.083,0-0.098
				c-0.017-0.014-0.082,0.016-0.099,0c-0.013-0.015,0.018-0.08,0-0.097c-0.013-0.017-0.082,0.017-0.096,0
				c-0.018-0.021,0.014-0.077,0-0.097c-0.01-0.015-0.083,0.013-0.097,0c-0.016-0.016,0.017-0.08,0-0.098
				c-0.016-0.017-0.079,0.019-0.096,0c-0.018-0.017,0.017-0.08,0-0.096c-0.018-0.016-0.083,0.016-0.098,0
				c-0.015-0.015,0.015-0.082,0-0.098c-0.016-0.015-0.081,0.018-0.096,0c-0.018-0.015,0.016-0.083,0-0.096
				c-0.021-0.017-0.077,0.013-0.098,0c-0.016-0.011,0.013-0.083,0-0.098c-0.016-0.017-0.079,0.017-0.097,0
				c-0.017-0.015,0.017-0.081,0-0.095c-0.017-0.018-0.081,0.015-0.096,0c-0.017-0.018,0.015-0.082,0-0.098
				c-0.017-0.017-0.079,0.014-0.098,0c-0.019-0.015-0.08,0.017-0.096,0c-0.016-0.016,0.016-0.083,0-0.097
				c-0.02-0.018-0.076,0.014-0.098,0c-0.015-0.011,0.014-0.084,0-0.098c-0.016-0.015-0.079,0.016-0.096,0
				c-0.018-0.013,0.015-0.079,0-0.096c-0.018-0.018-0.082,0.018-0.099,0c-0.015-0.018,0.018-0.082,0-0.097
				c-0.013-0.014-0.08,0.016-0.096,0c-0.016-0.015,0.018-0.08,0-0.097c-0.016-0.017-0.083,0.017-0.097,0
				c-0.016-0.02,0.014-0.077,0-0.097c-0.01-0.015-0.082,0.013-0.096,0c-0.015-0.013,0.016-0.084,0-0.098
				c-0.043-0.03-0.146,0.022-0.194,0c-0.014-0.005,0.01-0.086,0-0.095c-0.016-0.015-0.079,0.007-0.098,0
				c-0.02-0.009-0.082,0.013-0.097,0c-0.012-0.012,0.016-0.09,0-0.099c-0.019-0.01-0.075,0.001-0.096,0
				c-0.015-0.001-0.088,0.01-0.098,0c-0.01-0.008,0.01-0.094,0-0.096c-0.025-0.008-0.071,0-0.096,0c-0.097,0-0.195,0.005-0.293,0
				c-0.013-0.001-0.086,0.008-0.096,0c-0.006-0.006,0.006-0.097,0-0.098c-0.093-0.012-0.197,0-0.291,0c-0.158,0-0.327-0.017-0.485,0
				c-0.015,0.002-0.087-0.01-0.096,0c-0.01,0.01,0.012,0.093,0,0.098c-0.054,0.022-0.137-0.017-0.194,0c-0.027,0.008-0.07,0-0.099,0
				c-0.024,0-0.071-0.009-0.096,0c-0.01,0.002,0.008,0.087,0,0.096c-0.023,0.029-0.16-0.016-0.194,0c-0.02,0.01-0.083-0.014-0.097,0
				c-0.015,0.017,0.015,0.085,0,0.099c-0.019,0.015-0.075-0.014-0.096,0c-0.018,0.009,0.014,0.081,0,0.095
				c-0.018,0.018-0.079-0.012-0.098,0c-0.02,0.014-0.081-0.016-0.097,0c-0.016,0.018,0.018,0.084,0,0.098
				c-0.019,0.016-0.077-0.013-0.096,0c-0.016,0.01,0.012,0.083,0,0.097c-0.017,0.017-0.079-0.015-0.098,0
				c-0.019,0.014-0.08-0.017-0.096,0c-0.016,0.016,0.016,0.084,0,0.097c-0.02,0.016-0.077-0.012-0.098,0
				c-0.015,0.01,0.014,0.083,0,0.097c-0.015,0.017-0.081-0.018-0.096,0c-0.011,0.013,0.001,0.082,0,0.096
				c-0.001,0.015,0.009,0.089,0,0.098c-0.013,0.012-0.091-0.016-0.099,0c-0.009,0.019,0.016,0.081,0,0.097
				c-0.007,0.009-0.09-0.013-0.096,0c-0.023,0.051,0.027,0.145,0,0.193c-0.008,0.015-0.084-0.011-0.097,0
				c-0.03,0.026,0.019,0.16,0,0.194c-0.008,0.016-0.084-0.011-0.097,0c-0.017,0.018,0.014,0.08,0,0.098
				c-0.013,0.019,0.018,0.079,0,0.096c-0.009,0.01-0.095-0.01-0.097,0c-0.016,0.052,0,0.141,0,0.195c0,0.093,0.011,0.199,0,0.29
				c-0.002,0.022,0.011,0.081,0,0.098c-0.01,0.016-0.083-0.014-0.096,0c-0.014,0.012,0.004,0.08,0,0.097
				c-0.02,0.083-0.006,0.207,0,0.291c0,0.018-0.012,0.081,0,0.096c0.01,0.017,0.083-0.014,0.096,0c0.011,0.013-0.003,0.082,0,0.098
				c0.029,0.123-0.032,0.266,0,0.387c0.006,0.023-0.012,0.077,0,0.098c0.009,0.016,0.083-0.015,0.097,0
				c0.017,0.016-0.011,0.077,0,0.095c0.015,0.025-0.016,0.075,0,0.098c0.012,0.015,0.084-0.014,0.097,0
				c0.015,0.015-0.009,0.078,0,0.096c0.012,0.025-0.015,0.075,0,0.099c0.01,0.014,0.083-0.015,0.097,0
				c0.016,0.014-0.012,0.075,0,0.095c0.014,0.026-0.016,0.076,0,0.098c0.012,0.014,0.084-0.014,0.096,0
				c0.018,0.015-0.012,0.078,0,0.096c0.012,0.016,0.082-0.011,0.099,0c0.016,0.012-0.015,0.085,0,0.098
				c0.017,0.017,0.08-0.015,0.096,0c0.017,0.017-0.012,0.077,0,0.097c0.011,0.017,0.084-0.015,0.098,0
				c0.016,0.018-0.018,0.082,0,0.096c0.016,0.017,0.077-0.012,0.096,0c0.016,0.011-0.013,0.083,0,0.098
				c0.018,0.017,0.08-0.017,0.098,0c0.015,0.015-0.016,0.083,0,0.097c0.015,0.016,0.079-0.015,0.096,0
				c0.018,0.016-0.017,0.08,0,0.098c0.018,0.016,0.082-0.019,0.097,0c0.016,0.016-0.012,0.077,0,0.095
				c0.01,0.016,0.082-0.013,0.098,0c0.016,0.017-0.018,0.082,0,0.098c0.016,0.015,0.078-0.013,0.096,0
				c0.015,0.011-0.013,0.083,0,0.096c0.015,0.018,0.08-0.016,0.097,0c0.018,0.018-0.013,0.079,0,0.1
				c0.012,0.013,0.084-0.014,0.097,0c0.016,0.014-0.017,0.077,0,0.093c0.016,0.021,0.077-0.012,0.097,0
				c0.016,0.013-0.014,0.085,0,0.099c0.018,0.014,0.082-0.017,0.096,0c0.018,0.014-0.011,0.077,0,0.096
				c0.012,0.018,0.084-0.014,0.099,0c0.017,0.018-0.018,0.083,0,0.098c0.017,0.016,0.077-0.01,0.096,0
				c0.016,0.012-0.013,0.084,0,0.098c0.017,0.018,0.083-0.02,0.098,0c0.016,0.018-0.014,0.078,0,0.095
				c0.01,0.017,0.082-0.011,0.096,0c0.018,0.019-0.015,0.081,0,0.099c0.016,0.018,0.083-0.017,0.098,0
				c0.015,0.018-0.017,0.082,0,0.098c0.015,0.016,0.079-0.016,0.096,0c0.017,0.015-0.017,0.082,0,0.098
				c0.019,0.016,0.078-0.016,0.097,0c0.015,0.012-0.014,0.082,0,0.096c0.015,0.016,0.076-0.012,0.098,0
				c0.023,0.014,0.075-0.016,0.096,0c0.015,0.01-0.013,0.084,0,0.098c0.015,0.017,0.078-0.014,0.097,0
				c0.017,0.013-0.012,0.08,0,0.097c0.012,0.017,0.084-0.013,0.097,0c0.017,0.019-0.016,0.082,0,0.101
				c0.017,0.014,0.078-0.015,0.097,0c0.016,0.008-0.014,0.08,0,0.094c0.018,0.02,0.082-0.017,0.096,0
				c0.018,0.018-0.011,0.08,0,0.099c0.012,0.015,0.084-0.015,0.099,0c0.017,0.015-0.018,0.08,0,0.097
				c0.017,0.018,0.077-0.013,0.096,0c0.016,0.012-0.013,0.084,0,0.098c0.017,0.016,0.083-0.016,0.098,0
				c0.016,0.016-0.014,0.076,0,0.097c0.01,0.019,0.082-0.015,0.096,0c0.018,0.019-0.016,0.08,0,0.097
				c0.016,0.018,0.083-0.015,0.098,0c0.015,0.018-0.017,0.08,0,0.098c0.015,0.018,0.079-0.018,0.096,0
				c0.018,0.018-0.017,0.082,0,0.098c0.018,0.016,0.078-0.014,0.097,0c0.015,0.01-0.014,0.084,0,0.098
				c0.016,0.016,0.08-0.018,0.098,0c0.016,0.016-0.014,0.077,0,0.096c0.01,0.017,0.083-0.014,0.096,0
				c0.015,0.019-0.016,0.082,0,0.099c0.015,0.017,0.077-0.013,0.098,0c0.016,0.011-0.015,0.084,0,0.097
				c0.017,0.018,0.08-0.017,0.096,0c0.017,0.018-0.012,0.077,0,0.1c0.011,0.015,0.083-0.014,0.097,0c0.016,0.015-0.018,0.08,0,0.094
				c0.018,0.02,0.078-0.014,0.096,0c0.018,0.012-0.011,0.085,0,0.1c0.018,0.014,0.079-0.014,0.099,0c0.015,0.008-0.013,0.08,0,0.096
				c0.024,0.031,0.159-0.026,0.194,0c0.015,0.013-0.012,0.082,0,0.098c0.01,0.016,0.082-0.014,0.096,0
				c0.018,0.016-0.016,0.079,0,0.098c0.016,0.018,0.083-0.017,0.098,0c0.015,0.018-0.017,0.08,0,0.096
				c0.015,0.018,0.079-0.016,0.096,0c0.017,0.016-0.017,0.082,0,0.099c0.019,0.017,0.078-0.015,0.097,0
				c0.015,0.011-0.014,0.083,0,0.097c0.016,0.016,0.08-0.016,0.098,0c0.016,0.016-0.014,0.076,0,0.098
				c0.01,0.015,0.083-0.014,0.096,0c0.015,0.017-0.016,0.08,0,0.097c0.015,0.017,0.077-0.015,0.098,0
				c0.016,0.013-0.015,0.084,0,0.099c0.017,0.016,0.08-0.019,0.096,0c0.017,0.016-0.012,0.075,0,0.096
				c0.011,0.016,0.083-0.014,0.097,0c0.017,0.018-0.018,0.082,0,0.098c0.017,0.016,0.079-0.012,0.096,0
				c0.018,0.01-0.013,0.082,0,0.096c0.018,0.019,0.082-0.016,0.099,0c0.015,0.019-0.014,0.078,0,0.098
				c0.011,0.017,0.083-0.014,0.096,0c0.017,0.017-0.016,0.08,0,0.099c0.017,0.017,0.079-0.015,0.098,0
				c0.015,0.01-0.014,0.084,0,0.097c0.015,0.016,0.078-0.015,0.096,0c0.018,0.016-0.016,0.082,0,0.098
				c0.018,0.018,0.082-0.019,0.098,0c0.015,0.018-0.017,0.08,0,0.096c0.015,0.018,0.079-0.014,0.096,0
				c0.018,0.016-0.013,0.078,0,0.098c0.012,0.016,0.083-0.014,0.097,0c0.016,0.019-0.016,0.08,0,0.098
				c0.016,0.017,0.076-0.014,0.098,0c0.016,0.011-0.016,0.082,0,0.099c0.016,0.017,0.079-0.019,0.096,0
				c0.015,0.013-0.013,0.08,0,0.097c0.027,0.032,0.16-0.025,0.193,0c0.015,0.01-0.01,0.079,0,0.098c0.011,0.014,0.083-0.014,0.097,0
				c0.016,0.014-0.018,0.082,0,0.096c0.019,0.018,0.078-0.014,0.096,0c0.018,0.012-0.013,0.084,0,0.098
				c0.018,0.016,0.082-0.016,0.099,0c0.015,0.016-0.014,0.076,0,0.096c0.011,0.019,0.082-0.014,0.096,0
				c0.018,0.019-0.016,0.082,0,0.099c0.018,0.017,0.079-0.015,0.098,0c0.014,0.01-0.014,0.084,0,0.099
				c0.015,0.016,0.078-0.019,0.096,0c0.018,0.014-0.016,0.082,0,0.096c0.018,0.016,0.082-0.017,0.098,0
				c0.015,0.016-0.017,0.08,0,0.098c0.015,0.018,0.079-0.018,0.096,0c0.018,0.018-0.013,0.078,0,0.096
				c0.012,0.016,0.083-0.012,0.097,0c0.016,0.019-0.016,0.08,0,0.098c0.016,0.019,0.076-0.012,0.098,0
				c0.016,0.013-0.016,0.084,0,0.099c0.016,0.017,0.081-0.019,0.096,0c0.016,0.017-0.011,0.076,0,0.099
				c0.01,0.014,0.083-0.017,0.098,0c0.017,0.016-0.018,0.077,0,0.096c0.017,0.016,0.078-0.014,0.096,0
				c0.016,0.01-0.013,0.084,0,0.098c0.017,0.016,0.082-0.018,0.097,0c0.017,0.014-0.012,0.076,0,0.096
				c0.012,0.016,0.083-0.014,0.096,0c0.018,0.019-0.015,0.082,0,0.098c0.018,0.017,0.079-0.012,0.099,0
				c0.015,0.011-0.014,0.082,0,0.097c0.015,0.019,0.079-0.017,0.096,0c0.017,0.017-0.012,0.08,0,0.099
				c0.011,0.016,0.084-0.015,0.098,0c0.013,0.014-0.018,0.084,0,0.098c0.04,0.029,0.145-0.021,0.194,0
				c0.011,0.004-0.011,0.086,0,0.096c0.015,0.016,0.078-0.014,0.096,0c0.017,0.016-0.013,0.078,0,0.098
				c0.012,0.016,0.083-0.014,0.097,0c0.016,0.019-0.016,0.08,0,0.096c0.016,0.019,0.076-0.012,0.098,0
				c0.016,0.013-0.016,0.084,0,0.099c0.016,0.019,0.081-0.017,0.096,0c0.016,0.019-0.011,0.078,0,0.099
				c0.01,0.016,0.083-0.015,0.098,0c0.017,0.016-0.018,0.079,0,0.098c0.017,0.016,0.078-0.014,0.096,0
				c0.016,0.01-0.013,0.082,0,0.096c0.017,0.016,0.08-0.016,0.097,0c0.015,0.012-0.01,0.08,0,0.098c0.012,0.014,0.083-0.014,0.096,0
				c0.016,0.014-0.015,0.084,0,0.096c0.016,0.011,0.081-0.002,0.099,0c0.013,0,0.087-0.008,0.096,0c0.012,0.013-0.014,0.091,0,0.099
				c0.021,0.013,0.075-0.002,0.098,0c0.013,0,0.086-0.008,0.096,0c0.01,0.008-0.012,0.092,0,0.097c0.058,0.021,0.135-0.015,0.194,0
				c0.019,0.004,0.085-0.013,0.097,0c0.007,0.008-0.008,0.096,0,0.098c0.055,0.014,0.136,0,0.193,0c0.062,0,0.133-0.008,0.194,0
				c0.016,0.002,0.087-0.01,0.097,0c0.012,0.01-0.012,0.092,0,0.098c0.021,0.008,0.075,0,0.096,0c0.066,0,0.129,0,0.195,0
				c0.049,0,0.15,0.02,0.194,0c0.014-0.006-0.012-0.088,0-0.098c0.012-0.01,0.082,0.002,0.096,0c0.09-0.016,0.201,0,0.292,0
				c0.057,0,0.139,0.014,0.194,0c0.008-0.002-0.007-0.09,0-0.098c0.021-0.027,0.157,0.016,0.192,0c0.024-0.011,0.078,0.016,0.097,0
				c0.018-0.011-0.013-0.082,0-0.097c0.016-0.015,0.079,0.01,0.099,0c0.021-0.013,0.074,0.015,0.098,0
				c0.016-0.01-0.015-0.084,0-0.099c0.017-0.016,0.078,0.015,0.097,0c0.015-0.01-0.011-0.082,0-0.096
				c0.026-0.033,0.159,0.023,0.192,0c0.016-0.012-0.01-0.082,0-0.098c0.012-0.016,0.084,0.014,0.099,0
				c0.017-0.018-0.017-0.08,0-0.096c0.017-0.019,0.077,0.012,0.097,0c0.016-0.012-0.014-0.084,0-0.098
				c0.018-0.019,0.08,0.016,0.098,0c0.017-0.019-0.016-0.078,0-0.099c0.01-0.017,0.082,0.015,0.097,0
				c0.016-0.017-0.015-0.078,0-0.099c0.014-0.016,0.082,0.017,0.098,0c0.017-0.016-0.017-0.077,0-0.096
				c0.017-0.018,0.08,0.019,0.097,0c0.017-0.016-0.017-0.082,0-0.098c0.019-0.016,0.078,0.014,0.098,0
				c0.016-0.01-0.014-0.082,0-0.096c0.017-0.019,0.08,0.016,0.096,0c0.018-0.019-0.012-0.078,0-0.098c0.012-0.017,0.085,0.014,0.1,0
				c0.013-0.015-0.018-0.084,0-0.099c0.019-0.017,0.074,0.017,0.097,0c0.016-0.01-0.015-0.082,0-0.097
				c0.016-0.016,0.077,0.011,0.097,0c0.023-0.014,0.073,0.017,0.098,0c0.016-0.01-0.015-0.084,0-0.098
				c0.018-0.018,0.08,0.016,0.096,0c0.016-0.014-0.01-0.078,0-0.096c0.012-0.016,0.085,0.012,0.099,0
				c0.017-0.018-0.017-0.082,0-0.098c0.017-0.019,0.077,0.012,0.097,0c0.017-0.012-0.014-0.084,0-0.096
				c0.018-0.019,0.08,0.016,0.099,0c0.016-0.019-0.017-0.078,0-0.099c0.01-0.017,0.082,0.015,0.096,0
				c0.019-0.019-0.016-0.08,0-0.099c0.015-0.018,0.082,0.017,0.099,0c0.016-0.018-0.018-0.08,0-0.098
				c0.016-0.016,0.08,0.019,0.097,0c0.017-0.016-0.017-0.078,0-0.096s0.077,0.014,0.097,0c0.016-0.01-0.014-0.084,0-0.098
				c0.018-0.017,0.08,0.016,0.096,0c0.019-0.017-0.012-0.076,0-0.096c0.012-0.019,0.086,0.014,0.1,0
				c0.015-0.019-0.018-0.082,0-0.099c0.015-0.017,0.076,0.013,0.097,0c0.017-0.01-0.014-0.082,0-0.099
				c0.017-0.016,0.08,0.019,0.097,0c0.018-0.016-0.013-0.075,0-0.096c0.012-0.016,0.084,0.012,0.098,0
				c0.018-0.016-0.018-0.08,0-0.098c0.018-0.016,0.078,0.014,0.096,0c0.016-0.012-0.012-0.084,0-0.096
				c0.018-0.019,0.082,0.016,0.1,0c0.017-0.019-0.014-0.078,0-0.098c0.011-0.017,0.082,0.014,0.097,0
				c0.017-0.017-0.017-0.082,0-0.097c0.017-0.019,0.075,0.013,0.098,0c0.017-0.013-0.014-0.086,0-0.099
				c0.017-0.018,0.078,0.017,0.097,0c0.018-0.016-0.017-0.082,0-0.098c0.018-0.018,0.08,0.019,0.098,0
				c0.016-0.018-0.018-0.08,0-0.098c0.016-0.016,0.078,0.016,0.097,0s0.077,0.014,0.097,0c0.017-0.01-0.014-0.082,0-0.096
				c0.018-0.019,0.08,0.018,0.097,0c0.018-0.019-0.013-0.078,0-0.098c0.012-0.015,0.085,0.014,0.099,0
				c0.016-0.017-0.017-0.08,0-0.097c0.016-0.019,0.077,0.013,0.098,0c0.016-0.013-0.015-0.084,0-0.099
				c0.017-0.016,0.08,0.017,0.097,0c0.017-0.016-0.013-0.075,0-0.098c0.011-0.016,0.083,0.016,0.097,0
				c0.018-0.016-0.018-0.08,0-0.096s0.078,0.012,0.096,0c0.017-0.01-0.012-0.084,0-0.098c0.019-0.017,0.082,0.018,0.1,0
				c0.017-0.017-0.014-0.078,0-0.096c0.011-0.017,0.083,0.012,0.097,0c0.017-0.019-0.016-0.082,0-0.099
				c0.017-0.017,0.076,0.015,0.099,0c0.015-0.013-0.015-0.084,0-0.097c0.016-0.018,0.078,0.015,0.096,0
				c0.018-0.016-0.016-0.082,0-0.098c0.018-0.016,0.081,0.016,0.098,0c0.016-0.016-0.017-0.08,0-0.097
				c0.016-0.019,0.08,0.017,0.098,0c0.017-0.017-0.014-0.079,0-0.099c0.011-0.014,0.082,0.014,0.097,0
				c0.017-0.016-0.017-0.078,0-0.096c0.017-0.019,0.075,0.014,0.096,0c0.019-0.013-0.014-0.084,0-0.098
				c0.019-0.016,0.082,0.016,0.099,0c0.016-0.016-0.013-0.077,0-0.098c0.01-0.017,0.084,0.015,0.098,0
				c0.017-0.017-0.018-0.082,0-0.096c0.017-0.018,0.078,0.01,0.097,0c0.017-0.012-0.013-0.084,0-0.1
				c0.017-0.016,0.079,0.018,0.097,0c0.019-0.014-0.016-0.078,0-0.094c0.026-0.035,0.16,0.022,0.194,0
				c0.015-0.012-0.011-0.082,0-0.1c0.011-0.016,0.083,0.014,0.097,0c0.017-0.016-0.016-0.082,0-0.097
				c0.02-0.017,0.076,0.013,0.099,0c0.015-0.011-0.015-0.084,0-0.099c0.016-0.016,0.077,0.017,0.096,0
				c0.019-0.016-0.017-0.08,0-0.096c0.019-0.018,0.081,0.016,0.099,0c0.016-0.018-0.018-0.082,0-0.098
				c0.016-0.016,0.08,0.016,0.097,0c0.017-0.014-0.013-0.078,0-0.098c0.011-0.017,0.083,0.015,0.097,0
				c0.018-0.018-0.016-0.08,0-0.098c0.018-0.016,0.076,0.014,0.096,0c0.019-0.01-0.014-0.08,0-0.097
				c0.019-0.019,0.082,0.019,0.099,0c0.016-0.019-0.013-0.078,0-0.097c0.01-0.016,0.084,0.013,0.098,0
				c0.017-0.016-0.017-0.08,0-0.098c0.017-0.017,0.078,0.014,0.097,0c0.017-0.012-0.013-0.084,0-0.097
				c0.018-0.017,0.08,0.015,0.098,0c0.018-0.017-0.014-0.077,0-0.099c0.012-0.017,0.084,0.016,0.096,0
				c0.018-0.017-0.016-0.08,0-0.094c0.018-0.019,0.079,0.01,0.1,0c0.016-0.013-0.015-0.086,0-0.101c0.017-0.017,0.08,0.019,0.097,0
				c0.017-0.017-0.015-0.078,0-0.097c0.011-0.016,0.084,0.013,0.098,0c0.017-0.017-0.016-0.079,0-0.098
				c0.015-0.016,0.08,0.016,0.097,0c0.018-0.016-0.019-0.08,0-0.096c0.018-0.018,0.08,0.016,0.098,0
				c0.014-0.016-0.018-0.084,0-0.098c0.016-0.016,0.076,0.013,0.097,0c0.017-0.012-0.014-0.084,0-0.098
				c0.017-0.018,0.077,0.014,0.097,0c0.016-0.011-0.012-0.082,0-0.099c0.026-0.03,0.16,0.028,0.193,0
				c0.014-0.009-0.01-0.077,0-0.095s0.084,0.016,0.098,0c0.018-0.02-0.017-0.082,0-0.098c0.018-0.014,0.078,0.014,0.098,0
				c0.016-0.008-0.014-0.082,0-0.098c0.017-0.016,0.078,0.018,0.097,0c0.017-0.016-0.014-0.08,0-0.096
				c0.013-0.016,0.084,0.012,0.097,0c0.018-0.017-0.016-0.079,0-0.099c0.018-0.016,0.078,0.015,0.099,0
				c0.016-0.01-0.015-0.082,0-0.093c0.017-0.018,0.081,0.014,0.097,0c0.018-0.018-0.014-0.08,0-0.1c0.012-0.015,0.084,0.015,0.098,0
				c0.017-0.016-0.016-0.081,0-0.096c0.015-0.017,0.08,0.015,0.097,0c0.018-0.017-0.019-0.082,0-0.098
				c0.018-0.015,0.081,0.017,0.098,0c0.017-0.015-0.017-0.079,0-0.095c0.017-0.019,0.077,0.013,0.097,0
				c0.017-0.012-0.014-0.085,0-0.098c0.018-0.015,0.082,0.016,0.098,0c0.017-0.015-0.012-0.077,0-0.097
				c0.011-0.017,0.082,0.014,0.098,0c0.016-0.018-0.018-0.082,0-0.098c0.016-0.015,0.077,0.013,0.096,0
				c0.017-0.009-0.013-0.081,0-0.096c0.017-0.018,0.082,0.018,0.099,0s-0.013-0.078,0-0.097c0.011-0.014,0.084,0.014,0.097,0
				c0.018-0.015-0.015-0.078,0-0.098c0.012-0.015,0.079,0.012,0.098,0c0.016-0.011-0.015-0.083,0-0.096
				c0.016-0.015,0.086,0.015,0.096,0c0.01-0.014,0-0.079,0-0.098c0.002-0.015-0.008-0.087,0-0.095c0.012-0.012,0.091,0.012,0.099,0
				c0.011-0.021-0.001-0.076,0-0.099c0.001-0.014-0.009-0.087,0-0.096c0.009-0.009,0.093,0.01,0.097,0
				c0.021-0.057-0.015-0.134,0-0.193c0.004-0.02-0.012-0.087,0-0.098c0.008-0.007,0.097,0.008,0.099,0c0.012-0.059,0-0.134,0-0.195
				c0-0.064,0-0.128,0-0.192c0-0.162,0.006-0.324,0-0.485c-0.009-0.157,0.022-0.33,0-0.484c-0.002-0.017,0.01-0.087,0-0.097
				c-0.013-0.009-0.093,0.012-0.099,0c-0.009-0.021,0-0.072,0-0.098c0-0.053,0.019-0.144,0-0.194c-0.002-0.009-0.088,0.009-0.097,0
				c-0.028-0.022,0.017-0.157,0-0.194c-0.006-0.012-0.087,0.01-0.099,0c-0.029-0.024,0.025-0.158,0-0.193
				c-0.008-0.014-0.08,0.009-0.096,0c-0.017-0.011,0.014-0.083,0-0.097c-0.017-0.017-0.082,0.017-0.098,0
				c-0.015-0.019,0.018-0.082,0-0.098c-0.011-0.009-0.092,0.013-0.097,0c-0.019-0.04,0.026-0.163,0-0.193
				c-0.017-0.015-0.082,0.016-0.099,0c-0.01-0.008,0.012-0.092,0-0.097c-0.049-0.022-0.147,0.028-0.192,0
				c-0.017-0.011,0.014-0.084,0-0.097c-0.017-0.016-0.08,0.016-0.097,0c-0.018-0.016,0.017-0.079,0-0.098
				c-0.017-0.016-0.08,0.014-0.098,0c-0.02-0.012-0.082,0.018-0.098,0c-0.012-0.01,0.014-0.091,0-0.095
				c-0.053-0.023-0.145,0.025-0.193,0c-0.014-0.008,0.012-0.086,0-0.099c-0.017-0.016-0.078,0.014-0.097,0
				c-0.021-0.012-0.081,0.018-0.099,0c-0.008-0.008,0.01-0.094,0-0.096c-0.023-0.008-0.068,0-0.097,0c-0.096,0-0.194,0.005-0.291,0
				c-0.014-0.001-0.088,0.008-0.098,0c-0.007-0.006,0.008-0.097,0-0.098c-0.093-0.012-0.196,0-0.289,0c-0.129,0-0.261-0.007-0.388,0
				c-0.016,0.001-0.09-0.009-0.1,0c-0.006,0.008,0.01,0.096,0,0.098c-0.121,0.031-0.266-0.034-0.387,0
				c-0.018,0.005-0.084-0.013-0.098,0c-0.01,0.008,0.014,0.092,0,0.096c-0.053,0.023-0.144-0.026-0.192,0
				c-0.015,0.009,0.012,0.087,0,0.099c-0.017,0.015-0.079-0.013-0.097,0c-0.023,0.013-0.074-0.015-0.099,0
				c-0.016,0.009,0.015,0.081,0,0.095c-0.018,0.019-0.077-0.013-0.096,0c-0.021,0.015-0.081-0.017-0.099,0
				c-0.016,0.019,0.018,0.082,0,0.098c-0.016,0.016-0.08-0.016-0.096,0c-0.017,0.015,0.016,0.081,0,0.097
				c-0.018,0.016-0.082-0.017-0.1,0c-0.014,0.016,0.018,0.084,0,0.097c-0.018,0.016-0.074-0.012-0.096,0
				c-0.017,0.01,0.014,0.083,0,0.097c-0.019,0.018-0.078-0.016-0.098,0c-0.019,0.016-0.08-0.018-0.097,0s0.017,0.081,0,0.096
				c-0.017,0.017-0.082-0.015-0.099,0c-0.015,0.016,0.017,0.082,0,0.098c-0.016,0.016-0.08-0.018-0.098,0
				c-0.016,0.016,0.018,0.083,0,0.097c-0.02,0.017-0.074-0.014-0.096,0c-0.016,0.01,0.014,0.083,0,0.098
				c-0.016,0.015-0.08-0.018-0.098,0c-0.017,0.015,0.018,0.078,0,0.095c-0.017,0.018-0.08-0.017-0.096,0
				c-0.018,0.018,0.016,0.082,0,0.098c-0.017,0.014-0.082-0.017-0.099,0c-0.017,0.015,0.019,0.08,0,0.096
				c-0.017,0.017-0.082-0.016-0.097,0c-0.018,0.021,0.015,0.077,0,0.098c-0.012,0.015-0.084-0.013-0.098,0
				c-0.016,0.016,0.018,0.079,0,0.096c-0.016,0.019-0.08-0.017-0.097,0c-0.017,0.019,0.017,0.082,0,0.098
				c-0.017,0.016-0.081-0.016-0.099,0c-0.015,0.015,0.018,0.081,0,0.097c-0.016,0.016-0.078-0.018-0.097,0
				c-0.016,0.016,0.019,0.084,0,0.097c-0.02,0.016-0.075-0.012-0.097,0c-0.016,0.01,0.014,0.083,0,0.098
				c-0.018,0.017-0.08-0.019-0.098,0c-0.017,0.017,0.018,0.08,0,0.095c-0.017,0.017-0.082-0.015-0.096,0
				c-0.018,0.017,0.014,0.081,0,0.098c-0.017,0.016-0.082-0.018-0.1,0c-0.016,0.016,0.018,0.08,0,0.097
				c-0.016,0.016-0.082-0.017-0.096,0c-0.017,0.02,0.014,0.075,0,0.098c-0.01,0.014-0.084-0.015-0.098,0
				c-0.016,0.014,0.018,0.08,0,0.095c-0.018,0.017-0.08-0.017-0.097,0c-0.017,0.018,0.017,0.082,0,0.098
				c-0.017,0.015-0.08-0.017-0.099,0c-0.014,0.013,0.017,0.085,0,0.096c-0.014,0.011-0.08,0-0.096,0c-0.025,0-0.076-0.009-0.098,0
				c-0.012,0.006,0.008,0.088,0,0.098c-0.012,0.015-0.083-0.013-0.098,0c-0.016,0.015,0.018,0.081,0,0.097
				c-0.018,0.017-0.08-0.018-0.099,0c-0.015,0.018,0.019,0.081,0,0.096c-0.015,0.017-0.077-0.015-0.096,0
				c-0.017,0.016,0.019,0.082,0,0.098c-0.019,0.016-0.08-0.018-0.097,0c-0.016,0.016,0.017,0.084,0,0.097
				c-0.02,0.016-0.075-0.012-0.098,0c-0.016,0.01,0.014,0.083,0,0.098c-0.017,0.017-0.082-0.019-0.097,0
				c-0.017,0.016,0.015,0.08,0,0.095c-0.017,0.017-0.081-0.015-0.099,0c-0.017,0.017,0.018,0.081,0,0.098
				c-0.017,0.015-0.08-0.018-0.097,0c-0.016,0.016,0.017,0.08,0,0.096c-0.016,0.017-0.083-0.016-0.097,0
				c-0.018,0.021,0.014,0.076,0,0.099c-0.012,0.014-0.083-0.015-0.098,0c-0.017,0.015,0.017,0.078,0,0.095
				c-0.017,0.018-0.08-0.017-0.098,0c-0.016,0.018,0.018,0.082,0,0.098c-0.016,0.015-0.08-0.017-0.096,0
				c-0.018,0.014,0.016,0.081,0,0.096c-0.018,0.017-0.081-0.016-0.098,0c-0.017,0.017,0.017,0.085,0,0.098
				c-0.021,0.017-0.075-0.012-0.098,0c-0.016,0.011,0.014,0.083,0,0.097c-0.017,0.018-0.08-0.017-0.099,0
				c-0.015,0.017,0.017,0.082,0,0.096c-0.015,0.017-0.078-0.015-0.097,0c-0.018,0.017,0.019,0.081,0,0.098
				c-0.018,0.017-0.08-0.017-0.097,0c-0.017,0.016,0.017,0.083,0,0.097c-0.017,0.016-0.079-0.015-0.097,0s0.016,0.078,0,0.098
				c-0.027,0.032-0.16-0.03-0.195,0c-0.016,0.015,0.018,0.081,0,0.095c-0.016,0.017-0.078-0.015-0.096,0
				c-0.016,0.017,0.018,0.082,0,0.098c-0.016,0.015-0.081-0.017-0.098,0c-0.016,0.015,0.018,0.08,0,0.096
				c-0.016,0.017-0.082-0.016-0.096,0c-0.018,0.021,0.014,0.077,0,0.1c-0.012,0.013-0.084-0.014-0.099,0
				c-0.015,0.013,0.017,0.077,0,0.093c-0.017,0.019-0.08-0.016-0.097,0c-0.018,0.021,0.017,0.083,0,0.099
				c-0.018,0.014-0.08-0.017-0.098,0c-0.016,0.014,0.018,0.081,0,0.096c-0.016,0.018-0.08-0.016-0.097,0
				c-0.017,0.018,0.017,0.085,0,0.098c-0.021,0.017-0.077-0.012-0.099,0c-0.015,0.012,0.014,0.084,0,0.098
				c-0.016,0.018-0.078-0.02-0.096,0c-0.019,0.018,0.018,0.08,0,0.095c-0.019,0.019-0.08-0.015-0.098,0
				c-0.018,0.019,0.018,0.082,0,0.099c-0.016,0.017-0.081-0.018-0.098,0c-0.016,0.018,0.018,0.082,0,0.098
				c-0.016,0.015-0.084-0.016-0.096,0c-0.018,0.019,0.012,0.074,0,0.098c-0.012,0.016-0.084-0.016-0.1,0s0.018,0.08,0,0.096
				c-0.016,0.019-0.079-0.016-0.096,0c-0.017,0.019,0.017,0.082,0,0.098c-0.017,0.017-0.082-0.016-0.098,0
				c-0.015,0.017,0.018,0.082,0,0.097c-0.016,0.017-0.08-0.017-0.096,0c-0.018,0.017,0.016,0.086,0,0.101
				c-0.021,0.015-0.077-0.015-0.098,0c-0.014,0.008,0.014,0.08,0,0.094c-0.016,0.02-0.078-0.016-0.096,0
				c-0.019,0.018,0.016,0.082,0,0.099c-0.019,0.015-0.083-0.017-0.099,0c-0.016,0.015,0.014,0.079,0,0.097
				c-0.025,0.031-0.16-0.027-0.195,0c-0.015,0.014,0.015,0.084,0,0.098c-0.014,0.016-0.083-0.016-0.096,0
				c-0.018,0.019,0.014,0.074,0,0.097c-0.012,0.019-0.083-0.015-0.096,0c-0.018,0.019,0.011,0.078,0,0.097c-0.065,0-0.129,0-0.194,0
				c-0.033,0-0.066,0-0.099,0c-0.012-0.019,0.018-0.078,0-0.097c-0.015-0.019-0.079,0.019-0.096,0c-0.016-0.019,0.017-0.081,0-0.097
				c-0.016-0.016-0.081,0.016-0.097,0s0.017-0.08,0-0.098c-0.016-0.017-0.08,0.018-0.096,0c-0.018-0.017,0.016-0.082,0-0.097
				c-0.018-0.017-0.083,0.015-0.098,0c-0.015-0.017,0.016-0.079,0-0.099c-0.015-0.016-0.08,0.02-0.096,0
				c-0.018-0.016,0.016-0.079,0-0.094C27.232,29.498,27.167,29.529,27.152,29.516z M32.676,45.824c-0.012,0.004,0.012,0.086,0,0.098
				s-0.078-0.006-0.097,0c-0.062,0.016-0.134-0.016-0.194,0c-0.018,0.004-0.084-0.012-0.096,0c-0.008,0.008,0.008,0.094,0,0.096
				c-0.094,0.021-0.2-0.021-0.293,0c-0.016,0.004-0.084-0.012-0.096,0c-0.012,0.01,0.014,0.094,0,0.099
				c-0.055,0.022-0.137-0.019-0.193,0c-0.057,0.018-0.141-0.023-0.195,0c-0.012,0.006,0.012,0.086,0,0.096
				c-0.012,0.013-0.078-0.004-0.096,0c-0.057,0.015-0.135,0-0.193,0c-0.057,0-0.139-0.014-0.193,0c-0.01,0.002,0.009,0.09,0,0.099
				c-0.01,0.008-0.082,0-0.098,0c-0.031,0.002-0.065-0.004-0.097,0c-0.126,0.021-0.263-0.021-0.388,0
				c-0.018,0.004-0.088-0.011-0.098,0c-0.011,0.012,0.012,0.092,0,0.096c-0.051,0.023-0.14-0.006-0.193,0
				c-0.127,0.018-0.26-0.018-0.387,0c-0.031,0.006-0.179-0.021-0.194,0c-0.005,0.008,0.005,0.098,0,0.098
				c-0.255,0.021-0.521,0-0.776,0c-0.225,0-0.453,0-0.678,0c-0.129,0.002-0.26,0-0.389,0s-0.258,0-0.387,0c-0.129,0-0.259,0-0.386,0
				c-0.129,0-0.26,0.008-0.388,0c-0.06-0.002-0.136,0.016-0.195,0c-0.018-0.002-0.085,0.012-0.097,0
				c-0.007-0.006,0.008-0.094,0-0.098c-0.124-0.023-0.262,0.018-0.387,0c-0.062-0.008-0.131,0-0.193,0c-0.06,0-0.137,0.016-0.194,0
				c-0.018-0.004-0.086,0.014-0.098,0c-0.014-0.012,0.017-0.084,0-0.096c-0.017-0.013-0.076,0.004-0.096,0
				c-0.126-0.021-0.263,0.021-0.388,0c-0.018-0.002-0.088,0.012-0.098,0c-0.009-0.011,0.012-0.093,0-0.099
				c-0.052-0.021-0.136,0.013-0.193,0c-0.062-0.012-0.133,0.017-0.193,0c-0.018-0.004-0.086,0.013-0.098,0
				c-0.008-0.008,0.01-0.094,0-0.096c-0.092-0.021-0.199,0.02-0.29,0c-0.058-0.015-0.142,0.021-0.195,0
				c-0.012-0.005,0.01-0.089,0-0.099c-0.012-0.012-0.08,0.004-0.097,0c-0.061-0.016-0.133,0.017-0.193,0
				c-0.017-0.004-0.084,0.012-0.096,0c-0.01-0.008,0.008-0.094,0-0.096c-0.121-0.033-0.268,0.031-0.389,0
				c-0.01-0.002,0.008-0.09,0-0.098c-0.01-0.008-0.082,0-0.096,0c-0.029-0.002-0.07,0.008-0.098,0c-0.017-0.006-0.083,0.012-0.096,0
				c-0.01-0.012,0.013-0.092,0-0.096c-0.056-0.025-0.139,0.02-0.195,0c-0.02-0.008-0.083,0.014-0.097,0
				c-0.009-0.013,0.013-0.095,0-0.099c-0.055-0.022-0.137,0.019-0.193,0c-0.018-0.008-0.083,0.013-0.096,0
				c-0.012-0.01,0.012-0.092,0-0.098c-0.054-0.023-0.141,0.022-0.195,0c-0.02-0.009-0.084,0.014-0.096,0
				c-0.014-0.015,0.013-0.087,0-0.097c-0.022-0.016-0.073,0.008-0.098,0c-0.056-0.021-0.139,0.021-0.194,0
				c-0.012-0.006,0.01-0.086,0-0.098c-0.013-0.014-0.079,0.006-0.096,0c-0.056-0.021-0.14,0.023-0.195,0
				c-0.012-0.006,0.01-0.086,0-0.096c-0.016-0.016-0.078,0.006-0.097,0c-0.018-0.008-0.081,0.014-0.096,0
				c-0.011-0.012,0.013-0.094,0-0.1c-0.055-0.021-0.141,0.024-0.194,0c-0.014-0.004,0.01-0.084,0-0.097
				c-0.01-0.008-0.083,0.002-0.098,0c-0.025,0-0.074,0.011-0.097,0c-0.013-0.006,0.012-0.086,0-0.098
				c-0.012-0.013-0.081,0.004-0.096,0c-0.058-0.015-0.141,0.024-0.194,0c-0.014-0.005,0.009-0.087,0-0.097
				c-0.018-0.018-0.079,0.013-0.098,0c-0.019-0.014-0.079,0.017-0.096,0c-0.012-0.012,0.013-0.092,0-0.098
				c-0.054-0.023-0.141,0.023-0.195,0c-0.014-0.004,0.01-0.086,0-0.096c-0.016-0.016-0.078,0.01-0.097,0
				c-0.018-0.01-0.08,0.016-0.097,0c-0.014-0.014,0.017-0.088,0-0.098c-0.022-0.015-0.074,0.012-0.097,0
				c-0.019-0.011-0.081,0.016-0.096,0c-0.012-0.013,0.012-0.093,0-0.099c-0.049-0.021-0.15,0.029-0.195,0
				c-0.016-0.01,0.015-0.084,0-0.096c-0.017-0.017-0.081,0.016-0.096,0c-0.017-0.017,0.015-0.08,0-0.099
				c-0.016-0.016-0.079,0.012-0.098,0s-0.081,0.017-0.096,0c-0.01-0.012,0.012-0.092,0-0.096c-0.054-0.023-0.141,0.021-0.194,0
				c-0.014-0.006,0.011-0.086,0-0.098c-0.01-0.01-0.083,0-0.099,0c-0.019-0.002-0.078,0.012-0.096,0
				c-0.016-0.01,0.014-0.084,0-0.096c-0.018-0.019-0.081,0.016-0.097,0c-0.017-0.019,0.016-0.082,0-0.101
				c-0.015-0.014-0.077,0.015-0.097,0c-0.02-0.01-0.082,0.019-0.097,0c-0.009-0.01,0.011-0.09,0-0.096
				c-0.051-0.021-0.147,0.028-0.194,0c-0.016-0.011,0.013-0.084,0-0.099c-0.016-0.016-0.08,0.019-0.097,0
				c-0.017-0.016,0.018-0.08,0-0.096c-0.017-0.018-0.079,0.014-0.096,0c-0.02-0.016-0.081,0.016-0.098,0
				c-0.017-0.018,0.018-0.08,0-0.098c-0.017-0.016-0.08,0.018-0.096,0c-0.014-0.014,0.015-0.086,0-0.096
				c-0.02-0.015-0.082,0.016-0.098,0c-0.009-0.013,0.013-0.095,0-0.099c-0.05-0.021-0.148,0.029-0.195,0
				c-0.013-0.012,0.014-0.082,0-0.098c-0.014-0.017-0.078,0.018-0.096,0c-0.018-0.017,0.018-0.08,0-0.097
				c-0.018-0.016-0.078,0.013-0.097,0c-0.019-0.014-0.08,0.017-0.097,0c-0.017-0.016,0.018-0.08,0-0.098
				c-0.017-0.016-0.082,0.018-0.097,0c-0.015-0.016,0.015-0.082,0-0.096c-0.017-0.016-0.081,0.016-0.096,0
				c-0.016-0.014,0.016-0.088,0-0.098c-0.023-0.017-0.078,0.016-0.098,0c-0.018-0.017-0.08,0.018-0.097,0
				c-0.017-0.019,0.018-0.08,0-0.097c-0.017-0.019-0.08,0.017-0.096,0c-0.018-0.019,0.016-0.082,0-0.1
				c-0.018-0.017-0.081,0.018-0.098,0c-0.017-0.017,0.018-0.08,0-0.097c-0.017-0.016-0.08,0.017-0.096,0
				c-0.016-0.016,0.016-0.084,0-0.098c-0.02-0.016-0.082,0.018-0.098,0c-0.009-0.01,0.013-0.09,0-0.096
				c-0.046-0.021-0.152,0.029-0.195,0c-0.014-0.012,0.016-0.084,0-0.098c-0.011-0.015-0.084,0.016-0.096,0
				c-0.014-0.019,0.016-0.082,0-0.097c-0.018-0.019-0.081,0.017-0.097,0c-0.017-0.019,0.016-0.082,0-0.098
				c-0.017-0.017-0.08,0.016-0.097,0c-0.017-0.017,0.018-0.08,0-0.099c-0.017-0.016-0.082,0.019-0.097,0
				c-0.016-0.016,0.015-0.08,0-0.096c-0.016-0.016-0.081,0.016-0.098,0c-0.016-0.016,0.018-0.082,0-0.098
				c-0.016-0.016-0.08,0.018-0.096,0c-0.016-0.016,0.016-0.08,0-0.096c-0.016-0.019-0.08,0.016-0.097,0
				c-0.016-0.017,0.018-0.082,0-0.099c-0.017-0.017-0.08,0.019-0.096,0c-0.014-0.014,0.014-0.086,0-0.096
				c-0.021-0.015-0.081,0.014-0.098,0c-0.017-0.019,0.018-0.082,0-0.101c-0.017-0.016-0.08,0.019-0.096,0
				c-0.018-0.016,0.016-0.08,0-0.096c-0.018-0.016-0.082,0.016-0.098,0c-0.015-0.016,0.017-0.08,0-0.098
				c-0.015-0.016-0.079,0.018-0.096,0c-0.018-0.016,0.017-0.08,0-0.096c-0.018-0.017-0.083,0.016-0.099,0
				c-0.014-0.017,0.018-0.082,0-0.099c-0.014-0.017-0.078,0.017-0.096,0c-0.018-0.017,0.018-0.08,0-0.096
				c-0.016-0.019-0.083,0.016-0.097,0c-0.015-0.021,0.016-0.082,0-0.099c-0.013-0.014-0.085,0.017-0.097,0
				c-0.014-0.02,0.018-0.078,0-0.098c-0.016-0.016-0.082,0.018-0.097,0c-0.016-0.016,0.015-0.08,0-0.096
				c-0.016-0.016-0.081,0.016-0.098,0c-0.016-0.016,0.018-0.08,0-0.098c-0.016-0.017-0.08,0.018-0.096,0
				c-0.016-0.017,0.016-0.08,0-0.097c-0.016-0.019-0.08,0.017-0.097,0c-0.016-0.019,0.015-0.078,0-0.098
				c-0.014-0.019-0.082,0.016-0.096,0c-0.018-0.019,0.012-0.078,0-0.097c-0.013-0.021,0.016-0.082,0-0.1
				c-0.016-0.014-0.086,0.018-0.098,0c-0.013-0.018,0.018-0.08,0-0.096c-0.013-0.014-0.086,0.016-0.096,0
				c-0.016-0.021,0.015-0.076,0-0.098c-0.014-0.017-0.083,0.016-0.098,0c-0.015-0.017,0.017-0.08,0-0.097
				c-0.015-0.019-0.079,0.017-0.096,0c-0.018-0.019,0.015-0.078,0-0.098c-0.016-0.019,0.017-0.08,0-0.097
				c-0.018-0.018-0.082,0.017-0.099,0c-0.015-0.018,0.017-0.082,0-0.098c-0.013-0.014-0.084,0.016-0.096,0
				c-0.016-0.018,0.018-0.08,0-0.098c-0.01-0.01-0.092,0.014-0.097,0c-0.021-0.047,0.03-0.152,0-0.193
				c-0.011-0.016-0.082,0.016-0.097,0c-0.014-0.014,0.017-0.086,0-0.096c-0.016-0.012-0.087,0.014-0.096,0
				c-0.014-0.02,0.014-0.08,0-0.098c-0.01-0.013-0.093,0.012-0.099,0c-0.021-0.049,0.031-0.148,0-0.195
				c-0.01-0.014-0.082,0.016-0.096,0c-0.016-0.016,0.016-0.08,0-0.096c-0.016-0.017-0.081,0.016-0.097,0
				c-0.016-0.017,0.013-0.078,0-0.099c-0.013-0.019,0.017-0.08,0-0.096c-0.016-0.019-0.08,0.016-0.096,0
				c-0.018-0.019,0.016-0.082,0-0.099c-0.015-0.012-0.088,0.017-0.098,0c-0.023-0.035,0.033-0.168,0-0.192
				c-0.013-0.013-0.086,0.014-0.096,0c-0.014-0.021,0.016-0.08,0-0.099c-0.01-0.01-0.093,0.015-0.098,0
				c-0.021-0.053,0.027-0.143,0-0.192c-0.007-0.015-0.084,0.012-0.096,0c-0.018-0.017,0.013-0.078,0-0.097
				c-0.014-0.02,0.017-0.082,0-0.098c-0.014-0.014-0.089,0.014-0.099,0c-0.01-0.02,0.015-0.082,0-0.096
				c-0.008-0.012-0.09,0.012-0.096,0c-0.023-0.055,0.027-0.145,0-0.195c-0.008-0.014-0.085,0.012-0.097,0
				c-0.017-0.016,0.012-0.078,0-0.098c-0.013-0.018,0.016-0.078,0-0.096c-0.011-0.013-0.089,0.014-0.097,0
				c-0.027-0.051,0.023-0.142,0-0.193c-0.005-0.014-0.087,0.01-0.096,0c-0.015-0.016,0.007-0.078,0-0.098
				c-0.008-0.021,0.012-0.082,0-0.099c-0.01-0.01-0.093,0.015-0.099,0c-0.023-0.053,0.027-0.141,0-0.192
				c-0.006-0.015-0.084,0.012-0.096,0c-0.016-0.017,0.013-0.078,0-0.096c-0.012-0.021,0.017-0.082,0-0.099
				c-0.012-0.013-0.089,0.014-0.097,0c-0.019-0.035,0.031-0.17,0-0.192c-0.011-0.011-0.091,0.01-0.096,0
				c-0.025-0.056,0.021-0.142,0-0.195c-0.005-0.012-0.088,0.012-0.098,0c-0.013-0.012,0.006-0.076,0-0.096
				c-0.019-0.058,0.023-0.14,0-0.193c-0.006-0.014-0.086,0.01-0.096,0c-0.014-0.014,0.008-0.08,0-0.098
				c-0.008-0.019,0.014-0.082,0-0.099c-0.01-0.01-0.093,0.015-0.098,0c-0.023-0.056,0.022-0.14,0-0.192
				c-0.007-0.021,0.014-0.084,0-0.097c-0.013-0.015-0.085,0.015-0.096,0c-0.016-0.021,0.009-0.071,0-0.099
				c-0.008-0.02,0.014-0.084,0-0.096c-0.011-0.012-0.093,0.012-0.099,0c-0.021-0.057,0.021-0.139,0-0.195
				c-0.006-0.02,0.013-0.084,0-0.098c-0.008-0.01-0.09,0.014-0.096,0c-0.023-0.055,0.02-0.137,0-0.193
				c-0.008-0.018,0.014-0.081,0-0.096c-0.01-0.012-0.092,0.012-0.097,0c-0.022-0.055,0.022-0.139,0-0.195
				c-0.007-0.02,0.013-0.084,0-0.096c-0.013-0.014-0.085,0.017-0.097,0c-0.014-0.021,0.007-0.074,0-0.098
				c-0.018-0.061,0.017-0.133,0-0.193c-0.004-0.018,0.013-0.086,0-0.096c-0.007-0.008-0.094,0.008-0.096,0
				c-0.012-0.061,0-0.135,0-0.195c0-0.057,0.012-0.139,0-0.192c-0.002-0.011-0.089,0.008-0.099,0c-0.012-0.013,0.004-0.08,0-0.099
				c-0.015-0.061,0.02-0.133,0-0.192c-0.006-0.019,0.014-0.084,0-0.099c-0.014-0.014-0.085,0.019-0.096,0
				c-0.012-0.02,0.006-0.074,0-0.096c-0.014-0.061,0.016-0.133,0-0.193c-0.004-0.018,0.012-0.086,0-0.098
				c-0.006-0.008-0.095,0.008-0.097,0c-0.024-0.125,0.023-0.264,0-0.389c-0.01-0.055,0.023-0.141,0-0.192
				c-0.005-0.011-0.086,0.011-0.096,0c-0.012-0.009,0.003-0.079,0-0.097c-0.018-0.094,0.012-0.197,0-0.289
				c-0.008-0.063,0.014-0.135,0-0.195c-0.004-0.018,0.012-0.086,0-0.098c-0.007-0.008-0.096,0.008-0.098,0
				c-0.023-0.121,0.008-0.264,0-0.389c-0.007-0.127,0-0.258,0-0.387c0-0.097,0.006-0.193,0-0.291c-0.006-0.062,0.014-0.135,0-0.193
				c-0.004-0.018,0.012-0.084,0-0.096c-0.007-0.009-0.094,0.008-0.096,0c-0.025-0.121,0.008-0.265,0-0.39
				c-0.016-0.231,0.006-0.427,0-0.678c-0.006-0.259,0-0.519,0-0.776c0-0.225,0-0.453,0-0.676c0-0.485,0-0.97,0-1.455
				c0-0.261,0-0.494,0-0.775c0-0.201,0-0.478,0-0.679c0-0.278,0-0.487,0-0.775c0-0.199,0-0.477,0-0.678c0-0.256,0-0.509,0-0.774
				c0-0.236,0-0.444,0-0.68c0-0.26,0-0.494,0-0.774c0-0.206,0-0.396,0-0.679c0-0.129,0-0.258,0-0.387c0-0.129,0-0.258,0-0.387
				s0-0.259,0-0.388c0-0.098-0.004-0.196,0-0.292c0.006-0.129,0-0.258,0-0.387c0-0.123-0.021-0.267,0-0.388
				c0.002-0.018-0.012-0.087,0-0.098c0.01-0.008,0.09,0.013,0.096,0c0.023-0.054-0.021-0.137,0-0.192
				c0.008-0.019-0.013-0.084,0-0.098c0.014-0.015,0.086,0.016,0.098,0c0.014-0.021-0.008-0.074,0-0.098
				c0.011-0.033-0.026-0.174,0-0.193c0.012-0.009,0.09,0.011,0.096,0c0.017-0.036-0.028-0.172,0-0.194
				c0.011-0.009,0.091,0.011,0.097,0c0.017-0.035-0.029-0.171,0-0.193c0.01-0.008,0.094,0.009,0.096,0
				c0.018-0.05-0.027-0.154,0-0.195c0.012-0.017,0.085,0.014,0.099,0c0.012-0.014-0.016-0.087,0-0.098
				c0.018-0.011,0.079,0.018,0.096,0c0.018-0.015-0.017-0.078,0-0.095c0.015-0.016,0.086,0.016,0.097,0
				c0.012-0.021-0.017-0.083,0-0.098c0.016-0.015,0.079,0.016,0.097,0c0.014-0.012-0.016-0.086,0-0.097
				c0.021-0.015,0.079,0.017,0.096,0c0.017-0.015-0.014-0.083,0-0.097c0.017-0.017,0.08,0.014,0.099,0
				c0.017-0.015-0.017-0.081,0-0.098c0.014-0.014,0.085,0.018,0.096,0c0.013-0.02-0.015-0.08,0-0.096
				c0.017-0.016,0.081,0.016,0.098,0c0.014-0.013-0.018-0.086,0-0.098c0.021-0.014,0.077,0.017,0.096,0
				c0.02-0.014,0.081,0.018,0.098,0c0.014-0.014-0.017-0.086,0-0.096c0.02-0.014,0.077,0.015,0.096,0
				c0.017-0.014-0.015-0.082,0-0.098c0.016-0.015,0.078,0.012,0.097,0c0.019-0.011,0.08,0.017,0.096,0
				c0.016-0.014-0.016-0.085,0-0.095c0.023-0.017,0.074,0.013,0.099,0c0.018-0.012,0.08,0.015,0.096,0
				c0.015-0.015-0.016-0.088,0-0.098c0.022-0.014,0.073,0.009,0.097,0c0.034-0.013,0.173,0.026,0.193,0
				c0.007-0.01-0.008-0.094,0-0.097c0.025-0.009,0.071,0,0.099,0c0.028,0,0.067,0.006,0.096,0c0.094-0.02,0.196,0.016,0.292,0
				c0.007-0.001-0.007-0.091,0-0.098c0.011-0.009,0.081,0.002,0.096,0c0.093-0.01,0.199,0,0.292,0c0.096,0,0.193,0,0.29,0
				c0.162,0,0.324,0,0.484,0c0.323,0,0.646,0,0.97,0c0.646,0,1.29,0,1.938,0c0.677,0,1.356,0,2.035,0c0.161,0,0.323,0,0.484,0
				c0.161,0,0.323,0,0.482,0c0.164,0,0.324,0,0.487,0c0.162,0,0.322,0,0.484,0c1.308,0,2.651,0,3.972,0c0.668,0,1.266,0,1.938,0
				c0.619,0,1.31,0,1.937,0c0.357,0,0.689,0,1.067,0c0.296,0,0.667,0,0.97,0c0.342,0,0.619,0,0.967,0c0.318,0,0.673,0,0.972,0
				c0.321,0,0.646,0,0.969,0s0.646,0,0.97,0c0.322,0,0.646,0,0.969,0c0.324,0,0.646,0,0.97,0c0.663,0,1.384,0,2.035,0
				c0.161,0,0.323,0,0.483,0c0.162,0,0.321,0,0.485,0c0.349,0,0.625,0,0.968,0c0.334,0,0.645,0,0.971,0c0.16,0,0.322,0,0.483,0
				c0.099,0,0.193,0,0.291,0c0.063,0,0.132-0.008,0.193,0c0.007,0.001-0.007,0.091,0,0.098c0.009,0.009,0.082-0.001,0.098,0
				c0.031,0.002,0.063-0.002,0.097,0c0.059,0.003,0.137-0.017,0.193,0c0.01,0.003-0.008,0.089,0,0.097
				c0.01,0.008,0.083-0.001,0.098,0c0.025,0,0.073-0.01,0.096,0c0.021,0.007,0.085-0.013,0.099,0c0.011,0.009-0.012,0.093,0,0.098
				c0.034,0.013,0.171-0.029,0.194,0c0.007,0.009-0.01,0.092,0,0.095c0.055,0.021,0.141-0.024,0.193,0
				c0.012,0.007-0.012,0.087,0,0.098c0.008,0.008,0.082-0.001,0.097,0c0.022,0.001,0.079-0.011,0.097,0
				c0.016,0.008-0.012,0.085,0,0.096c0.018,0.018,0.076-0.014,0.098,0c0.017,0.012-0.016,0.085,0,0.098c0.008,0.009,0.082,0,0.097,0
				c0.022,0.001,0.079-0.01,0.098,0c0.015,0.008-0.012,0.084,0,0.096c0.017,0.019,0.078-0.015,0.097,0
				c0.018,0.016-0.015,0.083,0,0.098c0.018,0.015,0.082-0.017,0.098,0c0.017,0.015-0.016,0.079,0,0.097
				c0.017,0.017,0.08-0.018,0.096,0c0.018,0.017-0.016,0.082,0,0.097c0.016,0.014,0.088-0.014,0.1,0
				c0.013,0.021-0.018,0.077,0,0.098c0.013,0.017,0.08-0.018,0.097,0c0.017,0.017-0.015,0.078,0,0.095
				c0.015,0.019-0.017,0.081,0,0.098c0.017,0.017,0.079-0.018,0.098,0c0.017,0.017-0.019,0.081,0,0.097
				c0.013,0.012,0.086-0.014,0.097,0c0.028,0.048-0.023,0.143,0,0.193c0.006,0.014,0.086-0.01,0.098,0
				c0.014,0.016-0.01,0.079,0,0.098c0.008,0.018-0.016,0.082,0,0.096c0.01,0.011,0.092-0.012,0.097,0
				c0.022,0.055-0.022,0.14,0,0.195c0.005,0.013,0.087-0.011,0.097,0c0.012,0.013-0.004,0.08,0,0.096
				c0.017,0.062-0.016,0.132,0,0.195c0.002,0.007,0.09-0.008,0.099,0c0.012,0.01-0.005,0.078,0,0.097
				c0.014,0.057-0.005,0.134,0,0.193c0.008,0.129-0.011,0.259,0,0.388c0.008,0.128,0,0.259,0,0.387s0,0.258,0,0.387
				c0,0.208,0,0.397,0,0.68c0,0.129,0,0.258,0,0.387s0,0.258,0,0.387c0,0.208,0,0.397,0,0.678c0,0.129,0,0.259,0,0.388
				c0,0.129,0,0.259,0,0.388c0,0.246,0,0.447,0,0.679c0,0.511,0,0.949,0,1.453c0,0.259,0,0.518,0,0.776c0,0.225,0,0.453,0,0.677
				c0,0.459,0,0.988,0,1.455c0,0.129,0,0.259,0,0.389c0,0.129,0,0.259,0,0.388c0,0.253,0,0.442,0,0.676c0,0.26,0,0.518,0,0.775
				s0.012,0.518,0,0.773c-0.007,0.125,0.021,0.267,0,0.388c-0.005,0.021,0.01,0.088,0,0.099c-0.013,0.01-0.093-0.013-0.099,0
				c-0.02,0.051,0.006,0.141,0,0.193c-0.012,0.127,0,0.261,0,0.389c0,0.096,0.012,0.196,0,0.291c-0.006,0.055,0.021,0.143,0,0.194
				c-0.004,0.011-0.086-0.013-0.097,0c-0.011,0.009,0.003,0.078,0,0.094c-0.022,0.125,0.021,0.265,0,0.39
				c-0.003,0.018,0.011,0.086,0,0.096c-0.011,0.012-0.093-0.012-0.097,0c-0.021,0.053,0.004,0.141,0,0.195
				c-0.01,0.094,0.018,0.197,0,0.291c-0.002,0.008-0.09-0.008-0.098,0c-0.013,0.012,0.004,0.078,0,0.096
				c-0.017,0.061,0.014,0.133,0,0.193c-0.015,0.057,0.022,0.143,0,0.194c-0.006,0.013-0.086-0.012-0.097,0
				c-0.012,0.013,0.004,0.08,0,0.097c-0.014,0.061,0.015,0.133,0,0.192c-0.004,0.019,0.011,0.086,0,0.099
				c-0.008,0.008-0.096-0.009-0.098,0c-0.021,0.092,0.024,0.2,0,0.291c-0.003,0.01-0.089-0.009-0.097,0
				c-0.013,0.012,0.004,0.08,0,0.098c-0.017,0.061,0.015,0.133,0,0.193c-0.006,0.018,0.013,0.084,0,0.096
				c-0.012,0.012-0.094-0.012-0.1,0c-0.021,0.055,0.02,0.139,0,0.195c-0.006,0.018,0.014,0.084,0,0.096
				c-0.01,0.012-0.09-0.012-0.096,0c-0.023,0.057,0.021,0.139,0,0.193c-0.008,0.02,0.014,0.084,0,0.098s-0.086-0.016-0.098,0
				c-0.015,0.021,0.01,0.074,0,0.098c-0.021,0.055,0.023,0.137,0,0.193c-0.004,0.012-0.086-0.012-0.097,0
				c-0.015,0.014,0.009,0.078,0,0.098c-0.008,0.018,0.015,0.082,0,0.096c-0.011,0.012-0.094-0.012-0.098,0
				c-0.022,0.055,0.022,0.139,0,0.193c-0.009,0.021,0.014,0.084,0,0.098c-0.011,0.01-0.093-0.012-0.097,0
				c-0.024,0.055,0.023,0.139,0,0.193c-0.006,0.012-0.086-0.01-0.098,0c-0.008,0.01,0.001,0.082,0,0.098
				c-0.001,0.025,0.01,0.074,0,0.096c-0.005,0.015-0.086-0.01-0.097,0c-0.013,0.013,0.004,0.08,0,0.099
				c-0.015,0.06,0.022,0.142,0,0.194c-0.005,0.013-0.087-0.012-0.097,0c-0.018,0.017,0.012,0.076,0,0.097
				c-0.014,0.021,0.016,0.08,0,0.099c-0.012,0.01-0.093-0.015-0.099,0c-0.024,0.053,0.022,0.139,0,0.192
				c-0.006,0.012-0.086-0.011-0.096,0c-0.017,0.017,0.009,0.076,0,0.096c-0.011,0.021,0.015,0.082,0,0.099
				c-0.015,0.014-0.087-0.017-0.099,0c-0.015,0.021,0.014,0.072,0,0.098c-0.01,0.02,0.017,0.082,0,0.096
				c-0.011,0.012-0.092-0.012-0.097,0c-0.021,0.051,0.028,0.15,0,0.193c-0.011,0.018-0.083-0.012-0.099,0
				c-0.016,0.018,0.018,0.082,0,0.098c-0.016,0.018-0.079-0.016-0.096,0s0.012,0.078,0,0.096c-0.011,0.021,0.016,0.082,0,0.101
				c-0.011,0.01-0.093-0.015-0.098,0c-0.021,0.053,0.023,0.139,0,0.192c-0.006,0.013-0.086-0.012-0.097,0
				c-0.009,0.009,0.001,0.08,0,0.097c-0.001,0.021,0.011,0.08,0,0.098c-0.009,0.015-0.087-0.012-0.099,0
				c-0.016,0.017,0.017,0.08,0,0.097c-0.016,0.018-0.08-0.017-0.096,0c-0.018,0.018,0.014,0.08,0,0.098
				c-0.016,0.018,0.016,0.08,0,0.098c-0.018,0.016-0.081-0.018-0.098,0c-0.016,0.016,0.017,0.08,0,0.096
				c-0.014,0.015-0.086-0.014-0.098,0c-0.029,0.045,0.021,0.146,0,0.193c-0.004,0.014-0.086-0.01-0.097,0
				c-0.017,0.016,0.011,0.078,0,0.098c-0.01,0.017-0.084-0.012-0.098,0c-0.019,0.017,0.014,0.078,0,0.097
				c-0.015,0.021,0.018,0.082,0,0.1c-0.015,0.013-0.087-0.018-0.097,0c-0.014,0.019,0.017,0.078,0,0.097
				c-0.012,0.01-0.093-0.015-0.098,0c-0.021,0.049,0.029,0.149,0,0.192c-0.011,0.017-0.084-0.014-0.097,0
				c-0.017,0.019,0.015,0.082,0,0.099c-0.017,0.016-0.081-0.017-0.099,0c-0.017,0.016,0.014,0.076,0,0.096
				c-0.013,0.018-0.08-0.014-0.097,0c-0.019,0.018,0.015,0.078,0,0.098c-0.012,0.02,0.017,0.08,0,0.098
				c-0.014,0.015-0.085-0.018-0.097,0c-0.014,0.021,0.017,0.08,0,0.097c-0.014,0.014-0.086-0.015-0.098,0
				c-0.015,0.021,0.018,0.077,0,0.098c-0.014,0.017-0.082-0.016-0.098,0c-0.016,0.017,0.016,0.08,0,0.097
				c-0.016,0.018-0.08-0.017-0.096,0c-0.018,0.018,0.014,0.08,0,0.098c-0.016,0.02,0.016,0.08,0,0.096
				c-0.018,0.018-0.081-0.016-0.098,0c-0.017,0.018,0.017,0.082,0,0.1c-0.017,0.015-0.082-0.018-0.098,0
				c-0.016,0.017,0.018,0.078,0,0.097c-0.018,0.018-0.081-0.019-0.097,0c-0.017,0.018,0.016,0.08,0,0.098
				c-0.017,0.015-0.082-0.018-0.099,0c-0.016,0.017,0.019,0.08,0,0.097c-0.014,0.014-0.086-0.017-0.096,0
				c-0.014,0.021,0.016,0.08,0,0.098c-0.016,0.016-0.082-0.016-0.098,0c-0.018,0.016,0.013,0.076,0,0.096
				c-0.014,0.021,0.017,0.082,0,0.098c-0.016,0.017-0.084-0.016-0.098,0c-0.015,0.019,0.016,0.08,0,0.099
				c-0.017,0.016-0.08-0.019-0.099,0c-0.015,0.016,0.019,0.08,0,0.096c-0.015,0.017-0.08-0.016-0.096,0
				c-0.017,0.019,0.018,0.082,0,0.099c-0.019,0.016-0.08-0.017-0.097,0c-0.018,0.016,0.017,0.08,0,0.096
				c-0.016,0.016-0.082-0.016-0.098,0c-0.016,0.018,0.018,0.082,0,0.098c-0.014,0.014-0.088-0.016-0.098,0
				c-0.012,0.02,0.016,0.082,0,0.096c-0.016,0.019-0.08-0.016-0.096,0c-0.019,0.019,0.016,0.082,0,0.101
				c-0.019,0.014-0.082-0.019-0.099,0c-0.017,0.014,0.017,0.077,0,0.096s-0.08-0.019-0.097,0c-0.018,0.019,0.017,0.08,0,0.099
				c-0.018,0.016-0.081-0.019-0.098,0c-0.016,0.014,0.017,0.082,0,0.096c-0.019,0.016-0.08-0.016-0.098,0
				c-0.012,0.012,0.014,0.092,0,0.098c-0.047,0.02-0.152-0.031-0.193,0c-0.017,0.012,0.016,0.082,0,0.096
				c-0.014,0.017-0.086-0.016-0.097,0c-0.012,0.021,0.015,0.084,0,0.099c-0.019,0.016-0.081-0.017-0.099,0
				c-0.016,0.016,0.018,0.08,0,0.098c-0.016,0.017-0.078-0.018-0.096,0c-0.019,0.017,0.018,0.08,0,0.097
				c-0.019,0.018-0.08-0.017-0.098,0c-0.018,0.018,0.018,0.08,0,0.098c-0.018,0.016-0.08-0.018-0.097,0
				c-0.017,0.016,0.017,0.084,0,0.096c-0.019,0.016-0.082-0.016-0.099,0c-0.01,0.012,0.012,0.094,0,0.098
				c-0.047,0.021-0.151-0.028-0.192,0c-0.017,0.013,0.015,0.084,0,0.097c-0.015,0.016-0.087-0.015-0.097,0
				c-0.013,0.021,0.016,0.086,0,0.1c-0.02,0.015-0.082-0.018-0.098,0c-0.018,0.017,0.016,0.078,0,0.097
				c-0.018,0.018-0.08-0.019-0.098,0c-0.014,0.014,0.016,0.086,0,0.098c-0.045,0.027-0.145-0.021-0.193,0
				c-0.013,0.004,0.012,0.084,0,0.096c-0.017,0.018-0.078-0.014-0.097,0c-0.017,0.012,0.015,0.084,0,0.098
				c-0.017,0.017-0.081-0.016-0.099,0c-0.016,0.017,0.018,0.08,0,0.097c-0.015,0.018-0.076-0.013-0.097,0
				c-0.021,0.014-0.081-0.017-0.097,0c-0.014,0.016,0.016,0.086,0,0.098c-0.021,0.015-0.074-0.016-0.098,0
				c-0.016,0.011,0.015,0.084,0,0.099c-0.017,0.016-0.078-0.015-0.098,0c-0.02,0.012-0.08-0.019-0.096,0
				c-0.014,0.012,0.016,0.086,0,0.096c-0.021,0.012-0.082-0.016-0.098,0c-0.011,0.01,0.013,0.094,0,0.098
				c-0.051,0.021-0.148-0.029-0.193,0c-0.016,0.01,0.012,0.084,0,0.096c-0.018,0.019-0.08-0.016-0.098,0
				c-0.019,0.019,0.018,0.082,0,0.099c-0.017,0.016-0.078-0.013-0.097,0c-0.021,0.012-0.082-0.017-0.098,0
				c-0.015,0.014,0.016,0.086,0,0.096c-0.021,0.019-0.074-0.014-0.097,0c-0.017,0.013,0.013,0.086,0,0.101
				c-0.018,0.016-0.078-0.015-0.1,0c-0.018,0.012-0.078-0.019-0.096,0c-0.012,0.01,0.014,0.088,0,0.096
				c-0.051,0.027-0.141-0.023-0.193,0c-0.013,0.004,0.012,0.086,0,0.098c-0.016,0.014-0.078-0.012-0.098,0
				c-0.02,0.01-0.08-0.016-0.098,0c-0.017,0.016,0.018,0.08,0,0.096c-0.017,0.019-0.08-0.016-0.097,0
				c-0.014,0.015,0.017,0.088,0,0.099c-0.034,0.022-0.168-0.033-0.192,0c-0.01,0.012,0.012,0.09,0,0.096
				c-0.051,0.027-0.142-0.021-0.193,0c-0.014,0.007,0.01,0.086,0,0.099c-0.016,0.014-0.078-0.008-0.098,0
				c-0.021,0.008-0.082-0.015-0.098,0c-0.011,0.01,0.014,0.092,0,0.098c-0.054,0.023-0.142-0.027-0.193,0
				c-0.015,0.006,0.012,0.084,0,0.096c-0.019,0.018-0.077-0.012-0.098,0c-0.019,0.012-0.08-0.016-0.097,0
				c-0.013,0.012,0.015,0.09,0,0.098c-0.035,0.021-0.17-0.03-0.195,0c-0.008,0.013,0.015,0.09,0,0.097
				c-0.052,0.026-0.139-0.021-0.192,0c-0.012,0.006,0.012,0.088,0,0.098c-0.014,0.017-0.078-0.008-0.096,0
				c-0.021,0.009-0.082-0.014-0.099,0c-0.013,0.013,0.015,0.093,0,0.097c-0.054,0.024-0.14-0.021-0.192,0
				c-0.021,0.01-0.084-0.013-0.098,0c-0.011,0.012,0.014,0.094,0,0.1c-0.055,0.021-0.141-0.025-0.193,0
				c-0.015,0.004,0.012,0.084,0,0.096c-0.011,0.008-0.082-0.002-0.098,0c-0.025,0-0.07-0.01-0.098,0
				c-0.019,0.006-0.084-0.014-0.098,0c-0.01,0.012,0.012,0.092,0,0.098c-0.055,0.021-0.137-0.021-0.193,0
				c-0.018,0.006-0.082-0.014-0.096,0c-0.012,0.011,0.012,0.092,0,0.097c-0.057,0.022-0.139-0.021-0.195,0
				c-0.018,0.008-0.081-0.015-0.096,0c-0.012,0.012,0.012,0.092,0,0.098c-0.056,0.022-0.139-0.021-0.193,0
				c-0.02,0.009-0.086-0.014-0.1,0c-0.012,0.013,0.017,0.086,0,0.099c-0.019,0.014-0.07-0.01-0.096,0
				c-0.057,0.018-0.141-0.025-0.193,0c-0.013,0.004,0.012,0.084,0,0.096c-0.014,0.014-0.08-0.008-0.097,0
				C32.813,45.844,32.73,45.801,32.676,45.824z"/>
		</g>
	</g>
</g>
</svg>
