<?xml version="1.0" encoding="utf-8"?>
<!-- Generator: Adobe Illustrator 15.1.0, SVG Export Plug-In . SVG Version: 6.00 Build 0)  -->
<!DOCTYPE svg PUBLIC "-//W3C//DTD SVG 1.1//EN" "http://www.w3.org/Graphics/SVG/1.1/DTD/svg11.dtd">
<svg version="1.1" id="Layer_1" xmlns="http://www.w3.org/2000/svg" xmlns:xlink="http://www.w3.org/1999/xlink" x="0px" y="0px"
	 width="56px" height="56px" viewBox="0 0 56 56" enable-background="new 0 0 56 56" xml:space="preserve">
<g>
	<path id="Twitter_2_" fill="#FFFFFF" d="M45.5,17.146c-1.288,0.57-2.672,0.957-4.124,1.13c1.481-0.889,2.621-2.295,3.157-3.973
		c-1.389,0.823-2.924,1.421-4.561,1.742c-1.311-1.396-3.177-2.267-5.242-2.267c-3.965,0-7.181,3.215-7.181,7.18
		c0,0.563,0.063,1.111,0.187,1.637c-5.968-0.299-11.259-3.158-14.801-7.503c-0.618,1.061-0.972,2.295-0.972,3.61
		c0,2.491,1.268,4.689,3.194,5.977c-1.178-0.037-2.284-0.36-3.253-0.897c0,0.029,0,0.06,0,0.09c0,3.479,2.475,6.382,5.76,7.041
		c-0.603,0.164-1.237,0.252-1.892,0.252c-0.463,0-0.913-0.045-1.351-0.129c0.913,2.853,3.564,4.929,6.707,4.985
		c-2.457,1.928-5.554,3.074-8.918,3.074c-0.58,0-1.151-0.033-1.713-0.101c3.178,2.038,6.952,3.228,11.008,3.228
		c13.207,0,20.43-10.941,20.43-20.432c0-0.312-0.006-0.621-0.021-0.929C43.32,19.85,44.537,18.585,45.5,17.146z"/>
</g>
</svg>
