<?xml version="1.0" encoding="UTF-8" standalone="no"?>
<svg id="love-hate-icons" width="297px" height="518px" viewBox="0 0 297 518" version="1.1" xmlns="http://www.w3.org/2000/svg" xmlns:xlink="http://www.w3.org/1999/xlink" xmlns:sketch="http://www.bohemiancoding.com/sketch/ns">
    <title>like-hate</title>
    <desc>Created by Cihad Turhan. Use without permission is prohibited.</desc>
    <defs></defs>
        <g id="svg-like-hate" sketch:type="MSArtboardGroup">
            <g id="svg-redpanda" sketch:type="MSLayerGroup" transform="translate(220.000000, 237.000000)">
                <g id="Path-9-+-Path-10" transform="translate(21.000000, 0.000000)" sketch:type="MSShapeGroup">
                    <path d="M1.13619928,8.00264083 C3.7958174,9.56676748 6.65665981,13.1009657 7.52724455,14.3285145 C12.2500448,12.0607676 13.8705869,1.76780633 11.2857152,0.61318871 C8.70084357,-0.541428907 -1.52341885,6.43851417 1.13619928,8.00264083 Z" id="Path-9" stroke="#666666" stroke-width="2"></path>
                    <path d="M3.4410114,8.80132309 C4.7407448,9.59222346 6.13881485,11.3792902 6.56426242,12 C8.87225588,10.8533142 9.66420139,5.64868015 8.40099598,5.06484796 C7.13779057,4.48101577 2.141278,8.01042273 3.4410114,8.80132309 Z" id="Path-10" stroke="#9B9B9B" fill="#FFFFFF"></path>
                </g>
                <g id="Path-9-+-Path-10" transform="translate(6.715512, 7.500000) scale(-1, 1) translate(-6.715512, -7.500000) translate(0.215512, 0.000000)" sketch:type="MSShapeGroup">
                    <path d="M1.13619928,8.00264083 C3.7958174,9.56676748 6.65665981,13.1009657 7.52724455,14.3285145 C12.2500448,12.0607676 13.8705869,1.76780633 11.2857152,0.61318871 C8.70084357,-0.541428907 -1.52341885,6.43851417 1.13619928,8.00264083 Z" id="Path-9" stroke="#666666" stroke-width="2"></path>
                    <path d="M3.4410114,8.80132309 C4.7407448,9.59222346 6.13881485,11.3792902 6.56426242,12 C8.87225588,10.8533142 9.66420139,5.64868015 8.40099598,5.06484796 C7.13779057,4.48101577 2.141278,8.01042273 3.4410114,8.80132309 Z" id="Path-10" stroke="#9B9B9B" fill="#FFFFFF"></path>
                </g>
                <path d="M19.5,20.4309723 C22.9160159,17.9538668 41.4620019,13.6739208 49.940817,20.706732 C52.5563345,23.3322835 56.6536027,27.7392761 52.6856538,31.5397179 C48.0099107,36.0180742 41.9184934,28.4852898 39.7444039,25.2177622 C37.5703145,21.9502346 32.1413403,22.7620389 28.5148888,23.8681504 C24.8884373,24.974262 19.5,20.4309723 19.5,20.4309723 Z" id="Path-7" stroke="#666666" sketch:type="MSShapeGroup"></path>
                <ellipse id="Oval-1" stroke="#666666" stroke-width="2" fill="#FFFFFF" sketch:type="MSShapeGroup" cx="17" cy="20.3572666" rx="14" ry="13.5"></ellipse>
                <circle id="Oval-2" fill="#4A4A4A" sketch:type="MSShapeGroup" cx="12" cy="17.8572666" r="2"></circle>
                <circle id="Oval-2" fill="#4A4A4A" sketch:type="MSShapeGroup" cx="22.5" cy="17.8572666" r="2"></circle>
                <path d="M38.2579846,16.8854024 L41.4771601,17.1344195 C40.8181871,19.0511372 39.9406343,22.4744823 39.9406344,25.2162287 L37.1785108,22.9710242 C37.1785108,20.7981254 37.3130934,17.957967 38.2579846,16.8854024 Z" id="Rectangle-2" fill="#A7A7A7" sketch:type="MSShapeGroup"></path>
                <path d="M33.6305025,16.8854024 L35.5105847,16.9830793 C34.7287895,18.401615 34.1625361,19.7834737 34.4852425,22.7531807 L32.5510286,22.9710242 C32.302819,20.7758681 32.3478519,17.8012353 33.6305025,16.8854024 Z" id="Rectangle-2" fill="#A7A7A7" sketch:type="MSShapeGroup"></path>
                <path d="M45.9617067,18.7328994 L49.4515069,20.2966616 C50.0688117,23.6215379 49.8924043,26.6150769 47.7670632,32.8743961 L44.0646503,30.4535124 C44.3469303,27.0625217 44.7865002,22.8860262 45.9617067,18.7328994 Z" id="Rectangle-2" fill="#A7A7A7" sketch:type="MSShapeGroup"></path>
                <path d="M17.3979031,22.7732507 C16.99666,22.7732507 16.41217,23.7899026 16.6054988,24.1047422 C16.7988277,24.4195818 18.0060609,24.4566873 18.2155123,24.1047422 C18.4249638,23.7527971 17.7991463,22.7732507 17.3979031,22.7732507 Z" id="Path-8" fill="#4A4A4A" sketch:type="MSShapeGroup"></path>
            </g>
            <g id="svg-datavis" sketch:type="MSLayerGroup" transform="translate(224.731727, 123.857267)">
                <polygon id="Triangle-1" stroke="#666666" stroke-width="2" sketch:type="MSShapeGroup" points="37.7906354 1.32042497 44.4731354 10.35539 31.1081354 10.35539 "></polygon>
                <polygon id="Triangle-1" stroke="#666666" stroke-width="2" sketch:type="MSShapeGroup" points="37.7906354 25.9650903 41.6152848 31.1361451 33.965986 31.1361451 "></polygon>
                <ellipse id="Oval-4" stroke="#666666" stroke-width="2" fill="#FFFFFF" sketch:type="MSShapeGroup" cx="5.51753578" cy="8.28205128" rx="5.1975" ry="5.27039627"></ellipse>
                <path d="M5.27750895,32.9659429 C7.28367836,32.9659429 8.91,31.3168117 8.91,29.2825053 C8.91,27.2481988 7.28367836,25.5990676 5.27750895,25.5990676 C3.27133953,25.5990676 1.64501789,27.2481988 1.64501789,29.2825053 C1.64501789,31.3168117 3.27133953,32.9659429 5.27750895,32.9659429 Z" id="Oval-4" stroke="#666666" stroke-width="2" fill="#FFFFFF" sketch:type="MSShapeGroup"></path>
                <rect id="Rectangle-5" fill="#9B9B9B" sketch:type="MSShapeGroup" x="15.1960805" y="2.73981883" width="11.44" height="11.3333333"></rect>
                <rect id="Rectangle-5" fill="#9B9B9B" sketch:type="MSShapeGroup" x="17.8360805" y="27.1500752" width="6.16" height="6.1025641"></rect>
            </g>
            <g id="svg-family" sketch:type="MSLayerGroup" transform="translate(221.731727, 60.000000)">
                <path d="M12.5517241,11.1581633 C15.5193103,11.1581633 17.9131034,8.656875 17.9131034,5.57908163 C17.9131034,2.50128827 15.5193103,0 12.5517241,0 C9.58413793,0 7.17241379,2.50128827 7.17241379,5.57908163 C7.17241379,8.656875 9.58413793,11.1581633 12.5517241,11.1581633 L12.5517241,11.1581633 Z" id="Path" fill="#4C4C4C" sketch:type="MSShapeGroup"></path>
                <path d="M40.3268966,11.1581633 C37.3593103,11.1581633 34.9655172,8.656875 34.9655172,5.57908163 C34.9655172,2.50128827 37.3593103,0 40.3268966,0 C43.2944828,0 45.7062069,2.50128827 45.7062069,5.57908163 C45.7062069,8.656875 43.2944828,11.1581633 40.3268966,11.1581633 L40.3268966,11.1581633 Z" id="Path" fill="#4C4C4C" sketch:type="MSShapeGroup"></path>
                <path d="M26,13.0178571 C28.4744828,13.0178571 30.4648276,10.935 30.4648276,8.36862245 C30.4648276,5.8022449 28.4744828,3.71938776 26,3.71938776 C23.5255172,3.71938776 21.5172414,5.8022449 21.5172414,8.36862245 C21.5172414,10.935 23.5255172,13.0178571 26,13.0178571 L26,13.0178571 Z" id="Path" fill="#999999" sketch:type="MSShapeGroup"></path>
                <path d="M26,16.7372449 C22.7096552,16.7372449 16.137931,18.4481633 16.137931,21.8514031 L16.137931,26.0357143 L35.862069,26.0357143 L35.862069,21.8514031 C35.862069,18.4481633 29.2903448,16.7372449 26,16.7372449 L26,16.7372449 Z" id="Path" fill="#999999" sketch:type="MSShapeGroup"></path>
                <path d="M12.5517241,14.877551 C8.36482759,14.877551 0,17.0533929 0,21.3864796 L0,26.0357143 L12.5517241,26.0357143 L12.5517241,21.8514031 C12.5517241,20.2706633 13.1524138,17.5090179 16.8013793,15.3982653 C15.2413793,15.0542219 13.7262069,14.877551 12.5517241,14.877551 L12.5517241,14.877551 Z" id="Path" fill="#4C4C4C" sketch:type="MSShapeGroup"></path>
                <path d="M39.2151724,14.877551 C43.402069,14.877551 51.7668966,17.0533929 51.7668966,21.3864796 L51.7668966,26.0357143 L39.2151724,26.0357143 L39.2151724,21.8514031 C39.2151724,20.2706633 38.6144828,17.5090179 34.9655172,15.3982653 C36.5255172,15.0542219 38.0406897,14.877551 39.2151724,14.877551 L39.2151724,14.877551 Z" id="Path" fill="#4C4C4C" sketch:type="MSShapeGroup"></path>
            </g>
            <g id="svg-me1" sketch:type="MSLayerGroup" transform="translate(223.000000, 401.857267)">
                <path d="M12.5517241,11.1581633 C15.5193103,11.1581633 17.9131034,8.656875 17.9131034,5.57908163 C17.9131034,2.50128827 15.5193103,0 12.5517241,0 C9.58413793,0 7.17241379,2.50128827 7.17241379,5.57908163 C7.17241379,8.656875 9.58413793,11.1581633 12.5517241,11.1581633 L12.5517241,11.1581633 Z" id="Path" fill="#9B9B9B" sketch:type="MSShapeGroup"></path>
                <path d="M40.3268966,11.1581633 C37.3593103,11.1581633 34.9655172,8.656875 34.9655172,5.57908163 C34.9655172,2.50128827 37.3593103,0 40.3268966,0 C43.2944828,0 45.7062069,2.50128827 45.7062069,5.57908163 C45.7062069,8.656875 43.2944828,11.1581633 40.3268966,11.1581633 L40.3268966,11.1581633 Z" id="Path" fill="#9B9B9B" sketch:type="MSShapeGroup"></path>
                <g id="Path-+-Path" transform="translate(16.137931, 3.719388)" fill="#4A4A4A" sketch:type="MSShapeGroup">
                    <path d="M9.86206897,9.29846939 C12.3365517,9.29846939 14.3268966,7.21561224 14.3268966,4.64923469 C14.3268966,2.08285714 12.3365517,0 9.86206897,0 C7.38758621,0 5.37931034,2.08285714 5.37931034,4.64923469 C5.37931034,7.21561224 7.38758621,9.29846939 9.86206897,9.29846939 L9.86206897,9.29846939 Z" id="Path"></path>
                    <path d="M9.86206897,13.0178571 C6.57172414,13.0178571 0,14.7287755 0,18.1320153 L0,22.3163265 L19.7241379,22.3163265 L19.7241379,18.1320153 C19.7241379,14.7287755 13.1524138,13.0178571 9.86206897,13.0178571 L9.86206897,13.0178571 Z" id="Path"></path>
                </g>
                <path d="M12.5517241,14.877551 C8.36482759,14.877551 0,17.0533929 0,21.3864796 L0,26.0357143 L12.5517241,26.0357143 L12.5517241,21.8514031 C12.5517241,20.2706633 13.1524138,17.5090179 16.8013793,15.3982653 C15.2413793,15.0542219 13.7262069,14.877551 12.5517241,14.877551 L12.5517241,14.877551 Z" id="Path" fill="#9B9B9B" sketch:type="MSShapeGroup"></path>
                <path d="M39.2151724,14.877551 C43.402069,14.877551 51.7668966,17.0533929 51.7668966,21.3864796 L51.7668966,26.0357143 L39.2151724,26.0357143 L39.2151724,21.8514031 C39.2151724,20.2706633 38.6144828,17.5090179 34.9655172,15.3982653 C36.5255172,15.0542219 38.0406897,14.877551 39.2151724,14.877551 L39.2151724,14.877551 Z" id="Path" fill="#9B9B9B" sketch:type="MSShapeGroup"></path>
            </g>
            <g id="svg-me2" sketch:type="MSLayerGroup" transform="translate(36.000000, 387.000000)">
                <path d="M12.5517241,11.1581633 C15.5193103,11.1581633 17.9131034,8.656875 17.9131034,5.57908163 C17.9131034,2.50128827 15.5193103,0 12.5517241,0 C9.58413793,0 7.17241379,2.50128827 7.17241379,5.57908163 C7.17241379,8.656875 9.58413793,11.1581633 12.5517241,11.1581633 L12.5517241,11.1581633 Z" id="Path" fill="#9B9B9B" sketch:type="MSShapeGroup"></path>
                <path d="M40.3268966,11.1581633 C37.3593103,11.1581633 34.9655172,8.656875 34.9655172,5.57908163 C34.9655172,2.50128827 37.3593103,0 40.3268966,0 C43.2944828,0 45.7062069,2.50128827 45.7062069,5.57908163 C45.7062069,8.656875 43.2944828,11.1581633 40.3268966,11.1581633 L40.3268966,11.1581633 Z" id="Path" fill="#9B9B9B" sketch:type="MSShapeGroup"></path>
                <g id="Path-+-Path" transform="translate(16.137931, 3.719388)" fill="#4A4A4A" sketch:type="MSShapeGroup">
                    <path d="M9.86206897,9.29846939 C12.3365517,9.29846939 14.3268966,7.21561224 14.3268966,4.64923469 C14.3268966,2.08285714 12.3365517,0 9.86206897,0 C7.38758621,0 5.37931034,2.08285714 5.37931034,4.64923469 C5.37931034,7.21561224 7.38758621,9.29846939 9.86206897,9.29846939 L9.86206897,9.29846939 Z" id="Path"></path>
                    <path d="M9.86206897,13.0178571 C6.57172414,13.0178571 0,14.7287755 0,18.1320153 L0,22.3163265 L19.7241379,22.3163265 L19.7241379,18.1320153 C19.7241379,14.7287755 13.1524138,13.0178571 9.86206897,13.0178571 L9.86206897,13.0178571 Z" id="Path"></path>
                </g>
                <path d="M12.5517241,14.877551 C8.36482759,14.877551 0,17.0533929 0,21.3864796 L0,26.0357143 L12.5517241,26.0357143 L12.5517241,21.8514031 C12.5517241,20.2706633 13.1524138,17.5090179 16.8013793,15.3982653 C15.2413793,15.0542219 13.7262069,14.877551 12.5517241,14.877551 L12.5517241,14.877551 Z" id="Path" fill="#9B9B9B" sketch:type="MSShapeGroup"></path>
                <path d="M39.2151724,14.877551 C43.402069,14.877551 51.7668966,17.0533929 51.7668966,21.3864796 L51.7668966,26.0357143 L39.2151724,26.0357143 L39.2151724,21.8514031 C39.2151724,20.2706633 38.6144828,17.5090179 34.9655172,15.3982653 C36.5255172,15.0542219 38.0406897,14.877551 39.2151724,14.877551 L39.2151724,14.877551 Z" id="Path" fill="#9B9B9B" sketch:type="MSShapeGroup"></path>
            </g>
            <g id="svg-love" sketch:type="MSLayerGroup" transform="translate(240.000000, 11.000000)" fill="#10D273">
                <path d="M10,18.35 L8.55,17.035 C3.4,12.36 0,9.275 0,5.5 C0,2.415 2.415,0 5.5,0 C7.24,0 8.91,0.81 10,2.085 C11.09,0.81 12.76,0 14.5,0 C17.585,0 20,2.415 20,5.5 C20,9.275 16.6,12.36 11.45,17.035 L10,18.35 L10,18.35 Z" id="Shape" sketch:type="MSShapeGroup"></path>
            </g>
            <g id="svg-game" sketch:type="MSLayerGroup" transform="translate(228.000000, 293.000000)" fill="#666666">
                <circle id="Oval" sketch:type="MSShapeGroup" cx="12.0058421" cy="20.3231053" r="2.56168421"></circle>
                <path d="M33.2916316,17.1333158 C31.3929474,14.0625789 29.1104211,11.9155263 26.7683684,11.9155263 L11.9894211,11.8724211 C2.06905263,11.8724211 -3.61878947,36.5586842 3.80352632,36.5586842 C8.09352632,36.5586842 9.83826316,32.9406316 13.2723158,30.6334737 C14.8487368,29.5743158 16.7802632,28.8025263 19.4794737,28.8025263 C21.5752105,28.8025263 23.4041053,29.5024737 25.0708421,30.4815789 C28.9236316,32.7497368 31.8814737,36.4622105 35.1123158,36.4622105 C38.7413684,36.4642632 38.7926842,32.1072632 36.933,25.6168421 C36.0729474,22.6138421 34.8044211,19.5800526 33.2916316,17.1333158 Z M12.0530526,25.2165789 C9.30663158,25.2165789 7.07952632,22.9894737 7.07952632,20.2451053 C7.07952632,17.5048421 9.30457895,15.2797895 12.0530526,15.2797895 C14.7974211,15.2797895 17.0224737,17.5048421 17.0224737,20.2451053 C17.0224737,22.9894737 14.7974211,25.2165789 12.0530526,25.2165789 L12.0530526,25.2165789 Z M26.2223684,16.2547895 C26.4789474,15.4419474 27.3451579,14.9924211 28.1497895,15.2428421 C28.9626316,15.4994211 29.4142105,16.3615263 29.1617368,17.1743684 C28.9031053,17.9872105 28.041,18.4367368 27.2302105,18.1842632 C26.4214737,17.9338421 25.9698947,17.0696842 26.2223684,16.2547895 L26.2223684,16.2547895 Z M24.5022632,20.7603158 C23.6894211,20.5078421 23.2378421,19.6457368 23.4944211,18.8308421 C23.7489474,18.0221053 24.6131053,17.5705263 25.4238947,17.8250526 C26.2346842,18.0775263 26.6883158,18.9396316 26.4317368,19.7524737 C26.1772105,20.5673684 25.311,21.0127895 24.5022632,20.7603158 L24.5022632,20.7603158 Z M28.2544737,23.2275789 C27.9958421,24.0404211 27.1357895,24.4899474 26.3229474,24.2374737 C25.5162632,23.9870526 25.0605789,23.1228947 25.3130526,22.308 C25.5737368,21.4972105 26.4378947,21.0476842 27.2404737,21.2981053 C28.0533158,21.5546842 28.5069474,22.4147368 28.2544737,23.2275789 L28.2544737,23.2275789 Z M31.1445789,20.7787895 C30.8859474,21.5916316 30.0238421,22.0411579 29.2130526,21.7907368 C28.4022632,21.5362105 27.9527368,20.6741053 28.2031579,19.8592105 C28.4617895,19.0463684 29.3259474,18.5988947 30.1346842,18.8472632 C30.9475263,19.1038421 31.3991053,19.9659474 31.1445789,20.7787895 L31.1445789,20.7787895 Z" id="Shape" sketch:type="MSShapeGroup"></path>
                <path d="M19.8756316,12.051 C19.9577368,12.051 20.0398421,12.0427895 20.124,12.0243158 C20.7500526,11.8888421 21.1482632,11.2689474 21.0107368,10.6428947 C20.4626842,8.11815789 20.5345263,5.66526316 20.9347895,5.33273684 C20.943,5.33478947 21.6573158,5.24857895 23.6463158,7.15547368 C24.4735263,7.95189474 27.0003158,10.374 29.1083684,9.26557895 C31.6392632,7.94163158 31.005,2.59042105 30.7504737,0.981157895 C30.6498947,0.346894737 30.0587368,-0.0882631579 29.4224211,0.0164210526 C28.7881579,0.117 28.3550526,0.712263158 28.4556316,1.34447368 C28.8723158,3.97389474 28.665,6.87836842 28.0307368,7.20884211 C28.0245789,7.20678947 27.3410526,7.48184211 25.2514737,5.47847368 C23.7756316,4.06421053 21.6039474,2.29894737 19.8161053,3.29652632 C17.5766842,4.55068421 18.3176842,9.19784211 18.7405263,11.1375789 C18.8595789,11.6815263 19.3398947,12.051 19.8756316,12.051 L19.8756316,12.051 Z" id="Shape" sketch:type="MSShapeGroup"></path>
            </g>
            <g id="svg-pcmac" sketch:type="MSLayerGroup" transform="translate(230.000000, 354.000000)">
                <rect id="Rectangle-7" fill="#A7A7A7" sketch:type="MSShapeGroup" x="0.5" y="2.25346265" width="39" height="26.2181442"></rect>
                <path d="M19.7000199,0.5 L19.7000199,30.5" id="Line" stroke="#464646" stroke-linecap="square" sketch:type="MSShapeGroup"></path>
                <path d="M33.6746029,15.833345 C33.6622392,14.4429922 34.6866603,13.7761949 34.7324211,13.7430663 C34.156823,12.7993821 33.2601722,12.6701053 32.9406507,12.6551598 C32.1775694,12.5685965 31.4516938,13.158501 31.0644211,13.158501 C30.6781244,13.158501 30.0805167,12.667961 29.4476555,12.680848 C28.6159234,12.6946998 27.8490144,13.2226784 27.4207464,14.0572417 C26.5565933,15.7372612 27.199445,18.2260916 28.0417033,19.5886121 C28.4532632,20.2555595 28.9440191,21.0046316 29.5883636,20.9778713 C30.2088612,20.9501248 30.4435024,20.5280292 31.1936842,20.5280292 C31.9438469,20.5280292 32.1547368,20.9778713 32.8113684,20.9640624 C33.4790813,20.9501676 33.9021053,20.2843567 34.3108325,19.6153723 C34.783445,18.8416413 34.9780478,18.0925478 34.9895311,18.0541014 C34.9746986,18.0465107 33.6875024,17.4940448 33.6746029,15.833345 L33.6746029,15.833345 Z M32.4407656,11.7531598 C32.782756,11.288308 33.0135885,10.6433821 32.950622,10 C32.4580096,10.0224717 31.8608995,10.3676316 31.5074641,10.8314327 C31.1903349,11.2428713 30.9127273,11.8995478 30.9871196,12.5300643 C31.5370526,12.5781384 32.0984115,12.216961 32.4407656,11.7531598 L32.4407656,11.7531598 Z" id="Shape" fill="#FFFFFF" sketch:type="MSShapeGroup"></path>
                <path d="M6.00293333,15.7333333 L6.00001667,13.1327167 L9.20001667,12.6981833 L9.20001667,15.7333333 L6.00293333,15.7333333 L6.00293333,15.7333333 Z M9.73335,12.6206833 L13.99895,12 L13.99895,15.7333333 L9.73335,15.7333333 L9.73335,12.6206833 L9.73335,12.6206833 Z M13.9999833,16.2666667 L13.99895,20 L9.73335,19.3998667 L9.73335,16.2666667 L13.9999833,16.2666667 L13.9999833,16.2666667 Z M9.20001667,19.3319667 L6.00261667,18.8936833 L6.00245,16.2666667 L9.20001667,16.2666667 L9.20001667,19.3319667 L9.20001667,19.3319667 Z" id="Shape" fill="#FFFFFF" sketch:type="MSShapeGroup"></path>
            </g>
            <g id="svg-politics" sketch:type="MSLayerGroup" transform="translate(39.000000, 73.000000)">
                <g id="tie1" transform="translate(30.000000, 1.000000)" fill="#4A4A4A" sketch:type="MSShapeGroup">
                    <path d="M8.96058394,1.52049689 C8.95526277,2.66086957 7.85010219,4.18136646 7.1800292,4.7515528 C6.5099562,5.32173913 5.38692701,5.32173913 4.49343066,5.32173913 C3.6,5.32173913 2.4769708,5.32173913 1.80683212,4.7515528 C1.13675912,4.18136646 0.0311386861,2.66086957 0.0262773723,1.52049689 C0.0200364964,0.190062112 2.75308029,0 4.49343066,0 C6.23391241,0 8.96689051,0.190062112 8.96058394,1.52049689 L8.96058394,1.52049689 Z M2.22411679,6.23862112 L0.660153285,21.3758944 C0.540919708,22.531472 0.990722628,23.6772112 1.90294161,24.5393106 L4.49389051,26.9888758 L7.18889781,24.5746398 C8.17259124,23.6938696 8.65681752,22.4923416 8.51656204,21.2831553 L6.76773723,6.23442857 C6.74448175,6.04017391 6.552,5.89192547 6.32240146,5.89192547 L2.66912409,5.89192547 C2.43768613,5.89192547 2.24421898,6.04246584 2.22411679,6.23862112 L2.22411679,6.23862112 Z" id="Shape"></path>
                </g>
                <g id="mic10" fill="#666666" sketch:type="MSShapeGroup">
                    <path d="M23.959949,4.68701042 C23.959949,2.09846875 21.7601274,0 19.0472102,0 C17.8593631,0 16.771414,0.4025 15.921707,1.07223958 C16.3015032,2.30752083 17.0396943,3.54608333 18.1166369,4.62298958 C19.5510573,6.05514583 21.3958471,6.98417708 23.183465,7.20671875 C23.6729427,6.47871875 23.959949,5.61611458 23.959949,4.68701042 L23.959949,4.68701042 Z" id="Shape"></path>
                    <path d="M17.6832611,5.01907292 C16.6184713,3.955 15.8724076,2.73751042 15.4459873,1.50704167 C14.8333758,2.13791667 14.4063439,2.928625 14.2317707,3.80479167 C14.6957962,5.06129167 15.5277707,6.258875 16.6539363,7.25841667 C17.7076433,8.1930625 18.9263694,8.87038542 20.1767389,9.24291667 C21.2135541,9.01060417 22.1223439,8.46788542 22.7898344,7.71910417 C20.968051,7.41467708 19.1255541,6.45983333 17.6832611,5.01907292 L17.6832611,5.01907292 Z" id="Shape"></path>
                    <path d="M6.36771975,24.8388437 C5.44547771,25.5691042 2.4124586,25.3542917 0.715566879,25.0492812 C0.390878981,24.9875938 0.077044586,25.1944583 0.0147515924,25.5054479 C-0.0458598726,25.8160729 0.167159236,26.1158333 0.492840764,26.1740208 C0.770675159,26.2241875 2.25332484,26.4791042 3.80629299,26.4791042 C5.07385987,26.4791042 6.38942675,26.3093542 7.13327389,25.7210625 C7.57070064,25.3774062 7.80015287,24.9105208 7.80015287,24.3754583 C7.80015287,22.8422396 6.82012739,22.1187604 6.03294268,21.534625 C5.28787261,20.9834479 4.82935032,20.6068333 4.79747771,19.8398229 C4.75780892,18.865 5.15633121,18.2080937 5.53811465,17.8045729 C6.42963057,18.557875 8.14440764,18.3840417 9.40517197,17.3952187 L11.2099108,15.9820938 C11.4447134,16.2649375 11.7733758,16.4729687 12.1568408,16.5489479 L12.1568408,25.5086562 C9.40746497,25.6024271 7.30394904,26.1123333 7.30394904,26.7295 C7.30394904,27.4126562 9.87859873,27.9660937 13.0569172,27.9660937 C16.2350828,27.9660937 18.8098854,27.4126563 18.8098854,26.7295 C18.8098854,26.1123333 16.7062166,25.6024271 13.9568408,25.5086562 L13.9568408,15.7114271 C14.0677452,15.5001875 14.1350828,15.2663437 14.1350828,15.0159479 C14.1350828,14.6276667 13.9816051,14.2781771 13.7366369,14.004375 L19.3906242,9.57891667 C18.271414,9.15884375 17.1932484,8.51761458 16.2452484,7.67746875 C15.2268535,6.7729375 14.4341656,5.71163542 13.9143439,4.58871875 L9.3235414,9.975 C8.87617834,9.79307292 8.33801274,9.87889583 7.98435669,10.2355313 C7.5835414,10.6368646 7.54807643,11.2441875 7.86978344,11.6811042 L5.79431847,14.1160833 C5.09701911,14.9346458 4.81566879,15.9318542 4.95951592,16.7436354 C4.33605096,17.2722083 3.53335032,18.2718958 3.5986242,19.8839375 C3.65403822,21.2234167 4.56435669,21.8969479 5.29673885,22.4387187 C6.0244586,22.9775729 6.6002293,23.4035521 6.6002293,24.3749479 C6.60007643,24.5718229 6.53098089,24.7102917 6.36771975,24.8388437 L6.36771975,24.8388437 Z" id="Shape"></path>
                </g>
            </g>
            <g id="svg-otherworks" sketch:type="MSLayerGroup" transform="translate(42.000000, 124.000000)">
                <path d="M0,14.97168 L2.28812903,14.97168 L2.28812903,35.48592 L17.5423226,35.48592 L17.5423226,14.97168 L19.8304516,14.97168 L19.8304516,10.7352 L0,10.7352 L0,14.97168 Z" id="Shape" fill="#9B9B9B" sketch:type="MSShapeGroup"></path>
                <path d="M37.7185161,22.8096 C40.0237097,22.76856 41.0179032,20.7756 40.7010968,19.07712 C40.8791613,18.35712 40.871,17.59968 40.6039032,16.87032 C38.249,10.41984 33.4753871,5.91408 26.9893871,3.36312 C24.5276452,2.39472 21.6556129,4.40928 21.0160645,6.66936 C20.780871,7.50096 20.7823548,8.27856 20.9670968,8.98488 L20.9670968,19.82736 C20.9670968,21.24216 22.1497419,22.39056 23.609129,22.39056 C24.0609677,22.39056 24.4823871,22.27032 24.8548387,22.0752 C22.6728065,24.44616 21.1785484,27.51624 20.5753548,31.15872 C19.9402581,35.01 26.001871,36.6624 26.6443871,32.7816 C27.6474839,26.69832 31.176129,22.92768 37.7185161,22.8096 L37.7185161,22.8096 Z M25.9447419,20.9988 C26.1331935,20.646 26.2489355,20.25216 26.2489355,19.82736 L26.2489355,13.39992 C28.1571935,14.60088 29.7197097,16.34184 30.6552903,18.0936 C28.8902258,18.8064 27.3099032,19.78128 25.9447419,20.9988 L25.9447419,20.9988 Z" id="Shape" fill="#4A4A4A" sketch:type="MSShapeGroup"></path>
                <path d="M20.0700968,5.99184 C19.9788387,3.76992 18.1017419,1.99368 15.789871,1.99368 C13.478,1.99368 11.5994194,3.76992 11.5081613,5.99184 L11.5,5.99184 C11.5,6.01992 11.5051935,6.04656 11.5051935,6.07464 C11.5051935,6.102 11.5,6.12864 11.5,6.15744 L11.5089032,6.15744 C11.6001613,8.37864 13.4787419,10.15488 15.789129,10.15488 C18.101,10.15488 19.9795806,8.37864 20.0708387,6.15744 L20.0797419,6.15744 C20.0797419,6.12864 20.0760323,6.102 20.0745484,6.07464 C20.0752903,6.04656 20.0797419,6.01992 20.0797419,5.99184 L20.0700968,5.99184 L20.0700968,5.99184 Z" id="Shape" fill="#4A4A4A" sketch:type="MSShapeGroup"></path>
                <path d="M45.4405806,15.59304 C45.4331613,13.82112 45.1712581,12.04056 44.9160323,10.31904 C44.8292258,9.72648 44.7424194,9.14184 44.6682258,8.57016 C44.5903226,7.96104 44.0116129,7.524 43.3913548,7.60608 C42.7636774,7.68168 42.3192581,8.2368 42.3971613,8.8452 C42.4728387,9.43056 42.561129,10.02888 42.6509032,10.63368 C42.8972258,12.29616 43.1509677,14.0148 43.1509677,15.6456 C43.1509677,15.6816 43.1524516,15.71688 43.1569032,15.75216 C44.0694839,24.94368 40.5111613,25.36488 36.3897097,25.8516 C33.1481935,26.23392 29.1150323,26.71128 29.1387742,32.52672 C29.1387742,33.13872 29.6514516,33.63336 30.2820968,33.63336 L30.2850645,33.63336 C30.9179355,33.63048 31.4283871,33.13224 31.4254194,32.51808 C31.4120645,28.8396 33.1162903,28.47384 36.6664516,28.0548 C36.8793871,28.03104 37.0952903,28.0044 37.3141613,27.97704 L37.3141613,32.60736 L33.5874194,34.3224 C33.3017742,34.45416 33.1800968,34.78464 33.3188387,35.0604 C33.4160323,35.25984 33.6193226,35.3772 33.8337419,35.3772 C33.9160968,35.3772 34.0014194,35.36064 34.0785806,35.3232 L37.7941935,33.61464 L41.1981935,35.31456 C41.2820323,35.35848 41.3718065,35.3772 41.4600968,35.3772 C41.6670968,35.3772 41.8696452,35.26848 41.9698065,35.07624 C42.1144839,34.80264 42.0046774,34.46784 41.7249677,34.32888 L38.4604516,32.69736 L38.4604516,27.81216 C42.2814194,27.17496 46.3924839,25.33176 45.4405806,15.59304 L45.4405806,15.59304 Z" id="Shape" fill="#9B9B9B" sketch:type="MSShapeGroup"></path>
                <rect id="Rectangle-path" fill="#9B9B9B" sketch:type="MSShapeGroup" x="1.43787097" y="7.8516" width="8.47735484" height="1.74456"></rect>
                <rect id="Rectangle-path" fill="#9B9B9B" sketch:type="MSShapeGroup" x="1.43787097" y="5.70024" width="8.47735484" height="1.74384"></rect>
                <rect id="Rectangle-path" fill="#9B9B9B" sketch:type="MSShapeGroup" x="1.43787097" y="4.44456" width="8.47735484" height="0.87192"></rect>
                <path d="M1.43787097,3.22848 L9.91522581,3.22848 L9.91522581,3.84408 L1.43787097,3.84408 L1.43787097,3.22848 Z" id="Rectangle-path" fill="#9B9B9B" sketch:type="MSShapeGroup"></path>
                <rect id="Rectangle-path" fill="#9B9B9B" sketch:type="MSShapeGroup" x="1.43787097" y="2.15496" width="8.47735484" height="0.40968"></rect>
                <rect id="Rectangle-path" fill="#9B9B9B" sketch:type="MSShapeGroup" x="1.43787097" y="1.46736" width="8.47735484" height="0.40968"></rect>
                <rect id="Rectangle-path" fill="#9B9B9B" sketch:type="MSShapeGroup" x="1.43787097" y="0.79416" width="8.47735484" height="0.40968"></rect>
                <rect id="Rectangle-path" fill="#9B9B9B" sketch:type="MSShapeGroup" x="1.43787097" y="0.10656" width="8.47735484" height="0.40968"></rect>
            </g>
            <g id="svg-physics" sketch:type="MSLayerGroup" transform="translate(224.731727, 179.000000)">
                <path d="M42,20.6252172 C42,17.7691397 38.5367157,15.2475207 33.2388137,13.6979431 C34.5189216,8.42467241 34.0228824,4.22390172 31.500549,2.79589655 C30.8937451,2.45249483 30.2039706,2.28775345 29.4506471,2.28775345 C27.0707157,2.28775345 24.0522745,3.93967241 21.001098,6.7676431 C18.2275196,4.19781207 15.4868824,2.60809138 13.2227941,2.33899138 C12.8948235,1.02139655 11.6904804,0.0382603448 10.2443627,0.0382603448 C8.54706863,0.0382603448 7.17053922,1.38698793 7.17053922,3.0509431 C7.17053922,4.08034138 7.69835294,4.98709138 8.50191176,5.53046897 C7.86134314,7.56902586 7.96483333,10.421069 8.76118627,13.6979431 C3.46328431,15.2475207 0,17.7692069 0,20.6252172 C0,23.4812276 3.46328431,26.002981 8.76118627,27.5524914 C7.4810098,32.8257621 7.97711765,37.0265328 10.4995196,38.4535293 C11.1062549,38.796931 11.796098,38.9616724 12.5494216,38.9616724 C14.9293529,38.9616724 17.9477941,37.3097534 20.9990392,34.4817828 C24.0502843,37.3097534 27.0687941,38.9616724 29.4487255,38.9616724 C30.2030098,38.9616724 30.8918235,38.7969983 31.4985588,38.4535293 C34.0209608,37.0255241 34.517,32.8247534 33.2368235,27.5524914 C34.5231765,27.1758724 35.6977353,26.7431069 36.7432059,26.2610534 C37.3018333,26.8114241 38.073549,27.1528086 38.9263137,27.1528086 C40.6236078,27.1528086 41.9991078,25.8041483 41.9991078,24.1401259 C41.9991078,23.526481 41.8094216,22.9561397 41.4876275,22.4800707 C41.8145,21.8825638 42,21.2629345 42,20.6252172 L42,20.6252172 Z M29.4496176,4.29732931 C29.8554804,4.29732931 30.1906569,4.37566552 30.4745686,4.53637241 C31.8797843,5.33177069 32.3338235,8.59351552 31.2463529,13.1788397 C29.5869412,12.8012121 27.7871863,12.51705 25.8890196,12.3322707 C24.7718333,10.8048155 23.6136765,9.40895172 22.4431667,8.18374655 C25.2052843,5.63496207 27.7482059,4.29732931 29.4496176,4.29732931 L29.4496176,4.29732931 Z M12.4089412,23.0173966 C12.7410294,23.6409931 13.090549,24.2676828 13.4595588,24.8932966 C13.8295294,25.5209276 14.2108235,26.1284534 14.5982255,26.7249517 C13.4216078,26.5633034 12.3136176,26.3624534 11.2825588,26.1265034 C11.5889804,25.1352983 11.9651275,24.0948724 12.4089412,23.0173966 L12.4089412,23.0173966 Z M11.2825588,15.1239983 C12.3136176,14.887981 13.4216078,14.687131 14.5971961,14.5254828 C14.2108235,15.121981 13.8285,15.7285655 13.4594902,16.3561966 C13.0915098,16.9818103 12.7410294,17.6074914 12.4089412,18.2320966 C11.9651275,17.1556293 11.5889804,16.1152034 11.2825588,15.1239983 L11.2825588,15.1239983 Z M13.4861863,20.6252172 C14.0037745,19.5617276 14.5798333,18.4741655 15.2347451,17.3614552 C15.8866373,16.2547966 16.5569216,15.2184052 17.2354412,14.2462966 C18.435598,14.1539069 19.6870882,14.0976931 21,14.0976931 C22.3129804,14.0976931 23.564402,14.1528983 24.7645588,14.2452879 C25.4430784,15.2173966 26.1133627,16.2537879 26.7652549,17.3604466 C27.4201667,18.4731569 27.9962255,19.560719 28.5138137,20.6242759 C27.9962255,21.6876983 27.4201667,22.7753276 26.7652549,23.8880379 C26.1133627,24.9946966 25.4430098,26.0310879 24.7635294,27.0042052 C23.5633039,27.0976034 22.3129118,27.1528086 20.9999314,27.1528086 C19.6870196,27.1528086 18.4365588,27.0976034 17.2363333,27.0052138 C16.5567843,26.0331052 15.8865,24.9957052 15.2346765,23.8890466 C14.5797647,22.7763362 14.0037745,21.6887741 13.4861863,20.6252172 L13.4861863,20.6252172 Z M27.4028039,14.5264914 C28.5794902,14.6881397 29.6874118,14.8890569 30.7175098,15.1250069 C30.4110196,16.1162121 30.0348725,17.1555621 29.5900294,18.2331052 C29.2579412,17.6095086 28.9084216,16.982819 28.5394118,16.3572052 C28.1704706,15.7295741 27.7892451,15.1220483 27.4028039,14.5264914 L27.4028039,14.5264914 Z M28.5405098,24.8932966 C28.9084216,24.2676155 29.2589706,23.6420017 29.5910588,23.0173966 C30.0348725,24.0948724 30.412049,25.1352983 30.7185392,26.1265034 C29.6874804,26.3625207 28.5794902,26.5633034 27.4028725,26.725019 C27.7892451,26.1284534 28.1704706,25.5209276 28.5405098,24.8932966 L28.5405098,24.8932966 Z M21,9.60173276 C21.7256667,10.3649224 22.4595686,11.2145172 23.1903137,12.1353879 C22.4697941,12.1052638 21.7400098,12.0891931 21,12.0891931 C20.2599902,12.0891931 19.5302059,12.1052638 18.8096863,12.1363966 C19.5405,11.2145172 20.2733039,10.365931 21,9.60173276 L21,9.60173276 Z M13.0136863,4.33747241 C14.6966373,4.54531552 17.0314118,5.85484138 19.556902,8.18367931 C18.3874216,9.40888448 17.2292647,10.8037397 16.111049,12.3322034 C14.2128824,12.5169828 12.4130588,12.8012121 10.7537157,13.1787724 C10.0167255,10.0726914 9.98289216,7.57312759 10.4820882,6.04069655 C11.6044216,5.9553 12.5534706,5.28752586 13.0136863,4.33747241 Z M9.29723529,25.6012138 C4.70345098,24.2325155 2.04990196,22.2169552 2.04990196,20.6252172 C2.04990196,19.0344879 4.70351961,17.0179862 9.29723529,15.6492207 C9.79334314,17.2479517 10.4431078,18.9200431 11.2302647,20.6252172 C10.4431078,22.3304586 9.79334314,24.0024828 9.29723529,25.6012138 L9.29723529,25.6012138 Z M12.5503824,36.9532397 C12.1445196,36.9532397 11.8093431,36.8749034 11.5254314,36.7141966 C10.1202157,35.9187983 9.66617647,32.6570534 10.7536471,28.0726707 C12.4130588,28.450231 14.2128137,28.735469 16.1109804,28.9192397 C17.2281667,30.4466948 18.3863235,31.8426259 19.5558039,33.0668224 C16.7936863,35.6155397 14.2517941,36.9532397 12.5503824,36.9532397 L12.5503824,36.9532397 Z M21,31.648769 C20.2743333,30.8855793 19.5415294,30.0359845 18.8107157,29.1150466 C19.5302059,29.1451707 20.2599902,29.1613086 21,29.1613086 C21.7400098,29.1613086 22.4697941,29.1452379 23.1892157,29.1141052 C22.4584706,30.0359172 21.7256667,30.8855793 21,31.648769 L21,31.648769 Z M30.4745686,36.7152052 C30.1906569,36.8759121 29.8554804,36.9542483 29.4496176,36.9542483 C27.7482059,36.9542483 25.2052843,35.6165483 22.443098,33.067831 C23.6125784,31.8436345 24.7707353,30.4477707 25.8879216,28.9203155 C27.7860882,28.7355362 29.5868725,28.4513069 31.2452549,28.0736793 C32.3337549,32.6580621 31.8797157,35.9187983 30.4745686,36.7152052 L30.4745686,36.7152052 Z M39.8024804,21.2669017 C39.5237157,21.184531 39.2336275,21.1273759 38.9261078,21.1273759 C37.2288824,21.1273759 35.8533824,22.4761034 35.8533824,24.1401259 C35.8533824,24.2385 35.873902,24.3308897 35.8831667,24.4273138 C34.9658235,24.8521448 33.8947549,25.2468517 32.7027647,25.6023569 C32.2066569,24.0036259 31.5568922,22.3314672 30.7697353,20.6262931 C31.5568922,18.921119 32.2066569,17.2490276 32.7027647,15.6502966 C37.296549,17.0190621 39.950098,19.035631 39.950098,20.6262931 C39.950098,20.832119 39.8906667,21.048031 39.8024804,21.2669017 L39.8024804,21.2669017 Z" id="Shape" fill="#666666" sketch:type="MSShapeGroup"></path>
                <path d="M22.6959074,23.189467 C22.6959074,21.7549957 21.4987551,20.5876126 20.0282504,20.5876126 C18.5571502,20.5876126 17.3605537,21.754957 17.3605537,23.189467 C17.3605537,24.623977 18.5571502,25.7913214 20.0282504,25.7913214 C21.4993903,25.7913214 22.6959074,24.623977 22.6959074,23.189467 Z" id="Shape" fill="#9B9B9B" sketch:type="MSShapeGroup"></path>
                <path d="M25.6112158,22.1018208 C25.6112158,20.6673495 24.4140634,19.4999664 22.9435588,19.4999664 C21.4724585,19.4999664 20.2758621,20.6673108 20.2758621,22.1018208 C20.2758621,23.5363308 21.4724585,24.7036752 22.9435588,24.7036752 C24.4146987,24.7036752 25.6112158,23.5363308 25.6112158,22.1018208 Z" id="Shape" fill="#4C4C4C" sketch:type="MSShapeGroup"></path>
                <path d="M21.7241379,20.5876126 C21.7241379,19.1531413 20.5269856,17.9857582 19.0564809,17.9857582 C17.5853807,17.9857582 16.3887842,19.1531026 16.3887842,20.5876126 C16.3887842,22.0221226 17.5853807,23.189467 19.0564809,23.189467 C20.5276209,23.189467 21.7241379,22.0221226 21.7241379,20.5876126 Z" id="Shape" fill="#4C4C4C" sketch:type="MSShapeGroup"></path>
                <path d="M24.3918148,19.4999664 C24.3918148,18.0654951 23.1946625,16.8981119 21.7241578,16.8981119 C20.2530576,16.8981119 19.0564611,18.0654564 19.0564611,19.4999664 C19.0564611,20.9344764 20.2530576,22.1018208 21.7241578,22.1018208 C23.1952977,22.1018208 24.3918148,20.9344764 24.3918148,19.4999664 Z" id="Shape" fill="#9B9B9B" sketch:type="MSShapeGroup"></path>
            </g>
            <g id="svg-rush" sketch:type="MSLayerGroup" transform="translate(46.000000, 319.000000)" fill="#666666">
                <path d="M33.0658421,11.1616744 C32.5691053,10.5702326 31.6844211,10.4924651 31.0912105,10.9856744 L27.2035263,14.2416744 L25.4156842,9.82530233 C25.3520526,9.65953488 25.2555789,9.52037209 25.1447368,9.3975814 C24.7793684,8.58716279 24.1451053,7.89134884 23.2706842,7.48818605 C22.8909474,7.31627907 22.4988947,7.22418605 22.1068421,7.17916279 C22.0206316,7.13413953 21.9426316,7.0747907 21.8441053,7.04409302 L15.0026842,5.14288372 C14.6188421,5.03851163 14.2329474,5.10604651 13.9168421,5.29023256 C13.5412105,5.41711628 13.2189474,5.68930233 13.065,6.08427907 L10.4889474,12.6883721 C10.2097895,13.4066977 10.5669474,14.2171163 11.2894737,14.4995349 C12.0078947,14.7778605 12.8227895,14.4197209 13.104,13.6993488 L15.2797895,8.12260465 L18.3956842,8.98623256 C18.3197368,9.10902326 18.2376316,9.22362791 18.1760526,9.35460465 L14.1816316,17.9867907 C14.1241579,18.1136744 14.0933684,18.2426047 14.0523158,18.3735814 L9.19784211,26.488 L1.07352632,29.1975814 C0.153947368,29.8831628 -0.0410526316,31.1745116 0.638368421,32.0913488 C1.32189474,33.0102326 2.62121053,33.2046512 3.53873684,32.5272558 L11.8518947,29.6723721 C12.1064211,29.488186 12.2911579,29.2466977 12.4307368,28.9867907 C12.5354211,28.8762791 12.6544737,28.7882791 12.7345263,28.6511628 L15.6287368,23.8132093 L20.7664737,28.1784186 L15.2695263,34.3547907 C14.5121053,35.2061395 14.5880526,36.5179535 15.4460526,37.2710698 C16.302,38.0303256 17.6136316,37.9505116 18.3751579,37.0950698 L25.2350526,29.3899535 C25.4485263,29.1525581 25.5757895,28.8783256 25.662,28.591814 C25.7133158,28.4362791 25.7133158,28.2746047 25.7256316,28.1129302 C25.7256316,28.0310698 25.7564211,27.9573953 25.7502632,27.8816744 C25.7317895,27.3168372 25.5018947,26.7683721 25.038,26.3774884 L20.3107895,22.3581395 C20.6515263,22.0347907 20.9409474,21.6500465 21.1503158,21.1977674 L24.2128421,14.5854884 L25.194,17.1906977 C25.2350526,17.4219535 25.3130526,17.6491163 25.4772632,17.8394419 C25.6250526,18.0154419 25.8138947,18.132093 26.0150526,18.2139535 C26.0355789,18.224186 26.0602105,18.2262326 26.0848421,18.2323721 C26.2121053,18.2773953 26.3414211,18.3203721 26.4748421,18.3265116 C26.6328947,18.3408372 26.793,18.3203721 26.9551579,18.2753488 C26.9592632,18.2733023 26.9613158,18.2733023 26.9613158,18.2733023 C27.0044211,18.2630698 27.0475263,18.2712558 27.0906316,18.2528372 C27.3184737,18.1668837 27.4929474,18.0215814 27.6427895,17.8517209 L33.2218421,13.1304186 C33.8150526,12.6331163 33.5646316,11.7531163 33.0658421,11.1616744 L33.0658421,11.1616744 Z" id="Shape" sketch:type="MSShapeGroup"></path>
                <ellipse id="Oval" sketch:type="MSShapeGroup" cx="26.0088947" cy="3.89860465" rx="3.91026316" ry="3.89860465"></ellipse>
            </g>
            <g id="svg-prate" sketch:type="MSLayerGroup" transform="translate(63.000000, 263.500000) scale(-1, 1) translate(-63.000000, -263.500000) translate(37.000000, 254.000000)" stroke="#4A4A4A" stroke-width="2" fill="#FFFFFF">
                <path d="M14.4547273,1.08193103 C12.2136364,1.08193103 10.101,1.75291954 8.50672727,2.97112644 C6.87072727,4.22124138 5.96981818,5.89609195 5.96981818,7.68763218 C5.96981818,9.21866667 7.14263633,11.392937 8.3793636,12.5692128 L7.88445455,16.4271264 C7.88445455,16.6101149 7.98354545,16.7787586 8.14263636,16.8663908 C8.21645455,16.9070345 8.298,16.9273563 8.37936364,16.9273563 C8.47272727,16.9273563 8.566,16.9007816 8.64745455,16.8475402 L12.0675913,14.0898904 C12.6214094,14.176695 13.8857273,14.2933333 14.4548182,14.2933333 C16.6960909,14.2933333 18.8083636,13.6224368 20.4028182,12.403954 C22.0387273,11.1538391 22.9396364,9.47898851 22.9396364,7.68763218 C22.9396364,5.896 22.0387273,4.22114943 20.4027273,2.97112644 C18.8082727,1.75291954 16.6960909,1.08193103 14.4547273,1.08193103 Z" id="Shape" sketch:type="MSShapeGroup" transform="translate(14.454727, 9.004644) scale(-1, 1) translate(-14.454727, -9.004644) "></path>
                <path d="M9.45472727,3.08193103 C7.21363636,3.08193103 5.101,3.75291954 3.50672727,4.97112644 C1.87072727,6.22124138 0.969818182,7.89609195 0.969818182,9.68763218 C0.969818182,11.2186667 2.14263633,13.392937 3.3793636,14.5692128 L2.88445455,18.4271264 C2.88445455,18.6101149 2.98354545,18.7787586 3.14263636,18.8663908 C3.21645455,18.9070345 3.298,18.9273563 3.37936364,18.9273563 C3.47272727,18.9273563 3.566,18.9007816 3.64745455,18.8475402 L7.06759126,16.0898904 C7.62140944,16.176695 8.88572727,16.2933333 9.45481818,16.2933333 C11.6960909,16.2933333 13.8083636,15.6224368 15.4028182,14.403954 C17.0387273,13.1538391 17.9396364,11.4789885 17.9396364,9.68763218 C17.9396364,7.896 17.0387273,6.22114943 15.4027273,4.97112644 C13.8082727,3.75291954 11.6960909,3.08193103 9.45472727,3.08193103 Z" id="Shape-2" sketch:type="MSShapeGroup" transform="translate(9.454727, 11.004644) scale(-1, 1) translate(-9.454727, -11.004644) "></path>
                <path d="M43.5150909,3.08193103 C41.274,3.08193103 39.1613636,3.75291954 37.5670909,4.97112644 C35.9310909,6.22124138 35.0301818,7.89609195 35.0301818,9.68763218 C35.0301818,11.2186667 36.203,13.392937 37.4397272,14.5692128 L36.9448182,18.4271264 C36.9448182,18.6101149 37.0439091,18.7787586 37.203,18.8663908 C37.2768182,18.9070345 37.3583636,18.9273563 37.4397273,18.9273563 C37.5330909,18.9273563 37.6263636,18.9007816 37.7078182,18.8475402 L41.1279549,16.0898904 C41.6817731,16.176695 42.9460909,16.2933333 43.5151818,16.2933333 C45.7564545,16.2933333 47.8687273,15.6224368 49.4631818,14.403954 C51.0990909,13.1538391 52,11.4789885 52,9.68763218 C52,7.896 51.0990909,6.22114943 49.4630909,4.97112644 C47.8686364,3.75291954 45.7564545,3.08193103 43.5150909,3.08193103 Z" id="Shape" sketch:type="MSShapeGroup"></path>
                <path d="M39.4547273,1.08193103 C37.2136364,1.08193103 35.101,1.75291954 33.5067273,2.97112644 C31.8707273,4.22124138 30.9698182,5.89609195 30.9698182,7.68763218 C30.9698182,9.21866667 32.1426363,11.392937 33.3793636,12.5692128 L32.8844545,16.4271264 C32.8844545,16.6101149 32.9835455,16.7787586 33.1426364,16.8663908 C33.2164545,16.9070345 33.298,16.9273563 33.3793636,16.9273563 C33.4727273,16.9273563 33.566,16.9007816 33.6474545,16.8475402 L37.0675913,14.0898904 C37.6214094,14.176695 38.8857273,14.2933333 39.4548182,14.2933333 C41.6960909,14.2933333 43.8083636,13.6224368 45.4028182,12.403954 C47.0387273,11.1538391 47.9396364,9.47898851 47.9396364,7.68763218 C47.9396364,5.896 47.0387273,4.22114943 45.4027273,2.97112644 C43.8082727,1.75291954 41.6960909,1.08193103 39.4547273,1.08193103 Z" id="Shape" sketch:type="MSShapeGroup"></path>
                <path d="M29.4547273,0.0819310345 C27.2136364,0.0819310345 25.101,0.75291954 23.5067273,1.97112644 C21.8707273,3.22124138 20.9698182,4.89609195 20.9698182,6.68763218 C20.9698182,8.21866667 22.1426363,10.392937 23.3793636,11.5692128 L22.8844545,15.4271264 C22.8844545,15.6101149 22.9835455,15.7787586 23.1426364,15.8663908 C23.2164545,15.9070345 23.298,15.9273563 23.3793636,15.9273563 C23.4727273,15.9273563 23.566,15.9007816 23.6474545,15.8475402 L27.0675913,13.0898904 C27.6214094,13.176695 28.8857273,13.2933333 29.4548182,13.2933333 C31.6960909,13.2933333 33.8083636,12.6224368 35.4028182,11.403954 C37.0387273,10.1538391 37.9396364,8.47898851 37.9396364,6.68763218 C37.9396364,4.896 37.0387273,3.22114943 35.4027273,1.97112644 C33.8082727,0.75291954 31.6960909,0.0819310345 29.4547273,0.0819310345 Z" id="Shape" sketch:type="MSShapeGroup"></path>
                <path d="M33.5150909,0.0819310345 C31.274,0.0819310345 29.1613636,0.75291954 27.5670909,1.97112644 C25.9310909,3.22124138 25.0301818,4.89609195 25.0301818,6.68763218 C25.0301818,8.21866667 26.203,10.392937 27.4397272,11.5692128 L26.9448182,15.4271264 C26.9448182,15.6101149 27.0439091,15.7787586 27.203,15.8663908 C27.2768182,15.9070345 27.3583636,15.9273563 27.4397273,15.9273563 C27.5330909,15.9273563 27.6263636,15.9007816 27.7078182,15.8475402 L31.1279549,13.0898904 C31.6817731,13.176695 32.9460909,13.2933333 33.5151818,13.2933333 C35.7564545,13.2933333 37.8687273,12.6224368 39.4631818,11.403954 C41.0990909,10.1538391 42,8.47898851 42,6.68763218 C42,4.896 41.0990909,3.22114943 39.4630909,1.97112644 C37.8686364,0.75291954 35.7564545,0.0819310345 33.5150909,0.0819310345 Z" id="Shape" sketch:type="MSShapeGroup"></path>
            </g>
            <g id="svg-wordpress" sketch:type="MSLayerGroup" transform="translate(37.000000, 180.000000)">
                <path d="M0.712173236,7.30714286 C0.712173236,5.66742857 2.01938056,4.33542857 3.63337285,4.33542857 C5.0855445,4.33714286 6.29077111,5.41457143 6.51664575,6.82628571 C8.09271133,6.45 9.8179553,6.88714286 11.0467808,8.13685714 L11.2145011,8.30828571 L9.05857825,10.5008571 L8.89170072,10.3302857 C8.19216359,9.61885714 7.05773351,9.61885714 6.35735356,10.3311429 C5.65528799,11.0442857 5.65613081,12.2014286 6.3539823,12.9111429 L6.77623302,13.3397143 L8.93215588,15.5305714 L11.2128155,17.8482857 L9.05857825,20.0417143 L6.77623302,17.7222857 L4.61946735,15.5305714 L4.19890226,15.1028571 C2.89590901,13.7777143 2.49304305,11.8851429 2.98693312,10.2068571 C1.68478269,9.90771429 0.712173236,8.724 0.712173236,7.30714286 L0.712173236,7.30714286 Z M7.03160622,13.0791429 L9.18752907,15.2708571 L11.4690315,12.954 L13.6249543,10.7622857 L14.0463622,10.3345714 C14.7484278,9.62057143 15.8803295,9.62142857 16.5773381,10.3311429 C17.2768753,11.0417143 17.2768753,12.1962857 16.5764953,12.9077143 L16.4104606,13.0782857 L18.5655406,15.2708571 L18.733261,15.0994286 C20.0219264,13.7871429 20.4323777,11.9202857 19.9612436,10.2548571 C21.3931877,10.0637143 22.4981192,8.81742857 22.4981192,7.308 C22.498962,5.66742857 21.1909119,4.33628571 19.5769196,4.33628571 C18.1003063,4.33628571 16.8790662,5.45142857 16.6818473,6.89828571 C15.0383565,6.408 13.1883757,6.82285714 11.8912822,8.14114286 L11.4698743,8.568 L9.31310863,10.7605714 L7.03160622,13.0791429 L7.03160622,13.0791429 Z M20.0134982,20.6082857 C20.4003507,18.9951429 19.9722002,17.2208571 18.7324182,15.9608571 L18.3093246,15.5297143 L16.1542446,13.3371429 L13.8794847,11.0211429 L11.722719,13.212 L13.9991646,15.5297143 L16.1542446,17.7222857 L16.5756525,18.1517143 C17.2785609,18.8665714 17.2768753,20.0177143 16.5798666,20.7265714 C15.8803295,21.438 14.7450566,21.438 14.0455194,20.7257143 L13.8794847,20.5577143 L11.7252475,22.752 L11.8904394,22.9191429 C13.2027036,24.2528571 15.0813401,24.6608571 16.7400016,24.1431429 C17.0088598,25.5008571 18.188802,26.5217143 19.6022041,26.5217143 C21.2153536,26.5217143 22.5242465,25.1914286 22.5242465,23.55 C22.5250893,22.0508571 21.4336429,20.8105714 20.0134982,20.6082857 L20.0134982,20.6082857 Z M15.8997142,17.982 L13.7446342,15.7894286 L11.4681887,18.1071429 L9.31310863,20.2988571 L8.89170072,20.7282857 C8.19384922,21.4388571 7.05689069,21.4397143 6.35482512,20.7257143 C5.65528799,20.0134286 5.65444517,18.8605714 6.3539823,18.1482857 L6.52085983,17.9802857 L4.36409416,15.7894286 L4.19890226,15.9557143 C2.94563514,17.2302857 2.52338442,19.0294286 2.93130728,20.6562857 C1.64348471,20.9648571 0.684360314,22.1425714 0.684360314,23.5482857 C0.684360314,25.1888571 1.99241046,26.52 3.60640274,26.52 C4.99452039,26.5182857 6.1567634,25.536 6.45427738,24.2151429 C8.04719927,24.6171429 9.80278461,24.1868571 11.0476236,22.9208571 L11.4698743,22.4905714 L13.6241115,20.2962857 L15.8997142,17.982 L15.8997142,17.982 Z" id="Shape" fill="#9B9B9B" sketch:type="MSShapeGroup"></path>
                <ellipse id="Oval-8" fill="#FFFFFF" sketch:type="MSShapeGroup" cx="30.5853423" cy="15" rx="14.7492768" ry="15"></ellipse>
                <path d="M20.5631601,9.58962248 C22.5270485,5.86436055 26.465291,3.42857143 31.0068811,3.42857143 C33.9466959,3.42857143 36.6327175,4.70261101 38.6955068,6.50084816 C38.1060263,6.38483286 37.4623858,6.51521703 36.814559,6.89226676 C35.296771,7.77728255 34.8009586,10.2822551 36.76851,11.5403293 C37.997183,12.3213038 38.4343876,14.2765342 38.3930481,15.4707467 C38.3527551,16.6668219 35.5369588,22.1599867 35.5369588,22.1599867 L32.795469,12.5857974 C32.795469,12.5857974 32.7010161,11.9141859 32.7010161,11.7204723 C32.7010161,11.4762016 32.7802937,11.1771162 32.9283834,11.0062864 C33.0306856,10.8926659 33.1863629,10.653983 33.3705592,10.653983 L34.6698757,10.653983 L34.6698757,9.58962248 L27.6055289,9.58962248 L27.6055289,10.653983 L27.8245237,10.653983 C28.0558156,10.653983 28.2821364,10.9703642 28.5003462,11.1976052 C28.7583257,11.4684849 29.083024,12.4876102 29.4762726,13.5447863 L30.5034809,16.9861301 L28.289724,22.1887244 L25.8608969,11.7907201 C25.8608969,11.7907201 25.9325869,11.0781307 26.0793684,10.9570597 C26.1751295,10.8737735 26.3221726,10.653983 26.4922402,10.653983 L26.558959,10.653983 L26.558959,9.58962248 L20.5631601,9.58962248 L20.5631601,9.58962248 Z M21.9480337,11.3966406 C21.9480337,11.3966406 21.3766066,10.653983 20.7701193,10.653983 L20.1547362,10.653983 C19.5610695,11.9844337 19.2329698,13.771229 19.2329698,15.4090138 C19.2329698,20.3354066 22.2036584,24.5606519 26.4357254,26.3610178 L21.9480337,11.3966406 L21.9480337,11.3966406 Z M41.1387242,9.4948944 C41.3624285,10.5744221 41.3161178,11.8841177 40.8796981,13.3247298 C39.7412917,17.0728754 36.9234023,23.8161317 35.8323532,26.3846998 C39.9275812,24.5252619 42.7807923,20.3734575 42.7807923,15.5471146 C42.7807923,13.3364377 42.1805845,11.2675869 41.1387242,9.4948944 L41.1387242,9.4948944 Z M31.2447141,19.616165 L28.2342558,27.0940961 C29.1233169,27.3106935 30.0511011,27.4288375 31.0066194,27.4288375 C31.9958896,27.4288375 32.9555942,27.3040412 33.873436,27.0722767 L31.2447141,19.616165 L31.2447141,19.616165 Z" id="WordPress__x28_alt_x29_" fill="#4A4A4A" sketch:type="MSShapeGroup"></path>
            </g>
            <g id="svg-hate" sketch:type="MSLayerGroup" transform="translate(55.000000, 11.000000)" fill="#E1164B">
                <path d="M15.9040553,18.8153019 C15.4972513,18.8153019 15.0222764,19.0149245 14.4798141,19.4125208 L11.4718392,18.2869962 L14.5244925,17.1606038 C15.0373116,17.4980528 15.5118593,17.6668642 15.9495879,17.6668642 C16.4313116,17.6668642 16.7480754,17.4136906 16.8992814,16.9089057 C16.9292663,16.801717 16.9443015,16.6858491 16.9443015,16.5633849 C16.9443015,15.9213811 16.5371558,15.5758604 15.7231206,15.5305547 C16.0542362,15.1936264 16.2209899,14.8633811 16.2209899,14.5418151 C16.2209899,14.2058415 16.046804,13.9213358 15.7005678,13.6915094 C15.5196332,13.6004642 15.3310955,13.5540302 15.1354673,13.5540302 C14.4717839,13.5540302 14.0194472,14.0971774 13.7782864,15.1854679 L8.48684422,17.1850792 L3.19548744,15.2319019 C2.95432663,14.1135811 2.50139196,13.5540302 1.83847739,13.5540302 C1.64259296,13.5540302 1.45396985,13.6004642 1.27294975,13.6915094 C0.941834171,13.9212491 0.775763819,14.2058415 0.775763819,14.5418151 C0.775763819,14.8633811 0.941834171,15.1936264 1.27294975,15.5305547 C0.444221106,15.5758604 0.0295577889,15.9213811 0.0295577889,16.5634717 C0.0295577889,16.6858491 0.0448492462,16.8018038 0.0744924623,16.9089057 C0.240733668,17.4136906 0.557241206,17.6668642 1.02461307,17.6668642 C1.46140201,17.6668642 1.93620603,17.4980528 2.44928141,17.1606906 L5.52448744,18.2869962 L2.49387437,19.3890868 C1.96636181,19.0066792 1.49975879,18.8153019 1.09269849,18.8153019 C0.609693467,18.8153019 0.270633166,19.0685623 0.0744924623,19.5732604 C0.0447638191,19.6804491 0.0295577889,19.7948415 0.0295577889,19.9182604 C0.0295577889,20.5609585 0.444135678,20.9063925 1.27294975,20.9516981 C0.941834171,21.2887132 0.775763819,21.6189585 0.775763819,21.9405245 C0.775763819,22.2763245 0.941834171,22.5597019 1.27294975,22.7908302 C1.48455276,22.9133811 1.68761307,22.9735283 1.88401005,22.9735283 C2.50139196,22.9735283 2.9469799,22.4374981 3.21829648,21.3656981 L8.48684422,19.4125208 L13.7558191,21.3656981 C14.0273065,22.4375849 14.4798141,22.9735283 15.1125729,22.9735283 C15.2937638,22.9735283 15.4890503,22.9133811 15.7006533,22.7908302 C16.046804,22.5597019 16.2210754,22.2763245 16.2210754,21.9405245 C16.2210754,21.6189585 16.0542362,21.2887132 15.723206,20.9516981 C16.5371558,20.9063925 16.9443869,20.5609585 16.9443869,19.9182604 C16.9443869,19.7948415 16.9292663,19.6805358 16.8993668,19.5732604 C16.7182613,19.0684755 16.3866332,18.8153019 15.9040553,18.8153019 L15.9040553,18.8153019 Z" id="Shape" sketch:type="MSShapeGroup"></path>
                <path d="M1.31865327,11.1878943 C2.14755276,12.1525057 3.31585427,12.8579547 4.82415578,13.3009434 L4.82415578,13.6468981 C4.82415578,14.0753057 4.96698995,14.4354943 5.25342714,14.7259887 C5.53960804,15.0174377 5.8939598,15.1782642 6.31622613,15.2088151 C6.75327136,15.2398 7.07695477,15.1629887 7.28821608,14.9791623 C7.61958794,15.2236566 7.9890603,15.3462075 8.39654774,15.3462075 C8.77328141,15.3462075 9.12045729,15.2319887 9.43662312,15.0022491 C9.64771357,15.1701057 9.95661809,15.2398868 10.3640201,15.2089019 C10.7857739,15.1630755 11.1404673,14.9983434 11.4267337,14.7151396 C11.7129146,14.4303736 11.856005,14.0753925 11.856005,13.6469849 L11.856005,13.3944189 C13.4839899,12.9652302 14.7430151,12.2455472 15.6327387,11.2334604 C16.4920503,10.269283 16.9215779,9.12848302 16.9215779,7.8108 C16.9215779,7.51926415 16.8912513,7.21314717 16.8307688,6.89106038 C16.5296382,4.93206792 15.6400854,3.31512453 14.1629648,2.04422264 C12.6100704,0.681841509 10.7180302,0 8.48692965,0 C6.25531658,0 4.36336181,0.674116981 2.81115075,2.02070189 C1.33351759,3.30835472 0.451824121,4.93198113 0.165472362,6.89097358 C0.104904523,7.21306038 0.0745778894,7.51917736 0.0745778894,7.81071321 C0.0745778894,9.09732453 0.488984925,10.2222415 1.31865327,11.1878943 L1.31865327,11.1878943 L1.31865327,11.1878943 Z M10.2397236,5.27255472 C10.6844573,4.74442264 11.2233317,4.48013962 11.8561759,4.48013962 C12.5047387,4.48013962 13.0509598,4.74442264 13.4958643,5.27255472 C13.9400854,5.79990566 14.1630503,6.43956604 14.1630503,7.18953962 C14.1630503,7.94020755 13.9401709,8.58004151 13.4958643,9.10834717 C13.0509598,9.63752075 12.5046533,9.90076226 11.8561759,9.90076226 C11.2233317,9.90076226 10.6844573,9.63752075 10.2397236,9.10834717 C9.79456281,8.58004151 9.57219598,7.94020755 9.57219598,7.18953962 C9.57211055,6.43956604 9.79456281,5.79990566 10.2397236,5.27255472 L10.2397236,5.27255472 Z M7.84263819,10.539034 C8.06098995,10.2520113 8.27532663,10.1078491 8.48692965,10.1078491 C8.69793467,10.1078491 8.89715075,10.266766 9.08594472,10.5859887 C9.27431156,10.9038226 9.36930653,11.2061208 9.36930653,11.4946189 C9.36930653,11.9339623 9.08218593,12.1525925 8.50931156,12.1525925 C8.13223618,12.1525925 7.85348744,12.0539962 7.67280905,11.8578453 C7.56713568,11.7353811 7.51485427,11.5847094 7.51485427,11.4022717 C7.5149397,11.1150755 7.62394472,10.8275321 7.84263819,10.539034 L7.84263819,10.539034 Z M3.28595477,5.27255472 C3.73829146,4.74442264 4.2811809,4.48013962 4.91411055,4.48013962 C5.54678392,4.48013962 6.08975879,4.74442264 6.54235176,5.27255472 C6.99477387,5.79990566 7.22132663,6.43956604 7.22132663,7.18953962 C7.22132663,7.94020755 6.9948593,8.58004151 6.54235176,9.10834717 C6.08984422,9.63752075 5.54678392,9.90076226 4.91411055,9.90076226 C4.2811809,9.90076226 3.73829146,9.63752075 3.28595477,9.10834717 C2.83387437,8.58004151 2.60732161,7.94020755 2.60732161,7.18953962 C2.60732161,6.43956604 2.83387437,5.79990566 3.28595477,5.27255472 L3.28595477,5.27255472 Z" id="Shape" sketch:type="MSShapeGroup"></path>
            </g>
        </g>
</svg>