<?xml version="1.0" encoding="utf-8"?>
<!-- Generator: Adobe Illustrator 15.1.0, SVG Export Plug-In . SVG Version: 6.00 Build 0)  -->
<!DOCTYPE svg PUBLIC "-//W3C//DTD SVG 1.1//EN" "http://www.w3.org/Graphics/SVG/1.1/DTD/svg11.dtd">
<svg version="1.1" id="Layer_1" xmlns="http://www.w3.org/2000/svg" xmlns:xlink="http://www.w3.org/1999/xlink" x="0px" y="0px"
	 width="110.776px" height="21.5px" viewBox="0 0 110.776 21.5" enable-background="new 0 0 110.776 21.5" xml:space="preserve">
<g>
	<polygon fill="#CCCCCC" points="55.556,0.29 58.405,6.063 64.776,6.989 60.166,11.483 61.254,17.829 55.556,14.833 49.857,17.829 
		50.945,11.483 46.335,6.989 52.707,6.063 	"/>
	<polygon fill="#CCCCCC" points="78.556,0.29 81.405,6.063 87.776,6.989 83.166,11.483 84.254,17.829 78.556,14.833 72.857,17.829 
		73.945,11.483 69.335,6.989 75.707,6.063 	"/>
	<polygon fill="#CCCCCC" points="101.556,0.29 104.405,6.063 110.776,6.989 106.166,11.483 107.254,17.829 101.556,14.833 
		95.857,17.829 96.945,11.483 92.335,6.989 98.707,6.063 	"/>
	<polygon fill="#CCCCCC" points="32.556,0.29 35.405,6.063 41.776,6.989 37.166,11.483 38.254,17.829 32.556,14.833 26.857,17.829 
		27.945,11.483 23.335,6.989 29.707,6.063 	"/>
	<polygon fill="#CCCCCC" points="9.556,0.29 12.405,6.063 18.776,6.989 14.166,11.483 15.254,17.829 9.556,14.833 3.857,17.829 
		4.945,11.483 0.335,6.989 6.707,6.063 	"/>
</g>
<g>
	<defs>
		<rect id="SVGID_1_" width="79" height="18"/>
	</defs>
	<clipPath id="SVGID_2_">
		<use xlink:href="#SVGID_1_"  overflow="visible"/>
	</clipPath>
	<g clip-path="url(#SVGID_2_)">
		<polygon fill="#F15A24" points="55.556,0.29 58.405,6.063 64.776,6.989 60.166,11.483 61.254,17.829 55.556,14.833 49.857,17.829 
			50.945,11.483 46.335,6.989 52.707,6.063 		"/>
		<polygon fill="#F15A24" points="78.556,0.29 81.405,6.063 87.776,6.989 83.166,11.483 84.254,17.829 78.556,14.833 72.857,17.829 
			73.945,11.483 69.335,6.989 75.707,6.063 		"/>
		<polygon fill="#F15A24" points="101.556,0.29 104.405,6.063 110.776,6.989 106.166,11.483 107.254,17.829 101.556,14.833 
			95.857,17.829 96.945,11.483 92.335,6.989 98.707,6.063 		"/>
		<polygon fill="#F15A24" points="32.556,0.29 35.405,6.063 41.776,6.989 37.166,11.483 38.254,17.829 32.556,14.833 26.857,17.829 
			27.945,11.483 23.335,6.989 29.707,6.063 		"/>
		<polygon fill="#F15A24" points="9.556,0.29 12.405,6.063 18.776,6.989 14.166,11.483 15.254,17.829 9.556,14.833 3.857,17.829 
			4.945,11.483 0.335,6.989 6.707,6.063 		"/>
	</g>
</g>
</svg>
